<svg width="23" height="23" viewBox="0 0 23 23" fill="none" xmlns="http://www.w3.org/2000/svg">
<g clip-path="url(#clip0)">
<path d="M17.4859 15.2149C16.7345 14.4731 15.7964 14.4731 15.0498 15.2149C14.4802 15.7797 13.9107 16.3444 13.3507 16.9187C13.1975 17.0767 13.0683 17.1102 12.8817 17.0049C12.5131 16.8039 12.1207 16.6412 11.7665 16.421C10.1153 15.3824 8.73212 14.0471 7.50689 12.5443C6.89905 11.7976 6.35823 10.9984 5.98013 10.0986C5.90355 9.91671 5.91791 9.79706 6.06628 9.64869C6.63582 9.09829 7.19101 8.53353 7.75098 7.96878C8.53111 7.18386 8.53111 6.26493 7.74619 5.47523C7.30109 5.02534 6.85598 4.58502 6.41087 4.13513C5.95141 3.67566 5.49673 3.21141 5.03248 2.75674C4.28107 2.02447 3.343 2.02447 2.59637 2.76152C2.02204 3.32628 1.47164 3.90539 0.887735 4.46058C0.346908 4.97269 0.0741011 5.59967 0.0166681 6.33194C-0.0742674 7.52367 0.217684 8.6484 0.629287 9.74441C1.47164 12.013 2.75431 14.028 4.30978 15.8754C6.41087 18.3737 8.91878 20.3504 11.8526 21.7766C13.1736 22.418 14.5424 22.9109 16.0309 22.9923C17.0551 23.0497 17.9453 22.7913 18.6585 21.992C19.1466 21.4464 19.697 20.9486 20.2139 20.4269C20.9797 19.6516 20.9845 18.7135 20.2235 17.9478C19.3142 17.0336 18.4 16.1243 17.4859 15.2149Z" fill="#96004F"/>
<path d="M16.5719 11.4004L18.338 11.0989C18.0604 9.47641 17.2946 8.00708 16.1316 6.83928C14.9016 5.60925 13.3461 4.83391 11.6327 4.5946L11.3838 6.37024C12.7095 6.5569 13.9156 7.15516 14.8681 8.10759C15.7678 9.00737 16.3565 10.1465 16.5719 11.4004Z" fill="#96004F"/>
<path d="M19.3333 3.72357C17.2945 1.6847 14.7148 0.397245 11.867 0L11.6182 1.77564C14.0782 2.12023 16.3085 3.23539 18.0698 4.99188C19.7401 6.66223 20.8362 8.77289 21.2334 11.0941L22.9995 10.7926C22.5352 8.10284 21.2669 5.66194 19.3333 3.72357Z" fill="#96004F"/>
</g>
<defs>
<clipPath id="clip0">
<rect width="23" height="23" fill="white"/>
</clipPath>
</defs>
</svg>
