<svg width="80" height="80" viewBox="0 0 80 80" fill="none" xmlns="http://www.w3.org/2000/svg">
<g clip-path="url(#clip0)">
<path d="M78.4375 62.6495C65.3881 62.6495 52.5805 68.0023 43.2983 77.3352C42.6892 77.9474 42.6922 78.9368 43.3038 79.5447C43.609 79.848 44.0069 79.9994 44.4061 79.9994C44.8071 79.9994 45.2081 79.8462 45.5139 79.5392C54.2138 70.7916 66.2139 65.7745 78.4375 65.7745C79.3005 65.7745 80 65.0751 80 64.212C80 63.3496 79.3005 62.6495 78.4375 62.6495Z" fill="white"/>
<path d="M45.8546 61.2024C45.3712 60.4871 44.4001 60.2991 43.6854 60.7825C37.0039 65.2954 31.3612 70.9424 26.913 77.5659C26.432 78.2825 26.6224 79.2535 27.339 79.7345C27.6069 79.9139 27.9091 80 28.2087 80C28.7117 80 29.2061 79.7571 29.5076 79.3085C33.73 73.02 39.0883 67.6581 45.4347 63.3716C46.1494 62.8888 46.3374 61.9177 45.8546 61.2024Z" fill="white"/>
<path d="M78.4377 50.0714C71.4522 50.0714 64.5382 51.2646 57.8878 53.6182C57.0742 53.9056 56.6482 54.7986 56.9362 55.6122C57.1627 56.2537 57.7657 56.6541 58.409 56.6541C58.5817 56.6541 58.7575 56.6248 58.9303 56.5637C65.245 54.3292 71.8081 53.1964 78.4377 53.1964C79.3008 53.1964 80.0002 52.4969 80.0002 51.6339C80.0002 50.7709 79.3008 50.0714 78.4377 50.0714Z" fill="white"/>
<path d="M22.3871 69.2788C32.6666 55.8761 47.547 46.57 63.9667 43.0825C63.9697 43.0819 63.9728 43.0813 63.9752 43.0807C68.6938 42.0791 73.5382 41.5572 78.4375 41.5572C79.2999 41.5572 80 40.8571 80 39.9947C80 39.1317 79.2999 38.4322 78.4375 38.4322C73.9948 38.4322 69.5691 38.8387 65.2185 39.634V36.2612C70.8661 31.4803 73.9661 25.2157 73.9661 18.5445C73.9661 11.6469 70.6525 5.18393 64.635 0.345673C64.0631 -0.113922 63.2483 -0.113922 62.6764 0.345673C56.6595 5.18393 53.3453 11.6469 53.3453 18.5445C53.3453 25.2157 56.4459 31.4803 62.0929 36.2612V40.273C59.1241 40.9487 56.1981 41.8099 53.3331 42.8469V33.6983C53.3331 33.2686 53.1598 32.8799 52.879 32.5973V32.5966L44.129 23.7948C43.8354 23.5 43.4369 23.334 43.0206 23.334H25.1562C24.7406 23.334 24.3414 23.5 24.0485 23.7948L15.2985 32.5966V32.5973C15.0177 32.8799 14.8438 33.2686 14.8438 33.6989V39.6657C13.7549 39.4662 12.6611 39.2904 11.5625 39.1402V33.5702C15.8331 29.8965 18.1763 25.1052 18.1763 20.0008C18.1763 14.6682 15.6201 9.67673 10.979 5.94443C10.4071 5.48483 9.5929 5.48483 9.021 5.94443C4.37988 9.67612 1.82373 14.6682 1.82373 20.0008C1.82373 25.1046 4.16687 29.8958 8.4375 33.5695V38.7807C6.15906 38.5677 3.86536 38.4579 1.5625 38.4579C0.699463 38.4579 0 39.1573 0 40.0204C0 40.8834 0.699463 41.5829 1.5625 41.5829C14.0564 41.5829 26.2769 44.8885 37.0502 51.1599C34.469 52.914 32.0038 54.8299 29.6698 56.8923C20.9412 52.4453 11.2427 50.0985 1.5625 50.0985C0.700073 50.0985 0 50.7979 0 51.661C0 52.524 0.700073 53.2235 1.5625 53.2235C10.3705 53.2235 19.1962 55.2718 27.2144 59.1616C24.8389 61.4596 22.6184 63.9181 20.5695 66.5169C14.4916 63.9681 8.10364 62.6766 1.5625 62.6766C0.700073 62.6766 0 63.3761 0 64.2391C0 65.1021 0.700073 65.8016 1.5625 65.8016C7.42188 65.8016 13.1506 66.9124 18.623 69.0999C17.5433 70.6002 16.5173 72.1413 15.5524 73.7234L13.1714 77.6241C12.7216 78.3602 12.9547 79.3221 13.6908 79.7713C13.9453 79.927 14.2261 80.0008 14.5038 80.0008C15.0299 80.0008 15.5444 79.7341 15.8386 79.2519L18.2196 75.3512C19.4611 73.3169 20.8026 71.3595 22.2327 69.4802C22.2888 69.4179 22.3413 69.3514 22.3871 69.2788ZM56.4709 18.5445C56.4709 12.9909 59.0118 7.73032 63.656 3.608C68.3002 7.73032 70.8411 12.9909 70.8411 18.5445C70.8411 23.4383 68.866 28.1057 65.2185 31.9662V20.0008C65.2185 19.1378 64.519 18.4383 63.656 18.4383C62.793 18.4383 62.0935 19.1378 62.0935 20.0008V31.9662C58.4454 28.1057 56.4709 23.4383 56.4709 18.5445ZM4.94873 20.0008C4.94873 16.0152 6.73279 12.2298 10 9.22202C13.2672 12.2292 15.0513 16.0152 15.0513 20.0008C15.0513 23.2949 13.8312 26.4529 11.5625 29.1482V18.7508C11.5625 17.8878 10.863 17.1883 10 17.1883C9.13757 17.1883 8.4375 17.8878 8.4375 18.7508V29.1482C6.16882 26.4529 4.94873 23.2949 4.94873 20.0008ZM48.0145 32.1358H34.5563L28.913 26.459H42.3712L48.0145 32.1358ZM25.1562 27.1126L30.1501 32.1358H20.163L25.1562 27.1126ZM17.9688 35.2608H32.3438V45.1974C31.6193 44.8641 30.8905 44.5418 30.1562 44.2324V38.9846C30.1562 38.1222 29.4568 37.4221 28.5938 37.4221H21.7188C20.8563 37.4221 20.1562 38.1222 20.1562 38.9846V40.8425C19.4299 40.6533 18.7012 40.4738 17.9688 40.3066V35.2608ZM27.0312 42.9995C25.7922 42.5429 24.5422 42.1194 23.2812 41.7306V40.5471H27.0312V42.9995ZM35.4688 46.7263V35.2608H50.2087V44.0597C47.5323 45.1687 44.917 46.4345 42.3816 47.8579C41.571 48.3126 40.7703 48.785 39.9786 49.2696C38.5016 48.3675 36.9977 47.5191 35.4688 46.7263Z" fill="white"/>
<path d="M63.6562 15.625C64.067 15.625 64.4705 15.4578 64.761 15.1666C65.0515 14.8761 65.2188 14.4733 65.2188 14.0625C65.2188 13.6511 65.0521 13.2483 64.761 12.9578C64.4705 12.6666 64.067 12.5 63.6562 12.5C63.2455 12.5 62.842 12.6666 62.5521 12.9578C62.261 13.2483 62.0938 13.6511 62.0938 14.0625C62.0938 14.4733 62.261 14.8761 62.5521 15.1666C62.842 15.4572 63.2455 15.625 63.6562 15.625Z" fill="white"/>
<path d="M50.0935 57.0734C49.8036 57.3639 49.6357 57.7667 49.6357 58.1775C49.6357 58.5901 49.803 58.9917 50.0935 59.2822C50.3846 59.5734 50.7875 59.74 51.1982 59.74C51.6096 59.74 52.0125 59.5734 52.303 59.2822C52.5935 58.9917 52.7607 58.5901 52.7607 58.1775C52.7607 57.7667 52.5935 57.3639 52.303 57.0734C52.0125 56.7822 51.6096 56.615 51.1982 56.615C50.7875 56.615 50.3846 56.7822 50.0935 57.0734Z" fill="white"/>
</g>
<defs>
<clipPath id="clip0">
<rect width="80" height="80" fill="white"/>
</clipPath>
</defs>
</svg>
