<svg width="80" height="80" viewBox="0 0 80 80" fill="none" xmlns="http://www.w3.org/2000/svg">
<path d="M79.2447 65.7059L60.2971 56.8637C60.2709 56.8335 60.2382 56.8087 60.2081 56.7812C60.1754 56.7511 60.1427 56.7223 60.1073 56.6948C60.0838 56.6765 60.0641 56.6529 60.0393 56.6359C59.9961 56.6071 59.9489 56.5914 59.9031 56.5691C59.8783 56.556 59.8586 56.5377 59.8337 56.5259L50.447 52.5034L35.5102 46.1012L39.6348 44.7267L49.6551 48.8736H49.6564L77.1438 60.2474C77.3035 60.3141 77.4736 60.3469 77.6438 60.3469C77.8991 60.3469 78.153 60.2723 78.3716 60.127C78.7342 59.8835 78.9528 59.4751 78.9528 59.0379V17.1503C78.9528 16.6202 78.6334 16.1424 78.1452 15.9408L67.6733 11.6068H67.672L40.1846 0.232977C40.0877 0.192399 39.9869 0.166219 39.8848 0.150511C39.8822 0.150511 39.8809 0.149202 39.8783 0.149202C39.6819 0.120404 39.4829 0.140039 39.2944 0.198944C39.2866 0.201562 39.2774 0.198944 39.2696 0.201562L0 13.2914L0.828588 15.7746L38.3742 3.25804V42.3863L33.1383 44.1311V32.8582C33.1383 32.4432 32.9419 32.0531 32.6095 31.8057C32.2757 31.5596 31.845 31.4837 31.4484 31.6055L1.34171 40.7684C0.790627 40.9359 0.41364 41.4451 0.41364 42.0211V55.1109V62.9648C0.41364 63.4688 0.702925 63.9283 1.15714 64.1455L15.0821 70.8057L9.03462 73.5545C8.56993 73.764 8.27148 74.2261 8.26756 74.7352C8.26363 75.2444 8.55553 75.7104 9.0163 75.929L16.8768 79.6531L17.9959 77.2865L12.6841 74.7706L18.1635 72.2809L31.2625 78.5457C31.3005 78.564 31.3411 78.5706 31.379 78.5837C31.4222 78.5994 31.4641 78.6151 31.5086 78.6269C31.5845 78.6465 31.6618 78.6557 31.739 78.6609C31.7704 78.6622 31.7992 78.6727 31.8293 78.6727C31.8411 78.6727 31.8516 78.6687 31.862 78.6674C31.9432 78.6648 32.0217 78.6504 32.1003 78.6334C32.1343 78.6255 32.1696 78.6242 32.2037 78.6138C32.2377 78.6033 32.2704 78.5863 32.3045 78.5732C32.3176 78.568 32.3306 78.5706 32.3437 78.5653L59.8324 66.7845C60.3155 66.5803 60.627 66.1064 60.627 65.5828V59.907L75.5612 66.8774L52.2312 77.4815L53.315 79.8639L79.2329 68.083C79.6976 67.8722 79.9974 67.4088 80 66.8983C80.0026 66.3878 79.7068 65.9218 79.2447 65.7059ZM68.4809 47.257V34.1671V28.9312V14.7758L76.3348 18.0247V57.0783L68.4809 53.8281V47.257ZM65.8629 52.7456L53.7103 47.7165L60.5341 46.0122L65.8629 48.1432V52.7456ZM56.7 44.2712V33.8805L59.318 33.226V43.6167L56.7 44.2712ZM65.8629 45.3236L61.936 43.7528V33.4825L63.8995 34.2679L65.8629 35.0533V45.3236ZM65.8629 32.2338L63.8995 31.4484L61.936 30.663V28.2466L65.8629 29.8174V32.2338ZM51.4641 7.73347L65.8629 13.692V26.9978L61.936 25.427V21.0773H59.318V25.2909L51.4641 27.2544V7.73347ZM51.4641 29.9535L59.318 27.99V30.5268L51.4641 32.4903V29.9535ZM51.4641 35.1895L54.0821 34.535V44.9257L51.4641 45.5802V35.1895ZM40.9922 3.40072L48.8461 6.65094V28.9312V34.1671V45.7045L40.9922 42.4543V3.40072ZM31.7534 47.3395L46.6392 53.7195L23.2554 63.9584L5.32495 55.3819L7.33818 54.7693L15.1934 52.3791L18.5392 51.3607L20.4293 50.786H20.4307L28.2846 48.3958L31.7534 47.3395ZM8.26756 51.7508V48.2008L13.5035 46.4559V50.1577L8.26756 51.7508ZM21.3574 47.7675V44.2738L26.5934 42.5289V46.1732L24.4113 46.8368L21.3574 47.7675ZM3.03161 42.991L30.5203 34.6253V44.9794L29.2113 45.3773V40.7121C29.2113 40.2919 29.0097 39.8953 28.6681 39.6505C28.3238 39.4031 27.8853 39.3376 27.4887 39.4698L19.6348 42.0878C19.0994 42.2671 18.7394 42.7659 18.7394 43.33V48.5634L16.1215 49.3605V44.639C16.1215 44.2188 15.9199 43.8235 15.5782 43.5774C15.2353 43.3314 14.7968 43.2646 14.3988 43.3968L6.54493 46.0148C6.00955 46.1941 5.64958 46.6928 5.64958 47.257V52.5479L3.03161 53.3438V42.991ZM30.5203 75.2863L18.7447 69.6538H18.7434L3.03161 62.1402V57.1883L30.5203 70.3344V75.2863ZM31.8594 68.0725L26.3734 65.4493L49.9365 55.1332L55.9945 57.7289L31.8594 68.0725ZM58.009 64.7202L33.1383 75.3793V70.3737L58.009 59.7146V64.7202Z" fill="white"/>
<path d="M28.6682 10.8528C28.324 10.6067 27.8855 10.5387 27.4888 10.6722L3.92708 18.5261C3.39171 18.7054 3.03174 19.2042 3.03174 19.7683V35.4762C3.03174 35.8963 3.23332 36.2917 3.57497 36.5378C3.80142 36.7014 4.06976 36.7851 4.34072 36.7851C4.47948 36.7851 4.61954 36.7629 4.75436 36.7184L28.3161 28.8645C28.8515 28.6851 29.2115 28.1864 29.2115 27.6222V11.9144C29.2115 11.4942 29.0099 11.0989 28.6682 10.8528ZM26.5935 26.6798L5.64971 33.6606V20.7121L26.5935 13.7313V26.6798Z" fill="white"/>
<path d="M21.7397 18.8416L17.0758 23.5068L13.9172 22.453C13.5337 22.3274 13.1135 22.3824 12.7771 22.6062L8.8501 25.2242L10.3018 27.4023L13.696 25.1391L17.0156 26.2452C17.4855 26.4023 18.0051 26.2779 18.3546 25.9284L23.5906 20.6925L21.7397 18.8416Z" fill="white"/>
</svg>
