<svg width="80" height="80" viewBox="0 0 80 80" fill="none" xmlns="http://www.w3.org/2000/svg">
<path d="M50.6666 52C50.6666 51.2641 50.0692 50.6667 49.3333 50.6667C48.5973 50.6667 48 51.2641 48 52V54.6667C48 55.4027 48.5973 56 49.3333 56C50.0692 56 50.6666 55.4027 50.6666 54.6667V52Z" fill="white"/>
<path d="M49.3333 66.6667C48.5973 66.6667 48 67.2641 48 68V73.3333C48 74.0693 48.5973 74.6666 49.3333 74.6666C50.0692 74.6666 50.6666 74.0693 50.6666 73.3333V68C50.6667 67.2641 50.0694 66.6667 49.3333 66.6667Z" fill="white"/>
<path d="M56.0001 36C56.0001 35.2641 55.4027 34.6667 54.6668 34.6667C53.9308 34.6667 53.3335 35.2641 53.3335 36V38.6667C53.3335 39.4027 53.9308 40 54.6668 40C55.4027 40 56.0001 39.4027 56.0001 38.6667V36Z" fill="white"/>
<path d="M50.6666 44C50.6666 43.2641 50.0692 42.6667 49.3333 42.6667C48.5973 42.6667 48 43.2641 48 44V46.6667C48 47.4027 48.5973 48 49.3333 48C50.0692 48 50.6666 47.4027 50.6666 46.6667V44Z" fill="white"/>
<path d="M50.6667 60C50.6667 59.2641 50.0694 58.6667 49.3334 58.6667C48.5975 58.6667 48 59.2641 48 60V62.6667C48 63.4027 48.5973 64 49.3333 64C50.0692 64 50.6666 63.4027 50.6666 62.6667V60H50.6667Z" fill="white"/>
<path d="M56.0001 44C56.0001 43.2641 55.4027 42.6667 54.6668 42.6667C53.9308 42.6667 53.3335 43.2641 53.3335 44V46.6667C53.3335 47.4027 53.9308 48 54.6668 48C55.4027 48 56.0001 47.4027 56.0001 46.6667V44Z" fill="white"/>
<path d="M45.3331 36C45.3331 35.2641 44.7357 34.6667 43.9998 34.6667C43.2639 34.6667 42.6665 35.2641 42.6665 36V38.6667C42.6665 39.4027 43.2639 40 43.9998 40C44.7357 40 45.3331 39.4027 45.3331 38.6667V36Z" fill="white"/>
<path d="M50.6666 36C50.6666 35.2641 50.0692 34.6667 49.3333 34.6667C48.5973 34.6667 48 35.2641 48 36V38.6667C48 39.4027 48.5973 40 49.3333 40C50.0692 40 50.6666 39.4027 50.6666 38.6667V36Z" fill="white"/>
<path d="M56.0001 22.6667V20C56.0001 19.2641 55.4027 18.6667 54.6668 18.6667C53.9308 18.6667 53.3335 19.2641 53.3335 20V22.6667C53.3335 23.4027 53.9308 24 54.6668 24C55.4027 24 56.0001 23.4027 56.0001 22.6667Z" fill="white"/>
<path d="M45.3331 44C45.3331 43.2641 44.7357 42.6667 43.9998 42.6667C43.2639 42.6667 42.6665 43.2641 42.6665 44V46.6667C42.6665 47.4027 43.2639 48 43.9998 48C44.7357 48 45.3331 47.4027 45.3331 46.6667V44Z" fill="white"/>
<path d="M61.3331 20C61.3331 19.2641 60.7357 18.6667 59.9998 18.6667C59.2638 18.6667 58.6665 19.2641 58.6665 20V22.6667C58.6665 23.4027 59.2638 24 59.9998 24C60.7357 24 61.3331 23.4027 61.3331 22.6667V20Z" fill="white"/>
<path d="M43.9998 50.6667C43.2639 50.6667 42.6665 51.2641 42.6665 52V54.6667C42.6665 55.4027 43.2639 56 43.9998 56C44.7357 56 45.3331 55.4027 45.3331 54.6667V52C45.3331 51.2641 44.7357 50.6667 43.9998 50.6667Z" fill="white"/>
<path d="M66.6667 60C66.6667 59.2641 66.0694 58.6667 65.3334 58.6667C64.5975 58.6667 64 59.2641 64 60V62.6667C64 63.4027 64.5973 64 65.3333 64C66.0692 64 66.6666 63.4027 66.6666 62.6667V60H66.6667Z" fill="white"/>
<path d="M65.3333 66.6667C64.5973 66.6667 64 67.2641 64 68V73.3333C64 74.0693 64.5973 74.6666 65.3333 74.6666C66.0692 74.6666 66.6665 74.0693 66.6665 73.3333V68C66.6667 67.2641 66.0694 66.6667 65.3333 66.6667Z" fill="white"/>
<path d="M70.6668 50.6667C69.9308 50.6667 69.3335 51.2641 69.3335 52V54.6667C69.3335 55.4027 69.9308 56 70.6668 56C71.4027 56 72.0001 55.4027 72.0001 54.6667V52C72.0001 51.2641 71.4027 50.6667 70.6668 50.6667Z" fill="white"/>
<path d="M49.3333 24C50.0692 24 50.6666 23.4027 50.6666 22.6667V17.0414L64 13.708V36C64 36.5559 64.3453 37.0533 64.8653 37.2494L74.6667 40.9241V54.6667C74.6667 55.4026 75.2641 56 76 56C76.7359 56 77.3333 55.4026 77.3333 54.6667V40C77.3333 39.4441 76.988 38.9467 76.468 38.7506L66.6666 35.0759V9.33328C66.6666 8.59734 66.0692 8 65.3333 8C64.5973 8 64 8.59734 64 9.33328V10.9586L49.0094 14.7066C48.4161 14.8545 48 15.388 48 15.9998V22.6666C48 23.4027 48.5973 24 49.3333 24Z" fill="white"/>
<path d="M72.0001 44C72.0001 43.2641 71.4027 42.6667 70.6668 42.6667C69.9308 42.6667 69.3335 43.2641 69.3335 44V46.6667C69.3335 47.4027 69.9308 48 70.6668 48C71.4027 48 72.0001 47.4027 72.0001 46.6667V44Z" fill="white"/>
<path d="M66.6665 44C66.6665 43.2641 66.0692 42.6667 65.3333 42.6667C64.5973 42.6667 64 43.2641 64 44V46.6667C64 47.4027 64.5973 48 65.3333 48C66.0692 48 66.6665 47.4027 66.6665 46.6667V44Z" fill="white"/>
<path d="M56.0001 60C56.0001 59.2641 55.4027 58.6667 54.6668 58.6667C53.9308 58.6667 53.3335 59.2641 53.3335 60V62.6667C53.3335 63.4027 53.9308 64 54.6668 64C55.4027 64 56.0001 63.4027 56.0001 62.6667V60Z" fill="white"/>
<path d="M66.6665 52C66.6665 51.2641 66.0692 50.6667 65.3333 50.6667C64.5973 50.6667 64 51.2641 64 52V54.6667C64 55.4027 64.5973 56 65.3333 56C66.0692 56 66.6665 55.4027 66.6665 54.6667V52Z" fill="white"/>
<path d="M54.6668 66.6667C53.9308 66.6667 53.3335 67.2641 53.3335 68V73.3333C53.3335 74.0693 53.9308 74.6666 54.6668 74.6666C55.4027 74.6666 56.0001 74.0693 56.0001 73.3333V68C56.0001 67.2641 55.4027 66.6667 54.6668 66.6667Z" fill="white"/>
<path d="M56.0001 52C56.0001 51.2641 55.4027 50.6667 54.6668 50.6667C53.9308 50.6667 53.3335 51.2641 53.3335 52V54.6667C53.3335 55.4027 53.9308 56 54.6668 56C55.4027 56 56.0001 55.4027 56.0001 54.6667V52Z" fill="white"/>
<path d="M60.0002 74.6667C60.7362 74.6667 61.3335 74.0694 61.3335 73.3335V30.6667C61.3335 30.0547 60.9162 29.5214 60.3241 29.3734L38.9908 24.04C38.5949 23.94 38.1694 24.0306 37.8468 24.2827C37.5227 24.5347 37.3335 24.9227 37.3335 25.3333V54.6666C37.3335 55.4025 37.9308 55.9999 38.6668 55.9999C39.4027 55.9999 40.0001 55.4025 40.0001 54.6666V27.0414L58.6668 31.7081V73.3335C58.6669 74.0694 59.2643 74.6667 60.0002 74.6667Z" fill="white"/>
<path d="M29.3331 28C29.3331 27.2641 28.7357 26.6667 27.9998 26.6667C27.2638 26.6667 26.6665 27.2641 26.6665 28V30.6667C26.6665 31.4027 27.2638 32 27.9998 32C28.7357 32 29.3331 31.4027 29.3331 30.6667V28Z" fill="white"/>
<path d="M29.3331 20C29.3331 19.2641 28.7357 18.6667 27.9998 18.6667C27.2638 18.6667 26.6665 19.2641 26.6665 20V22.6667C26.6665 23.4027 27.2638 24 27.9998 24C28.7357 24 29.3331 23.4027 29.3331 22.6667V20Z" fill="white"/>
<path d="M18.6667 60C18.6667 59.2641 18.0694 58.6667 17.3334 58.6667C16.5975 58.6667 16 59.2641 16 60V62.6667C16 63.4027 16.5973 64 17.3333 64C18.0692 64 18.6666 63.4027 18.6666 62.6667V60H18.6667Z" fill="white"/>
<path d="M6.66693 48.0001C7.40287 48.0001 8.00022 47.4027 8.00022 46.6668V40.0001H21.3335V73.3333C21.3335 74.0693 21.9308 74.6666 22.6668 74.6666C23.4027 74.6666 24.0001 74.0693 24.0001 73.3333V38.6668C24.0001 37.9308 23.4027 37.3335 22.6668 37.3335H6.66678C5.93084 37.3335 5.3335 37.9308 5.3335 38.6668V46.6668C5.3335 47.4027 5.93084 48.0001 6.66693 48.0001Z" fill="white"/>
<path d="M21.3335 28V30.6667C21.3335 31.4027 21.9308 32 22.6668 32C23.4027 32 24.0001 31.4027 24.0001 30.6667V28C24.0001 27.2641 23.4027 26.6667 22.6668 26.6667C21.9308 26.6667 21.3335 27.2641 21.3335 28Z" fill="white"/>
<path d="M29.3331 12C29.3331 11.2641 28.7357 10.6667 27.9998 10.6667C27.2638 10.6667 26.6665 11.2641 26.6665 12V14.6667C26.6665 15.4027 27.2638 16 27.9998 16C28.7357 16 29.3331 15.4027 29.3331 14.6667V12Z" fill="white"/>
<path d="M17.3333 66.6667C16.5973 66.6667 16 67.2641 16 68V73.3333C16 74.0693 16.5973 74.6666 17.3333 74.6666C18.0692 74.6666 18.6666 74.0693 18.6666 73.3333V68C18.6667 67.2641 18.0694 66.6667 17.3333 66.6667Z" fill="white"/>
<path d="M78.6667 77.3332H76V69.1438C78.2933 68.5479 80 66.4771 80 63.9998C80 61.0584 77.608 58.6665 74.6667 58.6665C71.7255 58.6665 69.3334 61.0585 69.3334 63.9998C69.3334 66.4771 71.0402 68.5478 73.3334 69.1438V77.3332H40V71.8653C43.0386 71.2453 45.3333 68.5532 45.3333 65.3332C45.3333 61.6573 42.3427 58.6665 38.6666 58.6665C34.9906 58.6665 31.9998 61.6571 31.9998 65.3332C31.9998 68.5532 34.2945 71.2453 37.3331 71.8653V77.3332H8V63.8653C11.0386 63.2453 13.3333 60.5532 13.3333 57.3332C13.3333 53.6573 10.3427 50.6665 6.66656 50.6665C2.99063 50.6667 0 53.6573 0 57.3332C0 60.5532 2.29469 63.2453 5.33328 63.8653V77.3332H1.33328C0.597344 77.3332 0 77.9306 0 78.6665C0 79.4024 0.597344 79.9999 1.33328 79.9999H78.6666C79.4025 79.9999 79.9998 79.4026 79.9998 78.6667C79.9998 77.9307 79.4027 77.3332 78.6667 77.3332ZM2.66672 57.3332C2.66672 55.1279 4.46141 53.3332 6.66672 53.3332C8.87203 53.3332 10.6667 55.1279 10.6667 57.3332C10.6667 59.5385 8.87203 61.3332 6.66672 61.3332C4.46141 61.3332 2.66672 59.5385 2.66672 57.3332ZM34.6667 65.3332C34.6667 63.1279 36.4614 61.3332 38.6667 61.3332C40.872 61.3332 42.6667 63.1279 42.6667 65.3332C42.6667 67.5385 40.872 69.3332 38.6667 69.3332C36.4614 69.3332 34.6667 67.5385 34.6667 65.3332ZM72 63.9999C72 62.5293 73.1959 61.3332 74.6667 61.3332C76.1375 61.3332 77.3334 62.5292 77.3334 63.9999C77.3334 65.4706 76.1375 66.6667 74.6667 66.6667C73.1959 66.6667 72 65.4706 72 63.9999Z" fill="white"/>
<path d="M10.6665 68V73.3333C10.6665 74.0693 11.2638 74.6666 11.9998 74.6666C12.7357 74.6666 13.3331 74.0693 13.3331 73.3333V68C13.3331 67.2641 12.7357 66.6667 11.9998 66.6667C11.2638 66.6667 10.6665 67.2641 10.6665 68Z" fill="white"/>
<path d="M18.6666 44C18.6666 43.2641 18.0692 42.6667 17.3333 42.6667C16.5973 42.6667 16 43.2641 16 44V46.6667C16 47.4027 16.5973 48 17.3333 48C18.0692 48 18.6666 47.4027 18.6666 46.6667V44Z" fill="white"/>
<path d="M18.6666 52C18.6666 51.2641 18.0692 50.6667 17.3333 50.6667C16.5973 50.6667 16 51.2641 16 52V54.6667C16 55.4027 16.5973 56 17.3333 56C18.0692 56 18.6666 55.4027 18.6666 54.6667V52Z" fill="white"/>
<path d="M10.6665 44V46.6667C10.6665 47.4027 11.2638 48 11.9998 48C12.7357 48 13.3331 47.4027 13.3331 46.6667V44C13.3331 43.2641 12.7357 42.6667 11.9998 42.6667C11.2638 42.6667 10.6665 43.2641 10.6665 44Z" fill="white"/>
<path d="M29.3331 52C29.3331 51.2641 28.7357 50.6667 27.9998 50.6667C27.2638 50.6667 26.6665 51.2641 26.6665 52V54.6667C26.6665 55.4027 27.2638 56 27.9998 56C28.7357 56 29.3331 55.4027 29.3331 54.6667V52Z" fill="white"/>
<path d="M34.6666 36C34.6666 35.2641 34.0692 34.6667 33.3333 34.6667C32.5973 34.6667 32 35.2641 32 36V38.6667C32 39.4027 32.5973 40 33.3333 40C34.0692 40 34.6666 39.4027 34.6666 38.6667V36Z" fill="white"/>
<path d="M34.6666 28C34.6666 27.2641 34.0692 26.6667 33.3333 26.6667C32.5973 26.6667 32 27.2641 32 28V30.6667C32 31.4027 32.5973 32 33.3333 32C34.0692 32 34.6666 31.4027 34.6666 30.6667V28Z" fill="white"/>
<path d="M34.6666 44C34.6666 43.2641 34.0692 42.6667 33.3333 42.6667C32.5973 42.6667 32 43.2641 32 44V46.6667C32 47.4027 32.5973 48 33.3333 48C34.0692 48 34.6666 47.4027 34.6666 46.6667V44Z" fill="white"/>
<path d="M33.3333 50.6667C32.5973 50.6667 32 51.2641 32 52V54.6667C32 55.4027 32.5973 56 33.3333 56C34.0692 56 34.6666 55.4027 34.6666 54.6667V52C34.6667 51.2641 34.0694 50.6667 33.3333 50.6667Z" fill="white"/>
<path d="M34.6666 20C34.6666 19.2641 34.0692 18.6667 33.3333 18.6667C32.5973 18.6667 32 19.2641 32 20V22.6667C32 23.4027 32.5973 24 33.3333 24C34.0692 24 34.6666 23.4027 34.6666 22.6667V20Z" fill="white"/>
<path d="M29.3331 60C29.3331 59.2641 28.7357 58.6667 27.9998 58.6667C27.2638 58.6667 26.6665 59.2641 26.6665 60V62.6667C26.6665 63.4027 27.2638 64 27.9998 64C28.7357 64 29.3331 63.4027 29.3331 62.6667V60Z" fill="white"/>
<path d="M17.3331 34.6667C18.0691 34.6667 18.6664 34.0694 18.6664 33.3334V23.4906L23.2623 21.1933C23.7144 20.9666 23.9997 20.5053 23.9997 20V8.82406L30.6664 5.49078L37.3331 8.82406V20C37.3331 20.7359 37.9305 21.3333 38.6664 21.3333C39.4023 21.3333 39.9998 20.7359 39.9998 20V8C39.9998 7.49469 39.7145 7.03328 39.2625 6.80672L31.9998 3.17594V1.33328C31.9998 0.597344 31.4025 0 30.6666 0C29.9306 0 29.3333 0.597344 29.3333 1.33328V3.17594L22.0706 6.80656C21.6186 7.03328 21.3333 7.49453 21.3333 7.99984V19.1758L16.7373 21.4731C16.2853 21.6998 16 22.1611 16 22.6664V33.3331C15.9998 34.0694 16.5972 34.6667 17.3331 34.6667Z" fill="white"/>
<path d="M29.3331 44C29.3331 43.2641 28.7357 42.6667 27.9998 42.6667C27.2638 42.6667 26.6665 43.2641 26.6665 44V46.6667C26.6665 47.4027 27.2638 48 27.9998 48C28.7357 48 29.3331 47.4027 29.3331 46.6667V44Z" fill="white"/>
<path d="M27.9998 66.6667C27.2638 66.6667 26.6665 67.2641 26.6665 68V73.3333C26.6665 74.0693 27.2638 74.6666 27.9998 74.6666C28.7357 74.6666 29.3331 74.0693 29.3331 73.3333V68C29.3331 67.2641 28.7357 66.6667 27.9998 66.6667Z" fill="white"/>
<path d="M34.6666 12C34.6666 11.2641 34.0692 10.6667 33.3333 10.6667C32.5973 10.6667 32 11.2641 32 12V14.6667C32 15.4027 32.5973 16 33.3333 16C34.0692 16 34.6666 15.4027 34.6666 14.6667V12Z" fill="white"/>
<path d="M29.3331 36C29.3331 35.2641 28.7357 34.6667 27.9998 34.6667C27.2638 34.6667 26.6665 35.2641 26.6665 36V38.6667C26.6665 39.4027 27.2638 40 27.9998 40C28.7357 40 29.3331 39.4027 29.3331 38.6667V36Z" fill="white"/>
</svg>
