<svg width="80" height="80" viewBox="0 0 80 80" fill="none" xmlns="http://www.w3.org/2000/svg">
<path d="M16.0582 15.985L36.2224 22.1082L37.2295 18.7919L15.6275 12.2322L6.02686 17.7723L7.75913 20.7741L16.0582 15.985Z" fill="white"/>
<path d="M16.0582 22.1011L36.2224 28.2243L37.2295 24.908L15.6275 18.3483L6.02686 23.8884L7.75913 26.8902L16.0582 22.1011Z" fill="white"/>
<path d="M16.0582 28.2172L36.2224 34.3404L37.2295 31.0241L15.6275 24.4644L6.02686 30.0045L7.75913 33.0063L16.0582 28.2172Z" fill="white"/>
<path d="M16.0582 34.3333L36.2224 40.4565L37.2295 37.1401L15.6275 30.5804L6.02686 36.1206L7.75913 39.1224L16.0582 34.3333Z" fill="white"/>
<path d="M16.0582 40.4494L36.2224 46.5726L37.2295 43.2562L15.6275 36.6965L6.02686 42.2365L7.75893 45.2383L16.0582 40.4494Z" fill="white"/>
<path d="M16.0582 46.5655L36.2224 52.6887L37.2295 49.3723L15.6275 42.8126L6.02686 48.3526L7.75893 51.3543L16.0582 46.5655Z" fill="white"/>
<path d="M16.0582 52.6815L36.2224 58.8048L37.2295 55.4884L15.6275 48.9287L6.02686 54.4687L7.75893 57.4704L16.0582 52.6815Z" fill="white"/>
<path d="M16.0582 58.7976L36.2224 64.9208L37.2295 61.6045L15.6275 55.0448L6.02686 60.5848L7.75893 63.5865L16.0582 58.7976Z" fill="white"/>
<path d="M48.9967 15.985L69.1609 22.1082L70.1678 18.7919L48.5658 12.2322L38.9653 17.7723L40.6974 20.7741L48.9967 15.985Z" fill="white"/>
<path d="M48.9967 9.86892L69.1609 15.9921L70.1678 12.6758L48.5658 6.11609L38.9653 11.6562L40.6974 14.658L48.9967 9.86892Z" fill="white"/>
<path d="M48.9967 3.75283L69.1609 9.87605L70.1678 6.5597L48.5658 0L38.9653 5.54015L40.6974 8.54193L48.9967 3.75283Z" fill="white"/>
<path d="M48.9967 22.1011L69.1609 28.2243L70.1678 24.908L48.5658 18.3483L38.9653 23.8884L40.6974 26.8902L48.9967 22.1011Z" fill="white"/>
<path d="M48.9967 28.2172L69.1609 34.3404L70.1678 31.0241L48.5658 24.4644L38.9653 30.0045L40.6974 33.0063L48.9967 28.2172Z" fill="white"/>
<path d="M48.9967 34.3333L69.1609 40.4565L70.1678 37.1401L48.5658 30.5804L38.9653 36.1206L40.6974 39.1224L48.9967 34.3333Z" fill="white"/>
<path d="M48.9967 40.4494L69.1609 46.5726L70.1678 43.2562L48.5658 36.6965L38.9653 42.2365L40.6974 45.2383L48.9967 40.4494Z" fill="white"/>
<path d="M48.9967 46.5655L69.1609 52.6887L70.1678 49.3723L48.5658 42.8126L38.9653 48.3526L40.6974 51.3543L48.9967 46.5655Z" fill="white"/>
<path d="M48.9967 52.6815L69.1609 58.8048L70.1678 55.4884L48.5658 48.9287L38.9653 54.4687L40.6974 57.4704L48.9967 52.6815Z" fill="white"/>
<path d="M48.9967 58.7976L69.1609 64.9208L70.1678 61.6045L48.5658 55.0448L38.9653 60.5848L40.6974 63.5865L48.9967 58.7976Z" fill="white"/>
<path d="M69.198 76.6853V70.9136L70.1676 67.7206L48.5656 61.1609L38.965 66.7008L39.9346 68.3809V76.6853H36.2599V70.9136L37.2295 67.7206L15.6275 61.1609L6.02684 66.7008L6.99624 68.3809V76.6853H1.87646V80H78.1236V76.6853H69.198ZM20.6086 76.6853V69.6388L31.1937 72.1792V76.6853H20.6086ZM53.5472 76.6853V69.6388L64.1321 72.1792V76.6853H53.5472Z" fill="white"/>
</svg>
