<svg width="90" height="90" viewBox="0 0 90 90" fill="none" xmlns="http://www.w3.org/2000/svg">
<g clip-path="url(#clip0)">
<path d="M75.8788 14.8007C73.0931 14.4484 70.3705 13.8304 67.788 12.9646C67.0973 12.7332 66.3502 13.1053 66.1188 13.7954C65.8874 14.4862 66.2595 15.2333 66.9496 15.4647C69.6969 16.3861 72.5897 17.0426 75.5485 17.4168C79.9856 17.9785 83.1524 22.0736 82.6072 26.5451C81.8924 32.409 80.5837 41.1617 78.4084 49.558C76.0388 58.7035 73.2579 65.0667 70.1425 68.4711C63.745 75.4618 55.7243 81.6581 50.1227 85.6249C47.179 87.7095 43.2239 87.7095 40.2809 85.6249C34.6793 81.6581 26.6586 75.4618 20.2611 68.4711C17.1457 65.0667 14.3641 58.7035 11.9952 49.558C9.81991 41.1617 8.51116 32.409 7.79568 26.5451C7.25117 22.0736 10.4173 17.9785 14.8551 17.4168C27.6466 15.7991 36.1247 9.37204 40.9848 4.26545C42.0923 3.10227 43.5899 2.46094 45.2015 2.46094C46.813 2.46094 48.3106 3.10227 49.4188 4.26545C52.9201 7.9445 56.9672 10.9445 61.4475 13.1822C62.0985 13.5077 62.8909 13.2434 63.2163 12.5917C63.5411 11.9401 63.2767 11.1484 62.6258 10.8236C58.4194 8.72248 54.6188 5.90448 51.3284 2.4479C49.7182 0.755998 47.5422 -0.175781 45.2015 -0.175781C42.8607 -0.175781 40.6847 0.755998 39.0745 2.4479C34.5097 7.24412 26.5453 13.2804 14.5241 14.8007C8.65055 15.5436 4.45789 20.9558 5.17818 26.8644C6.4059 36.9347 10.144 61.3217 18.3158 70.2515C24.8705 77.4139 33.0499 83.7352 38.7566 87.7768C40.684 89.1419 42.9424 89.8244 45.2015 89.8244C47.4598 89.8237 49.7189 89.1419 51.6463 87.7768C57.353 83.7352 65.5324 77.4139 72.0871 70.2515C80.2596 61.3217 83.997 36.9347 85.2247 26.8644C85.945 20.9558 81.7524 15.5436 75.8788 14.8007Z" fill="white"/>
<path d="M42.2264 12.2086C35.557 17.9798 27.7711 21.7571 19.0857 23.4352C16.4394 23.9468 14.6527 26.4489 15.018 29.1323C15.6326 33.6443 16.8891 42.0825 18.3963 47.8998C21.1436 58.5057 23.8002 62.5439 25.1392 64.0064C29.5406 68.8157 37.7076 75.242 42.1838 78.6444C43.0724 79.3194 44.1367 79.6565 45.201 79.6565C46.2653 79.6565 47.3296 79.3194 48.2181 78.6444C52.6943 75.242 60.8613 68.8157 65.2627 64.0064C66.6017 62.5439 69.2583 58.5057 72.0056 47.8998C73.5135 42.0811 74.7694 33.6436 75.3846 29.1323C75.7499 26.4489 73.9625 23.9468 71.3162 23.4352C62.6308 21.7571 54.8449 17.9798 48.1755 12.2086C46.4795 10.7412 43.9224 10.7412 42.2264 12.2086ZM72.7719 28.776C72.1649 33.2302 70.9269 41.551 69.4533 47.2385C66.6758 57.9598 64.0549 61.4205 63.3181 62.2267C58.8968 67.0572 50.1695 73.8488 46.6223 76.5446C45.7853 77.1811 44.6166 77.1811 43.7796 76.5446C40.2324 73.8488 31.5051 67.0565 27.0845 62.2267C26.347 61.4205 23.7261 57.9598 20.9486 47.2385C19.4757 41.5524 18.2377 33.2309 17.6307 28.776C17.4536 27.4789 18.3126 26.2704 19.5856 26.0239C28.7311 24.2571 36.9289 20.2801 43.952 14.2026C44.3076 13.8943 44.7546 13.7398 45.201 13.7398C45.6473 13.7398 46.0943 13.8943 46.45 14.2026C53.473 20.2801 61.6709 24.2571 70.8163 26.0239C72.0894 26.2704 72.9484 27.4789 72.7719 28.776Z" fill="white"/>
<path d="M37.8895 40.9688C36.8979 40.1613 33.5512 38.4941 31.1548 41.6603C28.7591 44.8257 30.8547 47.5874 31.8463 48.3949L35.6695 51.5054C36.2339 51.9648 37.0648 51.8803 37.5242 51.3152C37.9835 50.7501 37.8984 49.9199 37.334 49.4599L33.5107 46.3494C33.0658 45.9868 32.0935 44.8065 33.2003 43.324C34.3072 41.8422 35.7801 42.6511 36.225 43.0137L44.1414 49.4551C44.6639 49.8801 45.4227 49.843 45.9012 49.3686L57.4857 37.8926C58.3282 37.0577 59.6919 37.0645 60.5268 37.9071C61.3611 38.7489 61.3542 40.1133 60.5124 40.9475L46.7142 54.6173C45.6218 55.6706 44.4188 55.2318 43.8441 54.7574L41.6536 52.9755C41.0885 52.5162 40.2584 52.6013 39.7983 53.1657C39.339 53.7301 39.4241 54.561 39.9892 55.0204L42.1796 56.8029C43.0304 57.495 44.1029 57.8768 45.2002 57.8768C46.4712 57.8768 47.668 57.3845 48.5702 56.4905L62.3677 42.8214C64.243 40.9633 64.2574 37.9263 62.3993 36.0511C60.5419 34.1765 57.5049 34.1621 55.6297 36.0195L44.8864 46.6625L37.8895 40.9688Z" fill="white"/>
</g>
<defs>
<clipPath id="clip0">
<rect width="90" height="90" fill="white"/>
</clipPath>
</defs>
</svg>
