<svg width="90" height="90" viewBox="0 0 90 90" fill="none" xmlns="http://www.w3.org/2000/svg">
<path d="M45 14.2383C45.9457 14.2383 46.7174 13.4895 46.7561 12.5525C46.7578 12.5297 46.7578 12.5051 46.7578 12.4805C46.7578 11.5102 45.9703 10.7227 45 10.7227C44.0297 10.7227 43.2422 11.5102 43.2422 12.4805C43.2422 12.5051 43.2422 12.5297 43.2439 12.5525C43.2826 13.4895 44.0543 14.2383 45 14.2383Z" fill="white"/>
<path d="M50.2734 46.7578C56.0999 46.7578 60.8203 42.0383 60.8203 36.2109C60.8203 30.3954 56.089 25.6641 50.2734 25.6641H34.4531C33.4825 25.6641 32.6953 26.451 32.6953 27.4219V43.2422H30.9375C29.9668 43.2422 29.1797 44.0292 29.1797 45C29.1797 45.9708 29.9668 46.7578 30.9375 46.7578H32.6953V53.7891H30.9375C29.9668 53.7891 29.1797 54.576 29.1797 55.5469C29.1797 56.5177 29.9668 57.3047 30.9375 57.3047H32.6953V66.0938C32.6953 67.0646 33.4825 67.8516 34.4531 67.8516C35.4238 67.8516 36.2109 67.0646 36.2109 66.0938V57.3047H48.5156C49.4863 57.3047 50.2734 56.5177 50.2734 55.5469C50.2734 54.576 49.4863 53.7891 48.5156 53.7891H36.2109V46.7578H50.2734ZM36.2109 29.1797H50.2734C54.1505 29.1797 57.3047 32.3339 57.3047 36.2109C57.3047 40.0941 54.1575 43.2422 50.2734 43.2422H36.2109V29.1797Z" fill="white"/>
<path d="M45 90C69.2318 90 90 69.2409 90 45C90 20.8053 69.2779 0 45 0C20.7682 0 0 20.7591 0 45C0 69.2295 20.7591 90 45 90ZM45 3.51562C67.0992 3.51562 86.4844 22.9008 86.4844 45C86.4844 67.0992 67.0992 86.4844 45 86.4844C22.9008 86.4844 3.51562 67.0992 3.51562 45C3.51562 22.9008 22.9008 3.51562 45 3.51562Z" fill="white"/>
<path d="M45 79.4532C63.3164 79.4532 79.4531 63.4398 79.4531 45.0001C79.4531 29.3494 67.7034 15.0523 52.4072 11.4203C51.4626 11.1958 50.5151 11.7797 50.2908 12.7244C50.0667 13.669 50.6505 14.6165 51.595 14.8408C65.4725 18.1358 75.9375 31.1016 75.9375 45.0001C75.9375 61.4808 61.4807 75.9376 45 75.9376C28.5193 75.9376 14.0625 61.4808 14.0625 45.0001C14.0625 31.1016 24.5275 18.1358 38.405 14.8408C39.3495 14.6165 39.9333 13.669 39.7092 12.7244C39.4849 11.7796 38.5371 11.1956 37.5928 11.4203C22.3086 15.0495 10.5469 29.3368 10.5469 45.0001C10.5469 63.3165 26.5604 79.4532 45 79.4532Z" fill="white"/>
</svg>
