<svg width="90" height="90" viewBox="0 0 90 90" fill="none" xmlns="http://www.w3.org/2000/svg">
<g clip-path="url(#clip0)">
<path d="M38.3018 3.25624L39.8952 5.74087C45.7234 2.08991 53.1253 2.08991 58.9534 5.74087L60.5469 3.25624C53.7674 -1.08541 45.0812 -1.08541 38.3018 3.25624Z" fill="white"/>
<path d="M31.7214 20.6545H28.7705C28.7663 23.3843 29.307 26.0875 30.3611 28.6056L33.0847 27.4666C32.181 25.3095 31.7175 22.9935 31.7214 20.6545Z" fill="white"/>
<path d="M56.2315 36.998C54.0768 37.9014 51.7631 38.3643 49.4268 38.3599V41.3107C52.155 41.3159 54.8569 40.7757 57.3734 39.7217L56.2315 36.998Z" fill="white"/>
<path d="M67.1314 20.6545C67.1354 22.9918 66.6723 25.3064 65.7695 27.4622L68.4932 28.6012C69.547 26.0847 70.0872 23.3828 70.0822 20.6545H67.1314Z" fill="white"/>
<path d="M49.4262 5.90039C41.2776 5.90039 34.6719 12.5061 34.6719 20.6547C34.6719 28.8034 41.2776 35.4091 49.4262 35.4091C57.5712 35.4 64.1717 28.7997 64.1806 20.6547C64.1806 12.5063 57.5749 5.90039 49.4262 5.90039ZM49.4262 32.4582C42.9074 32.4582 37.6227 27.1736 37.6227 20.6547C37.6227 14.1359 42.9074 8.85126 49.4262 8.85126C55.9451 8.85126 61.2297 14.1359 61.2297 20.6547C61.2223 27.1706 55.9421 32.451 49.4262 32.4582Z" fill="white"/>
<path d="M52.6721 20.1839L50.9016 19.5938V15.8078C51.7234 16.0946 52.3009 16.8366 52.377 17.7037H55.3279C55.196 15.2138 53.3589 13.1463 50.9016 12.7227V11.802H47.9507V12.7227C45.4934 13.1463 43.6563 15.2138 43.5244 17.7037C43.5823 19.2965 44.6516 20.6742 46.1802 21.1253L47.9507 21.7154V25.4985C47.1298 25.212 46.5526 24.4716 46.4753 23.6055H43.5244C43.6563 26.0955 45.4934 28.1629 47.9507 28.5865V29.5072H50.9016V28.5865C53.3589 28.1629 55.196 26.0955 55.3279 23.6055C55.27 22.0127 54.2007 20.6352 52.6721 20.1839ZM47.9507 18.6111L47.1097 18.3278C46.7364 18.2024 46.4753 17.9457 46.4753 17.7037C46.5515 16.8366 47.1289 16.0946 47.9507 15.8078V18.6111ZM50.9016 25.5014V22.6981L51.7426 22.9814C52.1159 23.1068 52.377 23.3635 52.377 23.6055C52.3009 24.4727 51.7234 25.2146 50.9016 25.5014Z" fill="white"/>
<path d="M88.831 60.9238L83.9724 56.0652L88.831 51.2065C89.407 50.6304 89.407 49.6964 88.831 49.1203L69.6504 29.9396C69.0742 29.3637 68.1403 29.3637 67.5641 29.9396L48.6889 48.8149L28.3382 28.4642C27.7621 27.8882 26.8281 27.8882 26.252 28.4642L7.07134 47.6448C6.49537 48.221 6.49537 49.155 7.07134 49.7311L17.8317 60.4915H0.737305V63.4423H19.9179C20.1179 63.4429 20.3158 63.4021 20.4993 63.3228L30.5484 59.016H52.3775V64.9178H36.1477C35.3329 64.9178 34.6723 65.5782 34.6723 66.3932C34.6723 66.9688 35.007 67.4918 35.5295 67.7329L54.7102 76.5855C55.1928 76.805 55.7561 76.7487 56.1856 76.4379L81.7386 57.998L85.6234 61.8828L56.2579 87.0493H48.2153L20.4284 76.8127C20.265 76.7524 20.0922 76.7214 19.9179 76.7212H0.737305V79.6721H19.6538L47.4407 89.9087C47.6041 89.9692 47.7769 90 47.9512 90.0001H56.8038C57.1559 90.0005 57.4961 89.8744 57.7628 89.6446L88.7469 63.0867C89.3657 62.5565 89.4376 61.6251 88.9074 61.0064C88.883 60.978 88.8576 60.9503 88.831 60.9238ZM30.246 56.0652C30.0461 56.0646 29.8482 56.1052 29.6647 56.1847L29.3061 56.3322C30.7629 52.5518 35.0087 50.668 38.7891 52.1248C40.6294 52.834 42.1064 54.2542 42.8875 56.0652H30.246ZM46.0405 56.0652C44.7488 51.6809 40.7182 48.6754 36.1477 48.688C30.9265 48.7193 26.539 52.6189 25.8949 57.8003L21.2871 59.7744L10.2007 48.688L27.2951 31.5936L51.7667 56.0652H46.0405ZM55.1646 73.5446L42.8654 67.8686H53.8529C54.6677 67.8686 55.3284 67.208 55.3284 66.3932V59.6268L63.34 67.6385L55.1646 73.5446ZM55.467 55.593C56.0259 52.4435 58.7691 50.1522 61.9678 50.1634C65.6265 50.1568 68.5979 53.1172 68.6047 56.7759C68.6106 59.9773 66.3262 62.7247 63.1777 63.3036L55.467 55.593ZM65.5723 65.6953C66.1643 65.4552 66.7301 65.1557 67.2626 64.8029L65.7626 65.8856L65.5723 65.6953ZM80.9286 54.9364L67.9271 64.3276C72.0692 61.0267 72.7512 54.9927 69.4501 50.8506C66.1492 46.7085 60.1152 46.0265 55.9731 49.3276C54.6912 50.3491 53.6925 51.6824 53.0722 53.1999L50.775 50.9011L68.6071 33.069L85.7015 50.1634L80.9286 54.9364Z" fill="white"/>
</g>
<defs>
<clipPath id="clip0">
<rect width="90" height="90" fill="white"/>
</clipPath>
</defs>
</svg>
