<svg width="90" height="79" viewBox="0 0 90 79" fill="none" xmlns="http://www.w3.org/2000/svg">
<path d="M89.0161 55.3122L86.2602 52.7252C85.7411 52.238 84.9253 52.2636 84.438 52.7829C83.9508 53.302 83.9766 54.1178 84.4957 54.605L87.2514 57.192C87.44 57.369 87.4803 57.6584 87.3469 57.88L86.7083 58.9414C86.5898 59.1383 86.4082 59.1905 86.3105 59.2038C86.2131 59.2175 86.0239 59.2167 85.8562 59.0593L83.977 57.2952C83.6022 56.9433 83.0538 56.8477 82.5823 57.0521C82.1105 57.2564 81.8052 57.7215 81.8055 58.2356L81.8128 75.7835L75.6057 75.7858V63.1842C75.6057 61.6359 74.3461 60.3763 72.7978 60.3763H66.8847C65.3364 60.3763 64.0768 61.6359 64.0768 63.1842V75.7902L56.927 75.7928L56.9198 58.2451C56.9197 57.7311 56.614 57.2662 56.142 57.0623C55.67 56.8582 55.1221 56.9542 54.7477 57.3064L52.87 59.0716C52.7027 59.2291 52.5141 59.2304 52.4158 59.2165C52.3181 59.2031 52.1365 59.1511 52.0178 58.9542L51.379 57.8937C51.2456 57.6722 51.2855 57.3829 51.474 57.2057L56.5127 52.4688C56.772 52.225 56.919 51.8848 56.9188 51.529L56.916 43.9949C56.916 43.894 56.9629 43.8258 57.0023 43.7864C57.0417 43.747 57.1097 43.6999 57.2108 43.6999L59.295 43.6992C59.4574 43.6992 59.5898 43.8312 59.5898 43.9938L59.5908 46.5942C59.591 47.1081 59.8967 47.5731 60.3685 47.777C60.8401 47.9806 61.3882 47.8849 61.763 47.5328L62.5318 46.81C63.4974 47.5659 64.4644 48.1052 65.4094 48.4138C65.8669 50.1699 67.466 51.47 69.3632 51.47C71.616 51.47 73.4487 49.6371 73.4487 47.3845C73.4487 45.1317 71.6159 43.299 69.3632 43.299C67.6996 43.299 66.266 44.299 65.6294 45.7291C65.2433 45.5493 64.8442 45.3124 64.4371 45.019L68.948 40.7783C69.1769 40.5629 69.5358 40.5626 69.7652 40.7781L78.5675 49.0407C79.0866 49.528 79.9024 49.5023 80.3896 48.983C80.8769 48.4639 80.8512 47.6481 80.332 47.1609L73.2596 40.522C73.4572 37.2491 72.843 33.4083 71.5016 29.6037C70.9885 28.1484 70.3871 26.7587 69.719 25.458C71.339 18.7089 69.5209 11.2954 64.2636 6.03809C60.3699 2.14436 55.1931 0 49.6866 0C44.1801 0 39.0032 2.14436 35.1094 6.03809C31.2157 9.93182 29.0713 15.1086 29.0713 20.6151C29.0713 23.6718 29.7332 26.6265 30.987 29.317L14.5094 45.7949C14.006 46.2983 14.006 47.1145 14.5094 47.6179C15.0129 48.1213 15.829 48.1213 16.3325 47.6179L32.2793 31.6712C32.6768 32.2944 33.1103 32.8978 33.577 33.4798C33.5887 33.4946 33.6007 33.5095 33.6126 33.5243C33.7113 33.6465 33.8113 33.7678 33.9129 33.888C33.9357 33.9151 33.9584 33.9423 33.9814 33.9694C34.0735 34.0775 34.1672 34.1844 34.2618 34.2909C34.292 34.325 34.3219 34.3594 34.3525 34.3934C34.4451 34.4962 34.5394 34.5978 34.6341 34.6989C34.6656 34.7324 34.6965 34.7665 34.7282 34.8001C34.8535 34.9321 34.9806 35.0631 35.1098 35.1923C35.2388 35.3213 35.3696 35.4482 35.5016 35.5736C35.536 35.6063 35.5712 35.6381 35.606 35.6706C35.706 35.7643 35.8066 35.8574 35.908 35.949C35.943 35.9805 35.9785 36.0114 36.0138 36.0425C36.1188 36.1359 36.2242 36.2282 36.3308 36.319C36.3596 36.3437 36.3888 36.3679 36.4178 36.3923C36.5357 36.492 36.6547 36.5903 36.7746 36.687C36.7915 36.7007 36.8085 36.7142 36.8256 36.7279C37.4067 37.1936 38.0089 37.6262 38.6309 38.0229L24.4251 52.2287L19.772 53.0302C18.776 53.2018 17.9915 53.9863 17.8199 54.9823L17.1035 59.1413L12.9439 59.8577C11.9478 60.0293 11.1635 60.8138 10.9921 61.8098L10.1905 66.4629L9.06181 67.5918L2.58198 67.7201L2.71031 61.2403L10.6227 53.328C11.1262 52.8246 11.1262 52.0084 10.6227 51.505C10.1193 51.0015 9.30316 51.0015 8.79972 51.505L0.834192 59.47C0.394915 59.9094 0.146184 60.4935 0.134055 61.1144L0.000461591 67.8616C-0.0123704 68.509 0.242864 69.143 0.700774 69.6009C1.14779 70.0478 1.76232 70.3018 2.39355 70.3018C2.40902 70.3018 2.42466 70.3018 2.44013 70.3014L9.18732 70.1678C9.80835 70.1555 10.3925 69.907 10.8321 69.4675L12.055 68.2446C12.4066 67.8932 12.637 67.4485 12.7214 66.9586L13.5107 62.3763L17.67 61.6598C18.666 61.4883 19.4505 60.7038 19.622 59.7078L20.3385 55.5483L24.9208 54.759C25.4105 54.6746 25.8552 54.4444 26.2066 54.0928L40.9853 39.3142C43.6758 40.5682 46.6303 41.2299 49.687 41.2299C52.2527 41.2299 54.7467 40.7639 57.0729 39.8726C57.2986 40.2993 57.5314 40.7164 57.7713 41.121L57.2102 41.1212C56.4428 41.1216 55.7214 41.4206 55.1791 41.9634C54.6366 42.5062 54.338 43.2278 54.3383 43.9952L54.341 50.9716L49.7086 55.3266C48.6412 56.33 48.4152 57.969 49.1711 59.2237L49.8098 60.2842C50.3006 61.0986 51.1222 61.6402 52.0641 61.7701C52.8793 61.8827 53.6906 61.6739 54.3431 61.1939L54.3492 76.1444C54.3494 76.7394 54.5812 77.2986 55.0021 77.719C55.4227 78.1395 55.9817 78.3708 56.5765 78.3708C56.5767 78.3708 56.5771 78.3708 56.5772 78.3708L74.3167 78.3675C74.3394 78.3675 82.1648 78.3612 74.3839 78.3642L82.165 78.3612C83.393 78.3606 84.3918 77.3612 84.3913 76.1331L84.3851 61.1828C85.0383 61.6623 85.8497 61.8706 86.6647 61.7574C87.6065 61.627 88.4276 61.0849 88.9176 60.2703L89.5563 59.2089C90.3114 57.9538 90.0843 56.315 89.0161 55.3122ZM68.9311 48.4434C69.6566 48.1876 70.3017 47.7705 70.8595 47.2064C70.8663 47.2649 70.8709 47.324 70.8709 47.3845C70.8709 48.2156 70.1947 48.8918 69.3636 48.8918C69.0211 48.8918 68.7061 48.7758 68.4528 48.5826C68.6137 48.5436 68.7736 48.4989 68.9311 48.4434ZM69.0702 30.4608C70.0811 33.328 70.5872 36.0199 70.6951 38.3372C69.5485 37.8055 68.1486 37.9911 67.1821 38.8997L62.5218 43.2809C61.3954 42.0497 60.3448 40.5251 59.4202 38.7984C61.1802 37.8533 62.8113 36.6446 64.2638 35.1921C66.1019 33.354 67.5182 31.252 68.5156 29.0072C68.71 29.4827 68.896 29.9668 69.0702 30.4608ZM57.5444 34.5245C55.6778 29.23 55.5298 24.5315 56.4396 21.6914C58.1292 21.5677 59.7837 20.8633 61.0728 19.5741C63.9249 16.7221 63.9249 12.0811 61.0728 9.22904C58.2206 6.37682 53.5796 6.37682 50.7278 9.22904C47.8757 12.0813 47.8757 16.7221 50.7278 19.5741C51.6214 20.4678 52.6905 21.0811 53.8252 21.4147C53.6387 22.1092 53.5014 22.8658 53.417 23.6804C53.0609 27.1141 53.6631 31.2697 55.113 35.3818C55.3724 36.1174 55.6546 36.8364 55.9557 37.5363C53.9757 38.2686 51.8609 38.6518 49.6868 38.6518C46.7423 38.6518 43.906 37.9498 41.3674 36.627C41.3541 36.6195 41.3418 36.6105 41.3282 36.6035C40.3243 36.0782 39.3734 35.4588 38.4848 34.753C38.4726 34.7433 38.4605 34.7335 38.4484 34.7238C38.1151 34.4577 37.791 34.1787 37.4758 33.8885C37.4433 33.8585 37.4108 33.8282 37.3784 33.798C37.2279 33.6574 37.0789 33.515 36.9328 33.3689C36.7866 33.2227 36.6438 33.0734 36.503 32.9226C36.4731 32.8906 36.4433 32.8586 36.4137 32.8265C36.1228 32.5107 35.8435 32.1859 35.5768 31.8519C35.5677 31.8405 35.5585 31.8292 35.5496 31.8178C34.8435 30.9291 34.2238 29.9777 33.6984 28.9735C33.6912 28.9598 33.6823 28.9473 33.6745 28.9338C32.3519 26.3953 31.6501 23.5593 31.6501 20.6147C31.6501 15.7969 33.5262 11.2674 36.933 7.86076C40.3398 4.45412 44.8692 2.57783 49.687 2.57783C54.5048 2.57783 59.0343 4.45395 62.441 7.86076C69.4734 14.8934 69.4734 26.3361 62.441 33.3687C61.1978 34.6119 59.8046 35.6502 58.3029 36.469C58.0329 35.8381 57.7789 35.1893 57.5444 34.5245ZM54.8117 19.0095C53.9825 18.8151 53.1959 18.3962 52.5508 17.7511C50.704 15.9042 50.704 12.899 52.5508 11.0521C54.3976 9.20514 57.4029 9.20531 59.2498 11.0521C60.6751 12.4773 60.9992 14.592 60.2249 16.3322C59.3435 16.1909 58.4897 16.2578 57.6838 16.5421C56.5034 16.9581 55.5343 17.8001 54.8117 19.0095ZM73.0274 75.7867L66.6551 75.789V63.184C66.6551 63.0575 66.7581 62.9545 66.8847 62.9545H72.7978C72.9244 62.9545 73.0274 63.0575 73.0274 63.184V75.7867Z" fill="white"/>
</svg>
