<svg width="90" height="90" viewBox="0 0 90 90" fill="none" xmlns="http://www.w3.org/2000/svg">
<g clip-path="url(#clip0)">
<path d="M88.4996 83.9987H83.7235C83.0973 82.2013 81.4025 80.9973 79.4997 80.9973C77.5969 80.9973 75.9021 82.2013 75.2759 83.9987H65.7238C65.0976 82.2013 63.4028 80.9973 61.5 80.9973C59.5972 80.9973 57.9024 82.2013 57.2762 83.9987H54.0001V80.9987C54.0001 79.342 55.3434 77.9988 57.0001 77.9988H85.4996C86.328 77.9988 86.9996 78.6704 86.9996 79.4987C86.9996 80.3271 87.6712 80.9987 88.4996 80.9987C89.3279 80.9987 89.9996 80.3271 89.9996 79.4987C89.9996 77.0137 87.9847 74.9988 85.4996 74.9988H80.9997V73.4988C80.9946 69.3585 77.6401 66.0041 73.4998 65.999H67.4999C63.3596 66.0041 60.0052 69.3585 60 73.4988V74.9988H57.0001C54.2726 75.0091 51.8952 76.8577 51.2133 79.4987H46.5002V58.4991H73.4998C75.9849 58.4991 77.9997 56.4842 77.9997 53.9992V17.9997C77.9997 15.5146 75.9849 13.4998 73.4998 13.4998H68.2499V8.99986H69.7499C70.5782 8.99986 71.2499 8.32824 71.2499 7.49988C71.2499 6.67153 70.5782 5.99991 69.7499 5.99991H63.75V2.99995H69.7499C70.5782 2.99995 71.2499 2.32833 71.2499 1.49998C71.2499 0.67162 70.5782 0 69.7499 0H63.75C62.0933 0 60.75 1.34324 60.75 2.99995V5.99991C60.75 7.65662 62.0933 8.99986 63.75 8.99986H65.2499V13.4998H49.7507V8.99986H51.2507C52.9074 8.99986 54.2506 7.65662 54.2506 5.99991V2.99995C54.2506 1.34324 52.9074 0 51.2507 0H45.2508C43.594 0 42.2508 1.34324 42.2508 2.99995V5.99991C42.2508 7.65662 43.594 8.99986 45.2508 8.99986H46.7507V13.4998H31.25V8.99986H32.75C34.4067 8.99986 35.7499 7.65662 35.7499 5.99991V2.99995C35.7499 1.34324 34.4067 0 32.75 0H26.7501C25.0934 0 23.7501 1.34324 23.7501 2.99995V5.99991C23.7501 7.65662 25.0934 8.99986 26.7501 8.99986H28.25V13.4998H12.7508V8.99986H14.2508C15.9075 8.99986 17.2507 7.65662 17.2507 5.99991V2.99995C17.2507 1.34324 15.9075 0 14.2508 0H8.25085C6.59413 0 5.25089 1.34324 5.25089 2.99995V5.99991C5.25089 7.65662 6.59413 8.99986 8.25085 8.99986H9.75082V13.4998H4.50091C2.01584 13.4998 0.000976562 15.5146 0.000976562 17.9997V31.4995C0.000976562 32.3279 0.672597 32.9995 1.50095 32.9995C2.32931 32.9995 3.00093 32.3279 3.00093 31.4995V17.9997C3.00093 17.1714 3.67255 16.4997 4.50091 16.4997H73.4998C74.3282 16.4997 74.9998 17.1714 74.9998 17.9997V53.9992C74.9998 54.8275 74.3282 55.4991 73.4998 55.4991H42.0003C41.172 55.4991 40.5003 56.1707 40.5003 56.9991C40.5003 57.8275 41.172 58.4991 42.0003 58.4991H43.5003V79.4987H34.5004V58.4991H36.0004C36.8288 58.4991 37.5004 57.8275 37.5004 56.9991C37.5004 56.1707 36.8288 55.4991 36.0004 55.4991H4.50091C3.67255 55.4991 3.00093 54.8275 3.00093 53.9992V41.9993C3.00093 41.171 2.32931 40.4994 1.50095 40.4994C0.672597 40.4994 0.000976562 41.171 0.000976562 41.9993V53.9992C0.000976562 56.4842 2.01584 58.4991 4.50091 58.4991H31.5005V79.4987H1.50095C0.672597 79.4987 0.000976562 80.1704 0.000976562 80.9987C0.000976562 81.8271 0.672597 82.4987 1.50095 82.4987H51.0002V85.4987C51.0002 86.327 51.6718 86.9986 52.5002 86.9986H57.2762C57.9024 88.796 59.5972 90 61.5 90C63.4028 90 65.0976 88.796 65.7238 86.9986H75.2759C75.9021 88.796 77.5969 90 79.4997 90C81.4025 90 83.0973 88.796 83.7235 86.9986H88.4996C89.3279 86.9986 89.9996 86.327 89.9996 85.4987C89.9996 84.6703 89.3279 83.9987 88.4996 83.9987V83.9987ZM73.4998 68.9989C75.9849 68.9989 77.9997 71.0138 77.9997 73.4988V74.9988H71.9998V68.9989H73.4998ZM63 73.4988C63 71.0138 65.0148 68.9989 67.4999 68.9989H68.9999V74.9988H63V73.4988ZM45.2508 2.99995H51.2507V5.99991H45.2508V2.99995ZM26.7501 2.99995H32.75V5.99991H26.7501V2.99995ZM8.25085 2.99995H14.2508V5.99991H8.25085V2.99995ZM61.5 86.9986C60.6717 86.9986 60 86.327 60 85.4987C60 84.6703 60.6717 83.9987 61.5 83.9987C62.3284 83.9987 63 84.6703 63 85.4987C63 86.327 62.3284 86.9986 61.5 86.9986ZM79.4997 86.9986C78.6714 86.9986 77.9997 86.327 77.9997 85.4987C77.9997 84.6703 78.6714 83.9987 79.4997 83.9987C80.3281 83.9987 80.9997 84.6703 80.9997 85.4987C80.9997 86.327 80.3281 86.9986 79.4997 86.9986Z" fill="white"/>
<path d="M7.50098 86.9985H1.50098C0.672608 86.9985 0.000976562 87.6702 0.000976562 88.4985C0.000976562 89.3269 0.672608 89.9985 1.50098 89.9985H7.50098C8.32935 89.9985 9.00098 89.3269 9.00098 88.4985C9.00098 87.6702 8.32935 86.9985 7.50098 86.9985Z" fill="white"/>
<path d="M25.501 86.9985H19.501C18.6726 86.9985 18.001 87.6702 18.001 88.4985C18.001 89.3269 18.6726 89.9985 19.501 89.9985H25.501C26.3293 89.9985 27.001 89.3269 27.001 88.4985C27.001 87.6702 26.3293 86.9985 25.501 86.9985Z" fill="white"/>
<path d="M43.501 86.9985H37.501C36.6726 86.9985 36.001 87.6702 36.001 88.4985C36.001 89.3269 36.6726 89.9985 37.501 89.9985H43.501C44.3293 89.9985 45.001 89.3269 45.001 88.4985C45.001 87.6702 44.3293 86.9985 43.501 86.9985Z" fill="white"/>
<path d="M15.0018 19.4998H7.50193C6.67357 19.4998 6.00195 20.1714 6.00195 20.9997V50.9993C6.00195 51.8276 6.67357 52.4992 7.50193 52.4992H70.5009C71.3293 52.4992 72.0009 51.8276 72.0009 50.9993V20.9997C72.0009 20.1714 71.3293 19.4998 70.5009 19.4998H39.0014C38.1731 19.4998 37.5015 20.1714 37.5015 20.9997C37.5015 21.8281 38.1731 22.4997 39.0014 22.4997H69.001V49.4993H9.00191V22.4997H15.0018C15.8302 22.4997 16.5018 21.8281 16.5018 20.9997C16.5018 20.1714 15.8302 19.4998 15.0018 19.4998V19.4998Z" fill="white"/>
<path d="M33.0007 28.4995C33.829 28.4995 34.5006 27.8278 34.5006 26.9995C34.5006 26.1711 33.829 25.4995 33.0007 25.4995H15.001C14.1726 25.4995 13.501 26.1711 13.501 26.9995V44.9992C13.501 45.8276 14.1726 46.4992 15.001 46.4992H33.0007C33.829 46.4992 34.5006 45.8276 34.5006 44.9992V35.9993C34.5006 35.171 33.829 34.4994 33.0007 34.4994C32.1723 34.4994 31.5007 35.171 31.5007 35.9993V43.4992H16.5009V28.4995H33.0007Z" fill="white"/>
<path d="M59.9998 31.4995C60.8282 31.4995 61.4998 30.8278 61.4998 29.9995C61.4998 29.1711 60.8282 28.4995 59.9998 28.4995H49.5C48.6716 28.4995 48 29.1711 48 29.9995C48 30.8278 48.6716 31.4995 49.5 31.4995H59.9998Z" fill="white"/>
<path d="M42.001 35.9995C42.001 36.8278 42.6726 37.4995 43.501 37.4995H60.0007C60.8291 37.4995 61.5007 36.8278 61.5007 35.9995C61.5007 35.1711 60.8291 34.4995 60.0007 34.4995H43.501C42.6726 34.4995 42.001 35.1711 42.001 35.9995V35.9995Z" fill="white"/>
<path d="M43.501 43.4992H55.5008C56.3291 43.4992 57.0007 42.8276 57.0007 41.9992C57.0007 41.1709 56.3291 40.4993 55.5008 40.4993H43.501C42.6726 40.4993 42.001 41.1709 42.001 41.9992C42.001 42.8276 42.6726 43.4992 43.501 43.4992V43.4992Z" fill="white"/>
</g>
<defs>
<clipPath id="clip0">
<rect width="90" height="90" fill="white"/>
</clipPath>
</defs>
</svg>
