<svg width="90" height="90" viewBox="0 0 90 90" fill="none" xmlns="http://www.w3.org/2000/svg">
<path d="M87.6788 28.3231C84.5948 25.2388 79.5764 25.239 76.4912 28.3238C75.5424 29.2736 69.4841 35.3368 68.5586 36.2631V15.3679C68.5586 13.255 67.7358 11.2686 66.2416 9.77467L58.7841 2.3168C57.2901 0.822656 55.3036 0 53.1907 0H7.91406C3.5524 0 0.00390625 3.5485 0.00390625 7.91016V82.0898C0.00390625 86.4515 3.5524 90 7.91406 90H60.6484C65.0101 90 68.5586 86.4515 68.5586 82.0898V58.6461L87.6787 39.5098C90.7701 36.4185 90.7708 31.4147 87.6788 28.3231ZM52.7385 5.27344C53.2366 5.27344 54.1966 5.18713 55.0552 6.04564L62.5129 13.5035C63.3497 14.3404 63.2853 15.2575 63.2853 15.8203H52.7385V5.27344ZM63.2852 82.0898C63.2852 83.5437 62.1025 84.7266 60.6484 84.7266H7.91406C6.46018 84.7266 5.27734 83.5437 5.27734 82.0898V7.91016C5.27734 6.45627 6.46018 5.27344 7.91406 5.27344H47.4648V18.457C47.4648 19.9132 48.6454 21.0938 50.1016 21.0938H63.2852V41.5412C63.2852 41.5412 55.5061 49.3269 55.5058 49.327L51.7787 53.0543C51.4893 53.3436 51.271 53.6966 51.1417 54.0849L47.4126 65.2716C47.0968 66.2191 47.3434 67.2638 48.0497 67.9699C48.7568 68.677 49.8019 68.9224 50.7479 68.6069L61.9346 64.878C62.3229 64.7487 62.6759 64.5305 62.9652 64.241L63.2852 63.9211V82.0898ZM57.3719 54.9188L61.1007 58.6477L59.6764 60.072L54.0832 61.9363L55.9475 56.343L57.3719 54.9188ZM64.8289 54.9179L61.1 51.1891C63.0856 49.2019 71.9044 40.3755 73.7747 38.5037L77.5036 42.2325L64.8289 54.9179ZM83.9491 35.7817L81.231 38.5021L77.5022 34.7732L80.2211 32.052C81.2498 31.0238 82.9222 31.024 83.9502 32.052C84.978 33.0803 84.9834 34.7472 83.9491 35.7817Z" fill="#EFEFEF"/>
<path d="M50.1016 26.3672H13.1875C11.7313 26.3672 10.5508 27.5477 10.5508 29.0039C10.5508 30.4601 11.7313 31.6406 13.1875 31.6406H50.1016C51.5577 31.6406 52.7383 30.4601 52.7383 29.0039C52.7383 27.5477 51.5577 26.3672 50.1016 26.3672Z" fill="#EFEFEF"/>
<path d="M39.5547 36.9141H13.1875C11.7313 36.9141 10.5508 38.0946 10.5508 39.5508C10.5508 41.007 11.7313 42.1875 13.1875 42.1875H39.5547C41.0109 42.1875 42.1914 41.007 42.1914 39.5508C42.1914 38.0946 41.0109 36.9141 39.5547 36.9141Z" fill="#EFEFEF"/>
<path d="M39.5547 47.4609H13.1875C11.7313 47.4609 10.5508 48.6415 10.5508 50.0977C10.5508 51.5538 11.7313 52.7344 13.1875 52.7344H39.5547C41.0109 52.7344 42.1914 51.5538 42.1914 50.0977C42.1914 48.6415 41.0109 47.4609 39.5547 47.4609Z" fill="#EFEFEF"/>
<path d="M39.5547 58.0078H13.1875C11.7313 58.0078 10.5508 59.1884 10.5508 60.6445C10.5508 62.1007 11.7313 63.2812 13.1875 63.2812H39.5547C41.0109 63.2812 42.1914 62.1007 42.1914 60.6445C42.1914 59.1884 41.0109 58.0078 39.5547 58.0078Z" fill="#EFEFEF"/>
<path d="M50.1016 74.1797H34.2812C32.8251 74.1797 31.6445 75.3602 31.6445 76.8164C31.6445 78.2726 32.8251 79.4531 34.2812 79.4531H50.1016C51.5577 79.4531 52.7383 78.2726 52.7383 76.8164C52.7383 75.3602 51.5577 74.1797 50.1016 74.1797Z" fill="#EFEFEF"/>
</svg>
