<svg width="90" height="90" viewBox="0 0 90 90" fill="none" xmlns="http://www.w3.org/2000/svg">
<path d="M87.2115 56.5102L60.6686 13.9712C57.2704 8.5247 51.4126 5.27344 45 5.27344C38.5874 5.27344 32.7296 8.5247 29.3314 13.9712L2.78847 56.5102C0.96405 59.434 0 62.8088 0 66.2695C0 76.447 8.27957 84.7266 18.457 84.7266H71.543C81.7204 84.7266 90 76.447 90 66.2695C90 62.8088 89.0359 59.434 87.2115 56.5102ZM71.543 79.4531H18.457C11.1875 79.4531 5.27344 73.539 5.27344 66.2695C5.27344 63.7969 5.96146 61.3875 7.26265 59.3021L33.8056 16.7631C36.2343 12.8705 40.4187 10.5469 45 10.5469C49.5813 10.5469 53.7657 12.8705 56.1944 16.7631L82.7374 59.3021C84.0385 61.3875 84.7266 63.7969 84.7266 66.2695C84.7266 73.539 78.8125 79.4531 71.543 79.4531Z" fill="white"/>
<path d="M51.7209 19.555C50.2618 17.2163 47.7493 15.8203 45 15.8203C42.2507 15.8203 39.7382 17.2163 38.2791 19.5543L11.7368 62.0934C10.9472 63.3582 10.5469 64.7637 10.5469 66.2695C10.5469 70.6311 14.0955 74.1797 18.457 74.1797H71.543C75.9045 74.1797 79.4531 70.6311 79.4531 66.2695C79.4531 64.7637 79.0528 63.3588 78.2639 62.0934L51.7209 19.555ZM71.543 68.9062H18.457C17.0034 68.9062 15.8203 67.7232 15.8203 66.2695C15.8203 65.7587 15.948 65.3062 16.2103 64.8846L42.7533 22.3462C43.2429 21.562 44.0826 21.0938 45 21.0938C45.9174 21.0938 46.7578 21.562 47.2467 22.3469L73.7897 64.8853C74.052 65.3062 74.1797 65.7587 74.1797 66.2695C74.1797 67.7232 72.9966 68.9062 71.543 68.9062Z" fill="white"/>
<path d="M42.3633 34.2773H47.6367V52.9102H42.3633V34.2773Z" fill="white"/>
<path d="M42.3633 58.1836H47.6367V63.457H42.3633V58.1836Z" fill="white"/>
</svg>
