<svg width="90" height="90" viewBox="0 0 90 90" fill="none" xmlns="http://www.w3.org/2000/svg">
<g clip-path="url(#clip0)">
<path d="M64.4813 25.3498C62.8312 23.6998 59.8313 23.6998 58.1813 25.3498L51.8812 31.6499C50.9812 32.3999 50.5312 33.5998 50.5312 34.7999C50.5312 35.9999 50.9812 37.0499 51.8812 37.9499L62.5313 48.5999C63.4313 49.4999 64.4813 49.9499 65.6813 49.9499C66.7313 49.9499 67.9313 49.4999 68.8313 48.5999L75.1313 42.2999C76.0313 41.5499 76.4813 40.35 76.4813 39.1499C76.4813 37.9499 76.0313 36.8999 75.1313 35.9999L64.4813 25.3498ZM73.0313 40.35L66.7313 46.65C66.1313 47.2499 65.2313 47.2499 64.6312 46.65L53.9811 35.9999C53.6811 35.6999 53.5311 35.4 53.5311 34.95C53.5311 34.5 53.6811 34.1999 53.9811 33.9L60.2811 27.4501C60.5812 27.15 60.8811 27.0001 61.3311 27.0001C61.7811 27.0001 62.2311 27.15 62.381 27.6L73.0311 38.2501C73.3311 38.5501 73.4811 38.85 73.4811 39.3C73.4811 39.75 73.3311 40.0499 73.0313 40.35Z" fill="white"/>
<path d="M61.4817 32.8499C60.8818 32.2499 59.9818 32.2499 59.3817 32.8499C58.7815 33.4498 58.7817 34.3498 59.3817 34.9499L65.6817 41.2499C65.9817 41.55 66.2816 41.6999 66.7316 41.6999C67.0317 41.6999 67.4817 41.55 67.7816 41.2499C68.3815 40.65 68.3815 39.75 67.7816 39.1499L61.4817 32.8499Z" fill="white"/>
<path d="M79.4814 31.6499L59.2314 11.3999C57.3065 9.47496 54.7715 8.46686 52.2063 8.37176C49.9351 3.57521 45.4984 0 38.9814 0C32.8588 0 28.5729 3.15598 26.193 7.51553C25.9568 7.50621 25.7198 7.50006 25.4814 7.50006C15.5814 7.50006 7.48145 15.6001 7.48145 25.5001C7.48145 32.1274 11.1117 37.9475 16.4814 41.0716V55.5001C16.4814 55.9501 16.6314 56.2502 16.9314 56.5501L18.8814 58.5L16.9314 60.4499C16.3315 61.0499 16.3315 61.9499 16.9314 62.55L18.8814 64.4999L16.9314 66.4501C16.3315 67.05 16.3315 67.95 16.9314 68.5501L18.8814 70.5001L16.9314 72.45C16.6314 72.7501 16.4814 73.0499 16.4814 73.4999C16.4814 73.9499 16.6314 74.25 16.9314 74.5499L18.8814 76.4998L16.9314 78.4499C16.3315 79.0499 16.3315 79.9499 16.9314 80.55L18.8814 82.4999L16.9314 84.4501C16.3315 85.05 16.3315 85.95 16.9314 86.5501L19.9315 89.5502C20.2316 89.8502 20.5314 90.0002 20.9814 90.0002H26.5314C26.6813 90.0002 26.8314 90.0002 26.9814 90.0002C27.0104 90.0002 27.0399 89.9988 27.07 89.9965C27.7961 89.9636 28.3145 89.5296 28.5406 88.8615L34.1814 80.4002C34.3313 80.1002 34.4814 79.8003 34.4814 79.5002V41.0715C36.9248 39.6499 39.0075 37.6699 40.5522 35.3097L58.3314 52.9501C60.2814 54.9 62.9814 55.9501 65.6814 55.9501C68.3814 55.9501 71.0814 55.0501 73.1814 52.8001L79.4814 46.5001C83.5314 42.4499 83.5314 35.6999 79.4814 31.6499ZM55.4815 19.4999C55.4815 21.15 54.1315 22.5 52.4814 22.5C50.8314 22.5 49.4814 21.15 49.4814 19.4999C49.4814 18.3788 50.1054 17.3976 51.0225 16.8829C51.1698 17.5656 51.7164 18 52.4814 18C53.2464 18 53.7929 17.5656 53.9404 16.8829C54.8575 17.3978 55.4815 18.379 55.4815 19.4999ZM38.9814 3.00006C43.8219 3.00006 47.1126 5.42742 49.0063 8.73615C47.3031 9.19635 45.6991 10.0825 44.3814 11.4001L40.3682 15.4134C37.8382 11.6986 33.9578 8.96889 29.4485 7.94443C31.3981 5.04738 34.5361 3.00006 38.9814 3.00006ZM24.0225 16.8829C24.1698 17.5656 24.7164 18 25.4814 18C26.2464 18 26.7929 17.5656 26.9404 16.8829C27.8575 17.3976 28.4815 18.379 28.4815 19.4999C28.4815 21.15 27.1315 22.5 25.4814 22.5C23.8314 22.5 22.4814 21.15 22.4814 19.4999C22.4814 18.379 23.1054 17.3978 24.0225 16.8829ZM20.0814 85.5L22.0314 83.5501C22.6313 82.9501 22.6313 82.0501 22.0314 81.45L20.0814 79.5001L22.0314 77.5501C22.3314 77.2501 22.4814 76.9502 22.4814 76.5002C22.4814 76.0502 22.3314 75.7501 22.0314 75.4502L20.0814 73.5003L22.0314 71.5504C22.6313 70.9504 22.6313 70.0504 22.0314 69.4503L20.0814 67.5L22.0314 65.5501C22.6313 64.9501 22.6313 64.0501 22.0314 63.45L20.0814 61.5001L22.0314 59.5501C22.3314 59.2501 22.4814 58.9502 22.4814 58.5002C22.4814 58.0502 22.3314 57.7501 22.0314 57.4502L19.4813 54.9002V42.4644C19.703 42.5435 19.9262 42.6192 20.1518 42.6897C21.88 43.2642 23.6219 43.5001 25.4813 43.5001V87.0001H21.5812L20.0814 85.5ZM31.4814 79.0501L28.6314 83.3251V43.2218C29.6107 43.0471 30.5628 42.7917 31.4814 42.4642V79.0501ZM32.5642 38.7093C32.4478 38.7362 32.3355 38.7805 32.2314 38.8499C31.9222 39.0187 31.6076 39.1767 31.2879 39.3235C29.4996 40.0806 27.5372 40.5 25.4814 40.5C25.026 40.5 24.576 40.4761 24.1306 40.4358C22.2571 40.246 20.4277 39.7482 18.7314 38.8501C18.6066 38.7668 18.4697 38.7091 18.3282 38.6721C13.6637 36.1211 10.4815 31.1643 10.4815 25.5001C10.4815 17.4417 16.9225 10.8181 24.91 10.5147C24.5829 11.5288 24.342 12.5777 24.1877 13.6431C21.5044 14.239 19.4815 16.644 19.4815 19.5001C19.4815 22.8001 22.1815 25.5001 25.4814 25.5001C28.7814 25.5001 31.4814 22.8001 31.4814 19.5001C31.4814 16.7996 29.6728 14.502 27.2074 13.7559C27.379 12.7216 27.6497 11.6998 28.0217 10.7213C35.0541 11.9345 40.452 18.0844 40.4798 25.4431C40.4791 25.5412 40.4779 25.6389 40.4752 25.7365C40.4747 25.7667 40.4737 25.7968 40.4729 25.827C40.3991 28.0487 39.8115 30.1398 38.8313 32.1001C38.7533 32.2562 38.7063 32.4225 38.6867 32.5909C37.288 35.1773 35.1517 37.3122 32.5642 38.7093ZM77.2314 44.55L70.9314 50.85C67.9314 53.6999 63.1315 53.6999 60.2814 50.85L42.0182 32.5867C42.4428 31.6037 42.7824 30.5764 43.0269 29.5137C43.032 29.492 43.0362 29.4701 43.0411 29.4485C43.0675 29.3316 43.0935 29.2145 43.1178 29.0967C43.1343 29.0166 43.149 28.9361 43.1643 28.8555C43.1779 28.7842 43.1919 28.7132 43.2048 28.6416C43.2132 28.5942 43.2206 28.5465 43.2285 28.4989C43.3939 27.5228 43.4814 26.5212 43.4814 25.4999C43.4814 25.4765 43.4806 25.4533 43.4806 25.4299C43.4807 25.4032 43.4814 25.3767 43.4814 25.3498C43.4814 22.7997 43.0314 20.3998 41.9815 18.1498L46.4815 13.6498C47.5673 12.6183 48.8894 11.9621 50.2691 11.6773C50.4772 12.3579 50.6391 13.054 50.7554 13.7556C48.2901 14.5016 46.4815 16.7992 46.4815 19.4998C46.4815 22.7997 49.1815 25.4997 52.4814 25.4997C55.7814 25.4997 58.4814 22.7997 58.4814 19.4998C58.4814 16.6438 56.4585 14.2386 53.7752 13.6427C53.6785 12.9749 53.5477 12.3138 53.383 11.6634C54.7717 11.9408 56.0836 12.6019 57.1314 13.6498L77.2314 34.0501C78.7314 35.4001 79.4814 37.35 79.4814 39.3001C79.4814 41.2502 78.5814 43.2 77.2314 44.55Z" fill="white"/>
</g>
<defs>
<clipPath id="clip0">
<rect width="90" height="90" fill="white"/>
</clipPath>
</defs>
</svg>
