<svg width="90" height="90" viewBox="0 0 90 90" fill="none" xmlns="http://www.w3.org/2000/svg">
<path d="M16.3917 53.3074H11.6836V58.7118H16.2518C17.9785 58.7118 19.705 58.2665 19.705 56.0105C19.705 53.8651 18.3985 53.3074 16.3917 53.3074Z" fill="white"/>
<path d="M87.8564 37.0193H77.9668L50.0908 12.7821C50.2472 12.2762 50.3574 11.7498 50.3574 11.1953C50.3574 8.23631 47.9589 5.83789 45 5.83789C42.0411 5.83789 39.6426 8.23631 39.6426 11.1953C39.6426 11.7498 39.7532 12.2762 39.9092 12.7821L12.0332 37.0193H2.14358C0.96 37.0193 0 37.9793 0 39.1628V82.0193C0 83.2028 0.96 84.1628 2.14358 84.1628H87.8564C89.04 84.1628 90 83.2028 90 82.0193V39.1628C90 37.9793 89.04 37.0193 87.8564 37.0193ZM42.714 16.0234C43.4103 16.3515 44.1777 16.5526 45 16.5526C45.8223 16.5526 46.59 16.3515 47.286 16.0234L71.4382 37.0193H18.5615L42.714 16.0234ZM23.58 64.3104C23.58 66.6239 24.1904 67.4882 24.1904 68.4334C24.1904 69.4919 23.1054 70.2176 22.0468 70.2176C19.5401 70.2176 19.3437 67.7948 19.3437 66.9852C19.3437 63.4742 18.7052 62.0544 16.1972 62.0544H11.6836V67.9332C11.6836 69.2983 10.7931 70.2173 9.39947 70.2173C8.00589 70.2173 7.11537 69.2983 7.11537 67.9332V52.4715C7.11537 50.4384 8.17295 49.7967 9.79011 49.7967H17.3946C22.8253 49.7967 24.2735 52.7781 24.2735 55.3692C24.2735 57.5408 22.9933 59.6863 20.8213 60.1894V60.244C23.1613 60.5768 23.58 62.277 23.58 64.3104ZM41.4903 69.8563H30.5422C28.926 69.8563 27.8675 69.2146 27.8675 67.1816V52.4715C27.8675 50.4384 28.926 49.7967 30.5422 49.7967H41.2677C42.6035 49.7967 43.5802 50.1874 43.5802 51.6356C43.5802 53.0847 42.6038 53.4744 41.2677 53.4744H32.4357V57.8213H40.1798C41.3798 57.8213 42.3253 58.1541 42.3253 59.5761C42.3253 60.9959 41.3798 61.3319 40.1798 61.3319H32.4357V66.1786H41.4903C42.8293 66.1786 43.8038 66.5683 43.8038 68.0175C43.8038 69.4657 42.8289 69.8563 41.4903 69.8563ZM64.3633 67.3748C64.3633 69.1853 63.582 70.2176 61.6592 70.2176C60.2109 70.2176 59.7363 69.9109 59.1524 68.992L51.2119 56.4558H51.1563V68.0172C51.1563 69.4916 50.3214 70.2173 48.9562 70.2173C47.5911 70.2173 46.7561 69.4916 46.7561 68.0172V52.1099C46.7561 50.2155 47.675 49.4352 49.6244 49.4352C50.5727 49.4352 51.4086 49.7967 51.9085 50.6326L59.9046 63.532H59.9593V51.6356C59.9593 50.158 60.7952 49.4355 62.1625 49.4355C63.5277 49.4355 64.3636 50.1583 64.3636 51.6356V67.3748H64.3633V67.3748ZM82.3017 53.6424H77.9845V67.9335C77.9845 69.2986 77.0908 70.2176 75.7004 70.2176C74.3059 70.2176 73.4154 69.2986 73.4154 67.9335V53.6424H69.096C67.7883 53.6424 66.7269 52.9714 66.7269 51.7196C66.7269 50.4646 67.7883 49.7967 69.096 49.7967H82.302C83.6116 49.7967 84.6704 50.4646 84.6704 51.7196C84.6701 52.9714 83.6116 53.6424 82.3017 53.6424Z" fill="white"/>
</svg>
