<svg width="90" height="60" viewBox="0 0 90 60" fill="none" xmlns="http://www.w3.org/2000/svg">
<path d="M89.9872 55.2292C89.9804 55.0336 89.9734 54.837 89.9666 54.6398C89.9595 54.4426 89.9522 54.2447 89.9449 54.046L89.9392 53.8972L89.9364 53.8227L89.9356 53.804L89.9338 53.6373L89.9332 53.6295L89.9308 53.5986L89.9118 53.3517C89.8861 53.0221 89.8604 52.6911 89.8348 52.36L89.8151 52.1095L89.7856 51.7845C89.7651 51.5684 89.7447 51.3524 89.7244 51.1369C89.7033 50.9218 89.682 50.7069 89.661 50.4928C89.6501 50.3858 89.6393 50.2791 89.6285 50.1725C89.6154 50.0739 89.6024 49.9754 89.5893 49.877C89.4814 49.0962 89.385 48.3288 89.2475 47.5911C89.1825 47.222 89.1225 46.8591 89.0551 46.5053C88.9815 46.1524 88.9095 45.8074 88.8394 45.4714C88.7065 44.7989 88.5397 44.1709 88.3991 43.5904C88.3631 43.4455 88.3279 43.3034 88.2935 43.1648C88.2552 43.0268 88.2177 42.8922 88.1812 42.7608C88.1071 42.4988 88.0369 42.2501 87.9708 42.0167C87.9035 41.7835 87.8442 41.5647 87.7823 41.364C87.7184 41.1641 87.6599 40.9803 87.6069 40.8143C87.5284 40.5704 87.4622 40.365 87.41 40.2028C87.3328 39.9632 87.0796 39.8285 86.8375 39.8974L71.6215 44.2336C71.3897 44.2996 71.246 44.5306 71.2901 44.7677C71.3066 44.8561 71.3255 44.9575 71.3465 45.0709C71.3682 45.1851 71.3923 45.3116 71.4184 45.4493C71.4431 45.5873 71.4626 45.7385 71.4875 45.8983C71.5119 46.0583 71.5379 46.2288 71.5652 46.4083C71.5786 46.498 71.5944 46.5894 71.6068 46.684C71.6176 46.7787 71.6286 46.8758 71.64 46.9748C71.6823 47.3712 71.7456 47.7962 71.7739 48.2519C71.7925 48.4786 71.8118 48.7115 71.8316 48.9492C71.8463 49.1878 71.8537 49.4322 71.8664 49.6796C71.8994 50.1734 71.8931 50.6877 71.9026 51.2062L71.9048 51.3994L71.898 51.5704C71.8941 51.6844 71.8901 51.7985 71.8862 51.9131C71.8832 52.027 71.8801 52.1414 71.8769 52.2559L71.8733 52.4271L71.8629 52.6736C71.8489 53.0054 71.8346 53.337 71.8205 53.6674L71.81 53.915L71.8085 53.9458L71.8082 53.9534C71.8084 53.9907 71.8054 53.6587 71.8064 53.802L71.8051 53.8143L71.8006 53.8631L71.7916 53.9608C71.7798 54.0909 71.7681 54.2202 71.7564 54.3494C71.7452 54.4782 71.7339 54.6066 71.7228 54.7342C71.7076 54.8614 71.6926 54.9879 71.6774 55.1136C71.6451 55.3646 71.6252 55.6133 71.5852 55.8556C71.5502 56.098 71.5157 56.3361 71.482 56.5694C71.4416 56.801 71.4022 57.0277 71.3639 57.2483C71.3293 57.469 71.2828 57.6816 71.2415 57.8874C71.1983 58.0928 71.1639 58.2922 71.1191 58.4815C71.0755 58.6708 71.0336 58.8519 70.9937 59.0243C70.974 59.1094 70.9549 59.1923 70.9363 59.273C70.9172 59.3421 70.8987 59.4092 70.8806 59.4743C70.87 59.5141 70.8599 59.5514 70.8496 59.59H89.4596C89.709 59.59 89.9168 59.3943 89.9263 59.145C89.9264 59.1435 89.9264 59.1421 89.9265 59.1405C89.9419 58.794 89.9578 58.4382 89.9741 58.0744C89.981 57.711 89.988 57.3396 89.9953 56.962C90.0059 56.5847 89.9945 56.2013 89.9934 55.8137C89.9913 55.6199 89.9893 55.4251 89.9872 55.2292Z" fill="white"/>
<path d="M85.1487 35.6965C85.3983 35.596 85.5122 35.3069 85.3971 35.0637C85.346 34.9556 85.2862 34.8292 85.2184 34.6863C85.1545 34.5519 85.0838 34.4032 85.0071 34.2413C84.9077 34.0388 84.8003 33.82 84.6854 33.5861C84.5696 33.3531 84.4465 33.1052 84.3166 32.8439C84.2507 32.7081 84.186 32.596 84.1183 32.4685C84.0508 32.3438 83.9818 32.2163 83.9112 32.086C83.7694 31.8261 83.6243 31.5543 83.4687 31.2759C83.3079 31.0006 83.1417 30.7158 82.9709 30.4231C82.8853 30.2771 82.7984 30.129 82.7105 29.9794C82.6185 29.832 82.5254 29.6827 82.4313 29.5319C82.2421 29.2315 82.0487 28.9245 81.8523 28.6124C81.4376 28.0014 81.0248 27.3623 80.5641 26.7403C80.451 26.5837 80.3372 26.4265 80.2233 26.2689L80.0518 26.0326L79.8733 25.8002C79.6346 25.4911 79.3949 25.181 79.1552 24.8707C78.9113 24.564 78.6589 24.2638 78.4115 23.9625C78.2865 23.8128 78.1653 23.6609 78.0377 23.5146C77.9097 23.3688 77.7822 23.2234 77.655 23.0786C77.5277 22.9343 77.4011 22.7903 77.275 22.6471C77.1496 22.5034 77.0233 22.3622 76.8929 22.2255C76.6348 21.9507 76.38 21.6793 76.1293 21.4122C75.8783 21.146 75.6183 20.8958 75.3709 20.6457C75.1218 20.3969 74.8796 20.1526 74.6324 19.9257C74.3879 19.6968 74.1499 19.4742 73.9199 19.2588C73.6908 19.0429 73.4569 18.8468 73.239 18.6526C73.0193 18.4604 72.8087 18.2764 72.6084 18.1013C72.403 17.932 72.2082 17.7715 72.0251 17.6207C71.8419 17.4704 71.6705 17.3298 71.512 17.1999C71.3533 17.0704 71.2014 16.9581 71.0675 16.8534C70.8726 16.7038 70.7079 16.5774 70.5771 16.477C70.3777 16.3239 70.0934 16.3566 69.9331 16.5505L61.7664 26.4359C61.6124 26.6224 61.6256 26.8948 61.7974 27.065C61.8657 27.1324 61.9445 27.2105 62.0332 27.2983C62.1181 27.3837 62.2155 27.4741 62.3154 27.5796C62.4152 27.685 62.5231 27.7992 62.6383 27.921C62.7538 28.0423 62.8766 28.1713 63.0059 28.3074C63.1307 28.4478 63.2619 28.5956 63.3988 28.7498C63.534 28.9053 63.6818 29.0598 63.8224 29.232C63.9642 29.4025 64.1107 29.5787 64.2616 29.76C64.4151 29.9379 64.5617 30.131 64.7135 30.3262C64.8636 30.5227 65.0241 30.7164 65.1749 30.9242C65.3258 31.1313 65.4792 31.3418 65.6345 31.5549C65.7137 31.6598 65.7888 31.7692 65.8628 31.8803C65.9376 31.9905 66.0129 32.1012 66.0884 32.2124C66.164 32.3231 66.24 32.4343 66.3161 32.5459C66.3921 32.6575 66.4617 32.7742 66.5352 32.8883C66.6793 33.1187 66.8288 33.3457 66.9706 33.5777C67.1087 33.812 67.2469 34.0464 67.3845 34.2797L67.4877 34.4539L67.5845 34.6317C67.6491 34.7497 67.7134 34.8676 67.7775 34.9848C68.0423 35.4479 68.2658 35.9255 68.4997 36.3742C68.6068 36.6042 68.712 36.8302 68.8151 37.0517C68.8666 37.162 68.9176 37.2712 68.968 37.3789C69.0147 37.4886 69.0607 37.5969 69.1062 37.7038C69.1976 37.9166 69.2865 38.1239 69.3726 38.3241C69.4521 38.5271 69.5288 38.7232 69.6025 38.9113C69.6395 39.0053 69.6755 39.0973 69.7107 39.1872C69.7441 39.2749 69.7854 39.3699 69.8075 39.4429C69.8601 39.5963 69.9099 39.7419 69.9567 39.8787C70.0044 40.0145 70.0492 40.1416 70.0905 40.2591C70.1448 40.4212 70.1946 40.5698 70.2396 40.7041C70.2897 40.8542 70.3339 40.9868 70.3718 41.1005C70.4569 41.3556 70.7394 41.4857 70.989 41.3855L85.1487 35.6965Z" fill="white"/>
<path d="M43.5602 18.0395C43.6839 18.0563 43.8207 18.075 43.9698 18.0953C44.118 18.1211 44.2783 18.1491 44.4495 18.1789C44.6204 18.2083 44.8023 18.2394 44.9939 18.2724C45.1605 18.3001 45.333 18.3402 45.5123 18.3778L50.6664 7.83526C50.4109 7.79538 50.1575 7.75578 49.9091 7.71703C49.739 7.69173 49.5715 7.66265 49.4047 7.64181C49.2378 7.62163 49.073 7.60164 48.9103 7.58193C48.5855 7.54338 48.2695 7.50576 47.964 7.46948C47.6576 7.44324 47.3616 7.41785 47.0775 7.3935C46.7932 7.37171 46.5222 7.34301 46.2627 7.33069C46.0037 7.318 45.758 7.30587 45.5271 7.2945C45.2964 7.28361 45.0806 7.27347 44.8812 7.264C44.6816 7.26078 44.4982 7.25784 44.3325 7.25519C44.0994 7.25234 43.9016 7.24998 43.743 7.24808C43.4915 7.24505 43.2833 7.44163 43.2713 7.69287L42.8013 17.5054C42.7898 17.7472 42.9642 17.9577 43.204 17.9906C43.3061 18.0046 43.4252 18.021 43.5602 18.0395Z" fill="white"/>
<path d="M57.4127 23.4424C57.5512 23.5432 57.6825 23.6386 57.8058 23.7286C57.9294 23.817 58.045 23.8998 58.152 23.9765C58.1983 24.0083 58.2748 24.0663 58.3372 24.1127C58.4015 24.1607 58.4628 24.2065 58.5209 24.2499C58.6477 24.3445 58.7597 24.4281 58.8556 24.4996C59.0712 24.6605 59.3772 24.6061 59.5249 24.3812L66.254 14.1311C66.4018 13.9062 66.3301 13.6037 66.0967 13.4698C65.9928 13.4103 65.8717 13.3408 65.7345 13.2621C65.6715 13.2259 65.6052 13.1879 65.5355 13.1479C65.4596 13.105 65.3803 13.0601 65.2976 13.0133C65.1061 12.9077 64.899 12.7938 64.6778 12.6719C64.4565 12.5513 64.2209 12.423 63.9727 12.2876C63.7361 12.1691 63.4875 12.0445 63.2281 11.9144C62.9675 11.7873 62.7017 11.6459 62.4166 11.5175C62.1329 11.3875 61.8396 11.2531 61.5382 11.1149C61.2387 10.9735 60.9227 10.8451 60.6019 10.7104C60.2798 10.5786 59.9557 10.4344 59.6172 10.3071C59.5315 10.2746 59.4444 10.2418 59.358 10.209L56.4551 22.8088C56.6156 22.9096 56.7668 23.0164 56.9157 23.1129C57.0891 23.2278 57.2548 23.3378 57.4127 23.4424Z" fill="white"/>
<path d="M34.5254 17.9879C34.6554 17.9708 34.783 17.9495 34.9104 17.9361C35.0378 17.9232 35.1637 17.9104 35.2878 17.8977C35.5356 17.8721 35.7765 17.847 36.0096 17.8228C36.2434 17.8072 36.4694 17.792 36.6862 17.7774C36.7944 17.77 36.9003 17.7628 37.0039 17.7557C37.1072 17.7488 37.2106 17.74 37.2993 17.7399C37.482 17.7351 37.6555 17.7306 37.8183 17.7263C37.9807 17.7212 38.1325 17.7164 38.2731 17.7119C38.4463 17.7108 38.6055 17.7098 38.7491 17.7088C38.9073 17.708 39.0472 17.7072 39.1667 17.7065C39.4358 17.7051 39.6472 17.4773 39.6296 17.2088L39.0239 7.96535C39.0061 7.69686 38.7668 7.49858 38.5 7.53231C38.3813 7.54727 38.2427 7.5648 38.0857 7.5846C37.9402 7.60307 37.779 7.62363 37.6036 7.64599C37.3963 7.67678 37.1721 7.70994 36.9325 7.74546C36.6937 7.78184 36.4394 7.82059 36.1714 7.86142C36.0343 7.88075 35.908 7.90642 35.7754 7.93143C35.6433 7.95663 35.5081 7.98249 35.3701 8.00883C35.0945 8.06207 34.8075 8.11759 34.5102 8.175C34.2153 8.24217 33.9103 8.3117 33.5968 8.38304C33.4404 8.41895 33.2818 8.45542 33.1213 8.49237C32.961 8.52988 32.8002 8.57574 32.6372 8.61789C32.3118 8.70458 31.9795 8.79316 31.6415 8.88316C31.3069 8.98405 30.9667 9.08656 30.6224 9.19039C30.4508 9.24353 30.2773 9.29365 30.1049 9.3504C29.9332 9.40904 29.7603 9.46787 29.587 9.52708C29.4139 9.58639 29.2401 9.64588 29.0659 9.70566C28.8916 9.76497 28.717 9.82455 28.5448 9.89248C28.1994 10.0243 27.8528 10.1566 27.5062 10.289C27.161 10.424 26.8216 10.5737 26.4814 10.7154C26.3118 10.7876 26.1418 10.8574 25.9742 10.9315C25.8077 11.0084 25.6418 11.0849 25.4765 11.1613C25.3116 11.2376 25.1472 11.3138 24.9838 11.3895C24.8204 11.4651 24.6576 11.5396 24.4994 11.6217C24.1819 11.782 23.8682 11.9404 23.5597 12.0961C23.2512 12.2509 22.9571 12.4216 22.665 12.5787C22.3743 12.7388 22.0884 12.8916 21.8186 13.0561C21.5474 13.217 21.2836 13.3736 21.0284 13.525C20.7724 13.6743 20.535 13.8355 20.3023 13.9812C20.0712 14.1293 19.8498 14.2713 19.6392 14.4063C19.4332 14.5477 19.2376 14.6819 19.0539 14.808C18.8707 14.9342 18.6993 15.0522 18.5407 15.1614C18.3823 15.2707 18.2421 15.379 18.113 15.4726C17.938 15.6018 17.7886 15.7121 17.6678 15.8013C17.4659 15.9503 17.4185 16.2318 17.5597 16.4393L21.3979 22.0824C21.5345 22.2833 21.8016 22.3463 22.0131 22.2268C22.1106 22.1719 22.2258 22.1068 22.3572 22.0327C22.4718 21.9693 22.5957 21.8945 22.7356 21.8216C22.8754 21.7487 23.0266 21.67 23.1882 21.5859C23.3492 21.5017 23.5207 21.4121 23.7013 21.3176C23.8851 21.2295 24.0783 21.1369 24.2799 21.0402C24.4824 20.9459 24.6879 20.8378 24.9095 20.7435C25.1294 20.647 25.3568 20.5472 25.5906 20.4446C25.822 20.338 26.0672 20.2449 26.3152 20.1454C26.5646 20.0488 26.8143 19.9395 27.0759 19.8471C27.3363 19.7532 27.6012 19.6578 27.8692 19.5612C28.0021 19.5107 28.1389 19.468 28.276 19.4242C28.4128 19.3802 28.5503 19.3359 28.6884 19.2915C28.8261 19.247 28.9644 19.2022 29.1031 19.1573C29.2426 19.115 29.384 19.0771 29.5245 19.0366C29.8067 18.9585 30.0871 18.8719 30.3713 18.7993C30.6557 18.7289 30.9401 18.6586 31.2233 18.5885C31.3639 18.5511 31.5066 18.5219 31.6486 18.4926C31.7903 18.4627 31.9317 18.433 32.0726 18.4033C32.213 18.3735 32.3529 18.3438 32.4921 18.3143C32.6317 18.2864 32.772 18.2649 32.9104 18.24C33.1872 18.192 33.4606 18.1444 33.7297 18.0978C33.9997 18.0606 34.2652 18.0238 34.5254 17.9879Z" fill="white"/>
<path d="M8.35331 25.284C8.2527 25.4263 8.15171 25.5693 8.05024 25.7128C7.94906 25.8562 7.84751 26.0002 7.74557 26.1447C7.64411 26.2893 7.54918 26.4394 7.45047 26.587C7.25588 26.8842 7.05674 27.1791 6.86613 27.4796C6.67997 27.7827 6.49381 28.0857 6.30842 28.3877L6.1701 28.6137L6.0388 28.8434C5.95154 28.9962 5.86457 29.1486 5.77789 29.3003C5.42358 29.9021 5.11578 30.5173 4.80296 31.1017C4.65735 31.3996 4.5141 31.6926 4.37389 31.9795C4.30436 32.1227 4.23548 32.2647 4.16756 32.4047C4.10361 32.5466 4.04052 32.6869 3.97818 32.8254C3.85407 33.1018 3.73338 33.3709 3.61657 33.631C3.50762 33.8945 3.40227 34.149 3.30119 34.3932C3.2021 34.6382 3.10196 34.87 3.0166 35.095C2.93238 35.3202 2.85242 35.5339 2.7772 35.7347C2.70236 35.9352 2.63235 36.1229 2.56764 36.2965C2.50787 36.4717 2.45301 36.6327 2.40337 36.7781C2.33895 36.9693 2.28362 37.1334 2.23843 37.2677C2.15838 37.5051 2.28012 37.7627 2.51412 37.8524L6.08664 39.222C6.31401 39.3092 6.57008 39.2074 6.67514 38.9877C6.72725 38.879 6.78949 38.7487 6.86101 38.5991C6.92032 38.4759 6.98588 38.3393 7.0574 38.1907C7.13338 38.0441 7.21552 37.8859 7.30334 37.7166C7.39088 37.5479 7.48391 37.368 7.58205 37.1785C7.68096 36.9896 7.79483 36.7959 7.90785 36.5913C8.0223 36.3878 8.14157 36.1757 8.26501 35.9561C8.39508 35.7407 8.52952 35.5179 8.66783 35.2888C8.73671 35.1745 8.80653 35.0586 8.8772 34.9413C8.95157 34.8262 9.02688 34.7099 9.10296 34.592C9.2551 34.357 9.41057 34.1171 9.56868 33.8729C9.90462 33.3973 10.2332 32.8965 10.6044 32.4134C10.6951 32.2913 10.7861 32.1688 10.8775 32.0459L11.0144 31.8615L11.1578 31.6811C11.3488 31.4405 11.5405 31.1993 11.7323 30.958C11.9275 30.7196 12.1302 30.4874 12.3271 30.2532C12.427 30.137 12.5229 30.0184 12.6251 29.9053C12.7274 29.7925 12.8293 29.68 12.9309 29.5679C13.0323 29.4559 13.1331 29.3444 13.2336 29.2334C13.333 29.1218 13.4335 29.0122 13.5378 28.9071C13.743 28.6946 13.9457 28.4847 14.1451 28.2781C14.3442 28.0718 14.5519 27.8804 14.748 27.687C14.9456 27.495 15.1368 27.3055 15.3337 27.1318C15.5273 26.9556 15.7157 26.7842 15.8979 26.6184C16.0787 26.4515 16.265 26.3026 16.437 26.1531C16.6102 26.0056 16.7761 25.8643 16.934 25.7298C17.089 25.6071 17.236 25.4908 17.3741 25.3813C17.5115 25.272 17.6401 25.1696 17.7589 25.0748C17.8135 25.0297 17.8874 24.9757 17.9498 24.9283C18.0139 24.8799 18.075 24.8338 18.133 24.7901C18.2593 24.6947 18.3708 24.6106 18.4663 24.5386C18.681 24.3765 18.7143 24.0675 18.5396 23.8629L14.4721 19.0977C14.2974 18.8931 13.9869 18.8775 13.7932 19.0641C13.7071 19.1471 13.6064 19.244 13.4925 19.3538C13.4402 19.4041 13.3851 19.4572 13.3273 19.5128C13.2684 19.57 13.2124 19.622 13.1395 19.6965C13 19.8372 12.8493 19.9895 12.6882 20.152C12.5279 20.3147 12.3573 20.4878 12.1773 20.6702C12.0101 20.8514 11.8343 21.0418 11.6509 21.2405C11.4698 21.4406 11.2744 21.6423 11.0854 21.8634C10.8957 22.0834 10.6996 22.3109 10.4979 22.5446C10.2937 22.7756 10.0962 23.0237 9.89297 23.2754C9.69127 23.5284 9.47868 23.7809 9.27585 24.0485C9.07359 24.316 8.86801 24.588 8.65997 24.8635C8.55424 25 8.45316 25.141 8.35331 25.284Z" fill="white"/>
<path d="M0.962051 41.9911C0.938272 42.1082 0.910419 42.2453 0.878872 42.4003C0.849977 42.5426 0.817956 42.7003 0.783093 42.8718C0.748893 43.0473 0.715451 43.2545 0.678125 43.4659C0.641367 43.6795 0.602336 43.9066 0.56122 44.1461C0.541325 44.2655 0.518588 44.3889 0.499736 44.5132C0.482967 44.6369 0.465915 44.7633 0.448389 44.8922C0.381694 45.4088 0.293873 45.9646 0.243284 46.5584C0.213915 46.8543 0.183789 47.1581 0.153 47.4687C0.12761 47.7798 0.110652 48.0983 0.0887682 48.4211C0.0376104 49.0664 0.0282315 49.7356 0.00691577 50.4126L0 50.6671L0.00123158 50.9226C0.00217894 51.0932 0.00312631 51.2641 0.00407368 51.4355C0.00511578 51.6067 0.00615788 51.7781 0.00710525 51.9497L0.00871577 52.2071L0.0185684 52.4647C0.0324947 52.8073 0.046421 53.1502 0.0603472 53.4916L0.070863 53.7469L0.0740841 53.8296L0.0786314 53.8912L0.0877261 54.0143C0.0998524 54.1784 0.111884 54.342 0.123916 54.505C0.135947 54.6681 0.147979 54.8304 0.159821 54.9919C0.17621 55.1602 0.19241 55.3281 0.208705 55.4948C0.225094 55.6614 0.241389 55.8268 0.257589 55.9913C0.265736 56.0732 0.273884 56.1551 0.282031 56.2364C0.292168 56.3166 0.302305 56.3964 0.312347 56.476C0.352705 56.7934 0.392399 57.1056 0.431241 57.4112C0.478136 57.7154 0.523988 58.0131 0.568515 58.3028C0.610199 58.5924 0.663914 58.8726 0.713272 59.1434C0.717346 59.1651 0.72142 59.1865 0.725398 59.208C0.766609 59.4295 0.959303 59.5899 1.18449 59.5899H2.44364C2.7125 59.5899 2.92585 59.3636 2.91003 59.0953C2.90576 59.0237 2.9014 58.9513 2.89657 58.8783C2.88085 58.6172 2.8619 58.3479 2.85584 58.0701C2.84674 57.7927 2.83746 57.5077 2.82789 57.2165C2.82609 56.9255 2.82429 56.6281 2.82249 56.3256C2.82202 56.2501 2.82154 56.1742 2.82107 56.0982C2.82268 56.0233 2.82438 55.948 2.82609 55.8723C2.8294 55.7214 2.83272 55.5694 2.83613 55.4164C2.83945 55.2638 2.84286 55.11 2.84627 54.9555C2.85385 54.7938 2.86133 54.6311 2.869 54.468C2.87658 54.3048 2.88426 54.1409 2.89184 53.9765L2.89761 53.853L2.90046 53.7913L2.90084 53.7835C2.90084 53.7639 2.90121 53.8016 2.9014 53.7952L2.90254 53.7802L2.90491 53.7504L2.92405 53.5114C2.94944 53.1926 2.97492 52.8729 3.0005 52.553L3.02001 52.3136L3.04758 52.0747C3.06596 51.9158 3.08425 51.757 3.10253 51.5985C3.12072 51.4401 3.13891 51.2821 3.157 51.1246L3.184 50.8889L3.21896 50.6548C3.31484 50.0324 3.39631 49.4201 3.51568 48.8339C3.57167 48.5402 3.62178 48.2513 3.67929 47.97C3.74191 47.6899 3.80311 47.4158 3.8627 47.149C3.97297 46.6146 4.11593 46.1178 4.23226 45.6573C4.26211 45.5424 4.29129 45.4297 4.3198 45.3198C4.34993 45.2115 4.38242 45.109 4.41236 45.0075C4.47271 44.8054 4.53002 44.6138 4.58383 44.4335C4.63887 44.2518 4.68406 44.0893 4.73674 43.9263C4.79197 43.7599 4.84256 43.6075 4.88841 43.4696C4.93824 43.3194 4.98229 43.1867 5.02 43.0731C5.10479 42.8179 4.95672 42.5444 4.69676 42.4752L1.54023 41.6334C1.28018 41.564 1.01567 41.7274 0.962051 41.9911Z" fill="white"/>
<path d="M36.6931 58.3519C37.72 58.8539 38.8079 59.0919 39.8789 59.0919C42.5673 59.0919 45.151 57.594 46.4113 55.0161C46.654 54.5198 46.8418 53.972 46.9641 53.456L54.3134 21.5566L57.1123 9.40824L58.8463 1.88265C59.0481 1.00681 58.3514 0.410156 57.6524 0.410156C57.2433 0.410156 56.8332 0.614694 56.6021 1.08733L53.0736 8.30466L47.8684 18.9517L33.3571 48.6338C31.5947 52.2386 33.0884 56.5896 36.6931 58.3519ZM40.1483 48.0793C42.115 48.0793 43.7093 49.6735 43.7093 51.6402C43.7093 53.6068 42.115 55.2012 40.1483 55.2012C38.1817 55.2012 36.5874 53.6068 36.5874 51.6402C36.5874 49.6733 38.1817 48.0793 40.1483 48.0793Z" fill="white"/>
</svg>
