<svg width="90" height="90" viewBox="0 0 90 90" fill="none" xmlns="http://www.w3.org/2000/svg">
<path d="M87.5261 75.598L66.8788 54.949C63.8023 59.7336 59.7309 63.8029 54.9463 66.8796L75.5953 87.5286C78.8917 90.8243 84.2365 90.8243 87.5259 87.5286C90.8225 84.2382 90.8225 78.8935 87.5261 75.598Z" fill="white"/>
<path d="M67.4997 33.75C67.4997 15.1121 52.3883 0 33.75 0C15.1121 0 0 15.1121 0 33.75C0 52.388 15.1121 67.4993 33.75 67.4993C52.3883 67.4993 67.4997 52.388 67.4997 33.75ZM33.75 59.0616C19.7919 59.0616 8.43774 47.7084 8.43774 33.7502C8.43774 19.792 19.7919 8.43792 33.75 8.43792C47.7078 8.43792 59.0629 19.792 59.0629 33.7502C59.0629 47.7084 47.7078 59.0616 33.75 59.0616Z" fill="white"/>
<path d="M14.0615 33.75H19.6858C19.6858 25.9961 25.9949 19.6876 33.7486 19.6876V14.0627C22.8945 14.0627 14.0615 22.8957 14.0615 33.75Z" fill="white"/>
</svg>
