<svg width="90" height="90" viewBox="0 0 90 90" fill="none" xmlns="http://www.w3.org/2000/svg">
<path d="M77.9488 39.3106L75.3405 36.7024C73.5525 34.9142 70.6431 34.9145 68.8551 36.7024L65.9177 39.6399L64.5349 38.2572L66.9677 35.8244C67.4826 35.3095 67.4826 34.4747 66.9677 33.96L47.7073 14.6991C47.1923 14.1842 46.3577 14.1842 45.8428 14.6991L43.41 17.1318L42.0271 15.7489L44.9646 12.8114C45.8308 11.9453 46.3079 10.7938 46.3079 9.56892C46.3079 8.34408 45.8308 7.19253 44.9648 6.32646L42.3563 3.71786C42.109 3.47053 41.7738 3.33167 41.424 3.33167C41.0742 3.33167 40.7391 3.47053 40.4916 3.71786L22.4095 21.8003C21.8947 22.3152 21.8947 23.15 22.4095 23.6647L25.0178 26.2729C25.8838 27.139 27.0354 27.6161 28.2602 27.6161C29.4851 27.6161 30.6366 27.1392 31.5027 26.2729L34.4404 23.3353L35.8232 24.718L33.3901 27.1511C33.1429 27.3983 33.0041 27.7337 33.0041 28.0833C33.0041 28.4329 33.1429 28.7683 33.3901 29.0155L35.4362 31.0616L33.5637 32.934C33.3166 33.1811 33.1777 33.5165 33.1777 33.8662C33.1777 34.2158 33.3166 34.5512 33.5637 34.7983L37.3232 38.5578L1.19602 74.6856C-0.398673 76.2805 -0.398673 78.8756 1.19602 80.4704C1.96875 81.243 2.99567 81.6686 4.08833 81.6686C5.18099 81.6686 6.20808 81.2432 6.98082 80.4704L29.4587 57.9925C29.9736 57.4777 29.9736 56.6429 29.4587 56.1282C28.9437 55.6133 28.1091 55.6133 27.5942 56.1282L5.11665 78.6059C4.8419 78.8807 4.47681 79.0318 4.0885 79.0318C3.7002 79.0318 3.33528 78.8807 3.06071 78.6061C2.49381 78.0392 2.49381 77.117 3.06071 76.5503L39.1879 40.4228L41.2436 42.4786L31.7804 51.9416C31.2656 52.4565 31.2656 53.2913 31.7804 53.8059C32.038 54.0635 32.3753 54.1921 32.7128 54.1921C33.0501 54.1921 33.3876 54.0635 33.6451 53.8059L43.1082 44.3429L46.8678 48.1024C47.1151 48.3497 47.4503 48.4885 47.8001 48.4885C48.1499 48.4885 48.485 48.3497 48.7325 48.1024L50.6049 46.2299L52.6508 48.2759C52.9083 48.5332 53.2458 48.662 53.5832 48.662C53.9207 48.662 54.258 48.5334 54.5155 48.2759L56.9483 45.8429L58.3314 47.2257L55.3937 50.1634C54.5275 51.0295 54.0504 52.181 54.0504 53.4059C54.0504 54.6307 54.5275 55.7824 55.3935 56.6483L58.0018 59.2566C58.2491 59.5039 58.5843 59.6428 58.9341 59.6428C59.2839 59.6428 59.619 59.5039 59.8665 59.2566L64.8509 54.2719C65.3658 53.7571 65.3658 52.9223 64.8508 52.4076C64.3361 51.8926 63.5013 51.8927 62.9864 52.4076L58.9343 56.4599L57.2582 54.7838C56.8901 54.4157 56.6875 53.9264 56.6875 53.4059C56.6875 52.8854 56.8901 52.396 57.2584 52.0279L70.7199 38.5662C71.4795 37.8067 72.7159 37.8063 73.476 38.5662L75.1521 40.2423L67.1728 48.2214C66.658 48.7362 66.658 49.571 67.1728 50.0857C67.6877 50.6004 68.5223 50.6007 69.0373 50.0857L77.9486 41.1744C78.1957 40.9273 78.3346 40.5919 78.3346 40.2423C78.335 39.8932 78.1959 39.5578 77.9488 39.3106ZM29.6385 24.4084C29.2703 24.7765 28.7809 24.9793 28.2604 24.9793C27.7397 24.9793 27.2505 24.7767 26.8825 24.4086L25.2064 22.7325L41.4242 6.51472L43.1001 8.1908C43.4683 8.55888 43.671 9.04826 43.671 9.56892C43.671 10.0896 43.4683 10.5788 43.1001 10.9469L29.6385 24.4084ZM41.5453 18.9964L37.6881 22.8536L36.3052 21.4707L40.1624 17.6136L41.5453 18.9964ZM47.8001 45.306L36.3608 33.8667L37.301 32.9264L48.7404 44.3658L47.8001 45.306ZM53.5833 45.4793L36.1873 28.0836L40.2531 24.0178L57.649 41.4137L53.5833 45.4793ZM42.1174 22.1533L43.125 21.1457L43.655 20.6157L61.0509 38.0116L59.5133 39.5492L42.1174 22.1533ZM60.1959 45.3616L58.813 43.9787L62.6702 40.1215L64.0531 41.5042L60.1959 45.3616ZM62.9156 36.1469L45.5197 18.751L46.775 17.4958L64.1708 34.8917L62.9156 36.1469Z" fill="white"/>
<path d="M88.682 79.2586H85.7563V76.6126C85.7563 75.8845 85.1662 75.2942 84.4379 75.2942H51.8837C51.1555 75.2942 50.5654 75.8845 50.5654 76.6126V79.2586H47.6397C46.9114 79.2586 46.3213 79.8489 46.3213 80.577V85.3501C46.3213 86.0782 46.9114 86.6685 47.6397 86.6685H53.1137C53.8419 86.6685 54.432 86.0782 54.432 85.3501C54.432 84.622 53.8419 84.0318 53.1137 84.0318H48.958V81.8955H87.3635V84.0318H59.0338C58.3055 84.0318 57.7154 84.622 57.7154 85.3501C57.7154 86.0782 58.3055 86.6685 59.0338 86.6685H88.6818C89.4101 86.6685 90.0002 86.0782 90.0002 85.3501V80.577C90.0004 79.8489 89.4101 79.2586 88.682 79.2586ZM83.1194 79.2586H53.2021V77.9309H83.1194V79.2586Z" fill="white"/>
<path d="M68.1611 59.9304C67.4329 59.9304 66.8428 60.5207 66.8428 61.2488V65.1989C66.8428 65.927 67.4329 66.5173 68.1611 66.5173C68.8894 66.5173 69.4795 65.927 69.4795 65.1989V61.2488C69.4795 60.5207 68.8894 59.9304 68.1611 59.9304Z" fill="white"/>
<path d="M82.2452 64.3344C81.7301 63.8195 80.8955 63.8195 80.3806 64.3344L77.5875 67.1275C77.0724 67.6424 77.0724 68.4772 77.5873 68.9919C77.8448 69.2494 78.1823 69.3781 78.5196 69.3781C78.857 69.3781 79.1945 69.2494 79.452 68.9919L82.2452 66.1987C82.76 65.6839 82.76 64.8491 82.2452 64.3344Z" fill="white"/>
<path d="M58.7343 67.1274L55.9411 64.3342C55.4262 63.8193 54.5916 63.8192 54.0766 64.3342C53.5617 64.8491 53.5617 65.6837 54.0766 66.1985L56.8697 68.9917C57.1271 69.2492 57.4644 69.3779 57.8019 69.3779C58.1392 69.3779 58.4767 69.2492 58.7343 68.9917C59.2491 68.4768 59.2491 67.6422 58.7343 67.1274Z" fill="white"/>
<path d="M82.1035 70.3004C81.3753 70.3004 80.7852 70.8907 80.7852 71.6188V71.6536C80.7852 72.3817 81.3753 72.9719 82.1035 72.9719C82.8318 72.9719 83.4219 72.3817 83.4219 71.6536V71.6188C83.4219 70.8907 82.8318 70.3004 82.1035 70.3004Z" fill="white"/>
<path d="M54.2178 70.3004C53.4895 70.3004 52.8994 70.8907 52.8994 71.6188V71.6536C52.8994 72.3817 53.4895 72.9719 54.2178 72.9719C54.946 72.9719 55.5361 72.3817 55.5361 71.6536V71.6188C55.5361 70.8907 54.946 70.3004 54.2178 70.3004Z" fill="white"/>
<path d="M74.001 64.4485C73.2727 64.4485 72.6826 65.0388 72.6826 65.7668V65.8017C72.6826 66.5297 73.2727 67.12 74.001 67.12C74.7292 67.12 75.3193 66.5297 75.3193 65.8017V65.7668C75.3193 65.0388 74.7292 64.4485 74.001 64.4485Z" fill="white"/>
<path d="M62.3203 64.4485C61.5921 64.4485 61.002 65.0388 61.002 65.7668V65.8017C61.002 66.5297 61.5921 67.12 62.3203 67.12C63.0486 67.12 63.6387 66.5297 63.6387 65.8017V65.7668C63.6387 65.0388 63.0486 64.4485 62.3203 64.4485Z" fill="white"/>
</svg>
