<svg width="90" height="90" viewBox="0 0 90 90" fill="none" xmlns="http://www.w3.org/2000/svg">
<g clip-path="url(#clip0)">
<path d="M58.5409 19.1449V11.9999C58.5409 11.1712 57.8691 10.5001 57.0407 10.5001H51.0406C51.0406 4.70015 46.3404 0 40.5408 0C34.7416 0 30.0411 4.70015 30.0411 10.5001C30.0411 14.6419 26.6829 17.9997 22.5412 17.9997C18.399 17.9997 15.0409 14.6419 15.0409 10.5001V9.00002H12.041V10.5001C12.041 16.2994 16.7419 20.9995 22.5412 20.9995C28.3404 20.9995 33.0409 16.2994 33.0409 10.5001C33.0409 6.35799 36.3987 2.99988 40.5408 2.99988C44.683 2.99988 48.0407 6.35799 48.0407 10.5001H42.0406C41.2122 10.5001 40.5408 11.1712 40.5408 11.9999V19.1449C22.9888 23.6761 11.5435 40.5527 13.8284 58.5369C16.113 76.5201 31.4128 90.0002 49.5408 90.0002C67.6689 90.0002 82.9687 76.5201 85.2529 58.5369C87.5378 40.5527 76.0925 23.6761 58.5409 19.1449ZM49.5408 86.9992C32.7142 86.9962 18.5849 74.3343 16.7438 57.6083C14.9042 40.8827 25.9428 25.4519 42.3661 21.79C43.0522 21.6375 43.5407 21.0292 43.5407 20.3259V13.5H55.5406V20.3259C55.5406 21.0292 56.0291 21.6375 56.7155 21.79C73.1385 25.4519 84.1775 40.8827 82.3375 57.6083C80.4972 74.3343 66.3674 86.9962 49.5408 86.9992Z" fill="white"/>
<path d="M12.041 0H15.0409V4.50001H12.041V0Z" fill="white"/>
<path d="M4.54199 7.49988H9.042V10.5001H4.54199V7.49988Z" fill="white"/>
<path d="M18.042 7.49988H22.542V10.5001H18.042V7.49988Z" fill="white"/>
<path d="M4.98047 2.56016L7.10168 0.439331L10.1019 3.43921L7.98035 5.56042L4.98047 2.56016Z" fill="white"/>
<path d="M16.9814 3.43921L19.9806 0.439331L22.1014 2.56129L19.1027 5.56042L16.9814 3.43921Z" fill="white"/>
<path d="M4.98047 15.4388L7.98035 12.4393L10.1012 14.5605L7.10168 17.5604L4.98047 15.4388Z" fill="white"/>
<path d="M53.9423 52.4993H45.1405C42.6554 52.4993 40.6405 50.4844 40.6405 47.9993C40.6405 45.5146 42.6554 43.4993 45.1405 43.4993H58.5414V40.4998H51.0411V37.4999H48.0413V40.4998H45.1405C40.9984 40.4998 37.6406 43.8575 37.6406 47.9993C37.6406 52.1414 40.9984 55.4996 45.1405 55.4996H53.9423C56.4277 55.4996 58.4423 57.5145 58.4423 59.9996C58.4423 62.4843 56.4277 64.4996 53.9423 64.4996H40.5414V67.4995H48.0413V70.4993H51.0411V67.4995H53.9423C58.0844 67.4995 61.4418 64.1413 61.4418 59.9996C61.4418 55.8574 58.0844 52.4993 53.9423 52.4993Z" fill="white"/>
</g>
<defs>
<clipPath id="clip0">
<rect width="90" height="90" fill="white"/>
</clipPath>
</defs>
</svg>
