<svg width="90" height="90" viewBox="0 0 90 90" fill="none" xmlns="http://www.w3.org/2000/svg">
<g clip-path="url(#clip0)">
<path d="M86.1188 61.1857C87.9632 58.8331 88.8478 56.3112 88.7349 53.7139C88.622 50.8532 87.3422 48.6135 86.2882 47.2396C87.5116 44.1907 87.9821 39.3915 83.898 35.665C80.9055 32.936 75.824 31.7127 68.7851 32.0514C63.8353 32.2773 59.6947 33.1995 59.5253 33.2371H59.5065C58.5655 33.4065 57.568 33.6135 56.5517 33.8394C56.4764 32.6349 56.6834 29.6424 58.9043 22.9046C61.5392 14.8871 61.3886 8.75157 58.4149 4.64868C55.2907 0.338771 50.3033 0 48.8353 0C47.4237 0 46.1251 0.583438 45.2029 1.65621C43.1138 4.08406 43.3585 8.56336 43.622 10.6336C41.1376 17.2961 34.174 33.6324 28.2832 38.1681C28.1703 38.2434 28.0762 38.3375 27.9821 38.4316C26.2506 40.2572 25.0837 42.2334 24.2932 43.9649C23.1828 43.3626 21.9218 43.0238 20.5667 43.0238H9.0862C4.75746 43.0238 1.25684 46.5433 1.25684 50.8532V81.4366C1.25684 85.7654 4.77628 89.266 9.0862 89.266H20.5667C22.2418 89.266 23.8039 88.739 25.0837 87.8356L29.5065 88.3626C30.1841 88.4567 42.2292 89.9812 54.5944 89.7365C56.834 89.9059 58.9419 90 60.8993 90C64.2681 90 67.2041 89.7365 69.6508 89.2095C75.4099 87.9862 79.3434 85.5395 81.3384 81.9448C82.8629 79.197 82.8629 76.468 82.6182 74.7365C86.3635 71.3488 87.0222 67.6035 86.8905 64.9686C86.8152 63.4442 86.4764 62.1455 86.1188 61.1857ZM9.0862 84.1844C7.56173 84.1844 6.33839 82.9423 6.33839 81.4366V50.8344C6.33839 49.3099 7.58055 48.0866 9.0862 48.0866H20.5667C22.0912 48.0866 23.3146 49.3287 23.3146 50.8344V81.4178C23.3146 82.9423 22.0724 84.1656 20.5667 84.1656H9.0862V84.1844ZM81.3008 58.9837C80.5103 59.8118 80.3597 61.0728 80.962 62.0514C80.962 62.0703 81.7336 63.3877 81.8277 65.1945C81.9595 67.66 80.7738 69.8432 78.2895 71.7064C77.4049 72.3839 77.0473 73.5508 77.4237 74.6048C77.4237 74.6236 78.233 77.1079 76.9156 79.4605C75.6546 81.7189 72.8503 83.3375 68.5969 84.2409C65.1903 84.9749 60.5605 85.1066 54.8767 84.655C54.8014 84.655 54.7073 84.655 54.6132 84.655C42.5115 84.9184 30.2782 83.3375 30.1464 83.3187H30.1276L28.2267 83.0928C28.3396 82.5659 28.3961 82.0013 28.3961 81.4366V50.8344C28.3961 50.0251 28.2644 49.2346 28.0385 48.5006C28.3773 47.2397 29.3183 44.4354 31.5391 42.0452C39.9896 35.345 48.2518 12.7415 48.6094 11.7629C48.76 11.3676 48.7976 10.9348 48.7223 10.5019C48.4024 8.39398 48.5153 5.81556 48.967 5.04391C49.9645 5.06274 52.6558 5.34504 54.2744 7.58469C56.1941 10.2384 56.1188 14.9812 54.0486 21.2673C50.8867 30.8469 50.6232 35.8908 53.1264 38.1117C54.3685 39.2221 56.0247 39.2785 57.2292 38.8457C58.3773 38.5822 59.4689 38.3563 60.504 38.1869C60.5793 38.1681 60.6734 38.1493 60.7487 38.1305C66.5266 36.8695 76.8779 36.0979 80.4727 39.3726C83.5216 42.1581 81.3572 45.8469 81.1125 46.2422C80.4162 47.2961 80.6232 48.67 81.5642 49.5169C81.5831 49.5358 83.5592 51.399 83.6533 53.9021C83.7286 55.5772 82.9381 57.2898 81.3008 58.9837Z" fill="white"/>
</g>
<defs>
<clipPath id="clip0">
<rect width="90" height="90" fill="white"/>
</clipPath>
</defs>
</svg>
