<svg width="90" height="90" viewBox="0 0 90 90" fill="none" xmlns="http://www.w3.org/2000/svg">
<g clip-path="url(#clip0)">
<path d="M14.9545 79.9684C14.6277 79.6413 14.1742 79.4534 13.7119 79.4534C13.2496 79.4534 12.7961 79.6413 12.4691 79.9684C12.1422 80.2955 11.9541 80.7489 11.9541 81.2112C11.9541 81.6735 12.142 82.127 12.4691 82.4538C12.7961 82.7807 13.2496 82.969 13.7119 82.969C14.1742 82.969 14.6277 82.7809 14.9545 82.4538C15.2815 82.127 15.4697 81.6735 15.4697 81.2112C15.4697 80.7489 15.2816 80.2954 14.9545 79.9684Z" fill="white"/>
<path d="M82.5338 32.1571C82.2068 31.83 81.7551 31.6421 81.291 31.6421C80.8287 31.6421 80.3752 31.83 80.0482 32.1571C79.7215 32.4841 79.5332 32.9376 79.5332 33.3999C79.5332 33.8622 79.7213 34.3157 80.0482 34.6425C80.3752 34.9695 80.8287 35.1577 81.291 35.1577C81.7551 35.1577 82.2068 34.9696 82.5338 34.6425C82.8623 34.3157 83.0504 33.8622 83.0504 33.3999C83.0504 32.9376 82.8623 32.4841 82.5338 32.1571Z" fill="white"/>
<path d="M89.4838 0.514863C89.1541 0.185273 88.7069 0 88.2405 0L44.9994 0.00228516C44.0287 0.00228516 43.2418 0.789434 43.2418 1.7601V6.78691L26.5796 11.2516C25.6418 11.5029 25.0853 12.4668 25.3367 13.4044L33.9723 45.6325L26.5018 53.103C25.551 51.7147 23.9545 50.8017 22.1487 50.8017H5.27424C2.36647 50.8017 0.000976563 53.1673 0.000976563 56.0749V84.7266C0.000976562 87.6343 2.36647 90 5.27424 90H22.1489C24.6191 90 26.6972 88.2921 27.2668 85.9957L29.3568 87.8184C30.9703 89.2253 33.0375 90.0002 35.1783 90.0002H88.2409C89.2115 90.0002 89.9987 89.213 89.9987 88.2424V1.75781C89.9983 1.29164 89.8134 0.844453 89.4838 0.514863ZM23.9063 84.7267C23.9063 85.6958 23.1178 86.4846 22.1485 86.4846H5.27406C4.3048 86.4846 3.51625 85.696 3.51625 84.7267V56.0751C3.51625 55.1058 4.3048 54.3173 5.27406 54.3173H11.9536V74.5664C11.9536 75.5371 12.7407 76.3242 13.7114 76.3242C14.6821 76.3242 15.4692 75.5371 15.4692 74.5664V54.3173H22.1487C23.118 54.3173 23.9065 55.1058 23.9065 56.0751V84.7267H23.9063ZM29.1873 14.1924L43.2418 10.4265V16.94L42.0637 17.2557C41.6131 17.3765 41.2294 17.6709 40.9963 18.0747C40.7632 18.4785 40.7 18.9582 40.8207 19.4085C41.4963 21.9294 39.9949 24.5297 37.474 25.2053C37.0231 25.3262 36.6387 25.6212 36.4058 26.0258C36.1729 26.4303 36.1101 26.9109 36.232 27.3616L43.0837 52.7335H39.5558L37.7377 45.6207C37.6799 45.3943 37.5786 45.1856 37.4431 45.0042L29.1873 14.1924ZM43.2418 25.0012V39.8338L40.0357 27.9624C41.375 27.2709 42.471 26.2362 43.2418 25.0012ZM68.4952 86.4844H35.178C33.8869 86.4844 32.64 86.0172 31.6669 85.1687L27.422 81.4665V57.1547L35.0962 49.4805L36.4881 54.9262C36.6871 55.7044 37.3879 56.2486 38.191 56.2486L72.7503 56.2507C74.1074 56.2507 75.2113 57.3546 75.2113 58.7116C75.2113 60.0687 74.1074 61.1726 72.7503 61.1726H55.0421C54.0715 61.1726 53.2843 61.9597 53.2843 62.9304C53.2843 63.9011 54.0715 64.6882 55.0421 64.6882H78.2523C79.6093 64.6882 80.7132 65.7921 80.7132 67.1491C80.7132 68.5062 79.6093 69.6101 78.2523 69.6101H55.0421C54.0715 69.6101 53.2843 70.3972 53.2843 71.3679C53.2843 72.3386 54.0715 73.1257 55.0421 73.1257H74.4911C75.8481 73.1257 76.952 74.2296 76.952 75.5866C76.952 76.9437 75.8481 78.0476 74.4911 78.0476H55.0421C54.0715 78.0476 53.2843 78.8347 53.2843 79.8054C53.2843 80.7761 54.0715 81.5632 55.0421 81.5632H68.4952C69.8522 81.5632 70.9561 82.6671 70.9561 84.0241C70.956 85.3805 69.8521 86.4844 68.4952 86.4844ZM86.4831 86.4844H86.4829H73.9393C74.2802 85.7333 74.4716 84.9006 74.4716 84.0234C74.4716 83.1463 74.2802 82.3136 73.9393 81.5625H74.4911C77.7865 81.5625 80.4675 78.8815 80.4675 75.5861C80.4675 74.6249 80.2381 73.7167 79.8331 72.9112C82.3636 72.2162 84.2285 69.8968 84.2285 67.1488C84.2285 65.8157 83.7894 64.5833 83.0488 63.5883V41.3098C83.0488 40.3392 82.2617 39.552 81.291 39.552C80.3204 39.552 79.5332 40.3392 79.5332 41.3098V61.3123C79.1201 61.2218 78.6917 61.1726 78.2519 61.1726H78.1943C78.5351 60.4215 78.7266 59.5888 78.7266 58.7116C78.7266 55.4161 76.0455 52.7353 72.7502 52.7353H69.9245C72.9249 51.4485 75.0322 48.4662 75.0322 45C75.0322 40.3613 71.2585 36.5875 66.6198 36.5875C61.9813 36.5875 58.2074 40.3613 58.2074 45C58.2074 48.4662 60.3149 51.4485 63.3151 52.7353H53.7064V19.3119C56.8465 18.6275 59.3243 16.1499 60.0085 13.0096H73.2309C73.9151 16.1499 76.3929 18.6275 79.533 19.3119V24.7769C79.533 25.7476 80.3202 26.5347 81.2908 26.5347C82.2615 26.5347 83.0487 25.7476 83.0487 24.7769V17.7425C83.0487 16.7718 82.2615 15.9847 81.2908 15.9847C78.681 15.9847 76.5581 13.8614 76.5581 11.2518C76.5581 10.2811 75.771 9.49395 74.8003 9.49395H58.4393C57.4686 9.49395 56.6815 10.2811 56.6815 11.2518C56.6815 13.8616 54.5584 15.9847 51.9487 15.9847C50.9781 15.9847 50.1909 16.7718 50.1909 17.7425V52.7351H46.7576V3.51756L86.4831 3.51562V86.4844ZM66.6201 49.8969C63.92 49.8969 61.7234 47.7002 61.7234 45.0002C61.7234 42.3002 63.9201 40.1033 66.6201 40.1033C69.3201 40.1033 71.5169 42.3 71.5169 45C71.5169 47.7 69.3203 49.8969 66.6201 49.8969Z" fill="white"/>
</g>
<defs>
<clipPath id="clip0">
<rect width="90" height="90" fill="white"/>
</clipPath>
</defs>
</svg>
