<svg width="90" height="90" viewBox="0 0 90 90" fill="none" xmlns="http://www.w3.org/2000/svg">
<g clip-path="url(#clip0)">
<path d="M8.78906 79.4517C7.81815 79.4517 7.03125 80.2386 7.03125 81.2095V81.2108C7.03125 82.1811 7.81815 82.968 8.78906 82.968C9.75998 82.968 10.5469 82.1804 10.5469 81.2095C10.5469 80.2386 9.75998 79.4517 8.78906 79.4517V79.4517Z" fill="white"/>
<path d="M88.2424 0H74.1799C73.209 0 72.4221 0.786896 72.4221 1.75781V3.59253L70.0765 3.57811C70.0731 3.57811 70.069 3.57811 70.0655 3.57811C69.1001 3.57811 68.3139 4.35745 68.3077 5.32425C68.3015 6.29517 69.0836 7.08755 70.0545 7.09373L72.4221 7.10815V25.3455C67.8195 28.2445 63.6653 26.5752 59.2804 24.8092C56.391 23.6453 53.402 22.4423 50.4199 22.8165C49.4792 22.9346 46.94 23.3034 44.2525 23.6934C41.7057 24.0628 39.0717 24.4453 38.166 24.5592C37.7053 24.6169 37.2459 24.4885 36.8724 24.1981C36.4913 23.9008 36.2482 23.4743 36.1892 22.9964C36.1507 22.6854 36.0484 21.858 38.2512 20.8356C42.9142 18.6733 47.8834 16.8221 51.8852 15.7571C52.8232 15.5072 53.3814 14.5445 53.1315 13.6059C52.8822 12.6679 51.9195 12.1104 50.9809 12.3596C46.791 13.4747 41.6116 15.4021 36.7721 17.6468C35.0885 18.4275 34.0537 19.3359 33.444 20.2519L15.8205 25.0578C13.9666 25.524 13.0156 24.7858 12.743 23.9392C12.4752 23.1056 12.7986 22.031 14.1245 21.5078C15.504 20.9825 18.7964 19.533 22.963 17.6997C28.485 15.2696 35.3563 12.2449 40.8357 10.0223C47.3472 7.38075 49.3316 6.9825 55.9982 7.00653H56.0037C56.9719 7.00653 57.7581 6.22307 57.7615 5.25421C57.7643 4.28329 56.9794 3.49365 56.0085 3.49091C48.8976 3.46687 46.4305 3.9592 39.5146 6.76483C33.9871 9.00673 27.0897 12.0424 21.5471 14.4814C17.5804 16.2275 14.154 17.7354 12.8645 18.2256C12.859 18.2277 12.8535 18.2298 12.848 18.2318C9.56381 19.52 8.62585 22.6195 9.39626 25.0152C10.155 27.3759 12.7643 29.4612 16.6994 28.4621C16.7097 28.4594 16.7193 28.4573 16.7296 28.4539L32.8184 24.0669C33.1041 25.2164 33.7619 26.2319 34.7129 26.9721C35.8287 27.8407 37.2109 28.2225 38.6041 28.0474C39.5434 27.9293 42.0758 27.5613 44.7571 27.1726C47.3108 26.8018 49.9502 26.4187 50.858 26.3047C52.9351 26.0438 55.3795 27.0277 57.9668 28.0701C60.7086 29.1742 63.8322 30.4328 67.2125 30.4321C68.8907 30.4321 70.6327 30.119 72.4221 29.3253V29.8828C72.4221 30.8537 73.209 31.6406 74.1799 31.6406H88.2424C89.2133 31.6406 90.0002 30.8537 90.0002 29.8828V1.75781C90.0002 0.786896 89.2133 0 88.2424 0ZM86.4846 28.125H75.9377V5.37437V5.373C75.9377 5.373 75.9377 5.37163 75.9377 5.37094V3.51562H86.4846V28.125Z" fill="white"/>
<path d="M81.2109 10.548C82.1819 10.548 82.9688 9.76115 82.9688 8.79024V8.78886C82.9688 7.81863 82.1819 7.03174 81.2109 7.03174C80.24 7.03174 79.4531 7.81932 79.4531 8.79024C79.4531 9.76115 80.24 10.548 81.2109 10.548Z" fill="white"/>
<path d="M32.6953 57.3047C36.8667 57.3047 40.5581 55.2159 42.7842 52.0312H49.2785C49.7447 52.0312 50.1917 51.8459 50.5213 51.5163L53.522 48.5156H55.5819L58.5825 51.5163C58.9121 51.8459 59.3591 52.0312 59.8254 52.0312H62.5781C63.0444 52.0312 63.4914 51.8459 63.821 51.5163L69.0944 46.2428C69.424 45.9132 69.6094 45.4662 69.6094 45V39.7266C69.6094 38.7563 68.8225 37.9688 67.8516 37.9688H42.7849C40.5581 34.7841 36.8674 32.6953 32.6953 32.6953C25.9106 32.6953 20.3906 38.2153 20.3906 45C20.3906 51.7847 25.9106 57.3047 32.6953 57.3047ZM66.0938 41.4844V44.2722L61.8503 48.5156H60.5539L57.5526 45.515C57.223 45.1854 56.776 45 56.3097 45H52.7941C52.3279 45 51.8809 45.1854 51.5513 45.515L48.5506 48.5156H44.4857C44.8187 47.4012 45 46.2215 45 45C45 43.7785 44.8187 42.5988 44.4857 41.4844H66.0938ZM32.6953 36.2109C37.5417 36.2109 41.4844 40.1537 41.4844 45C41.4844 49.8463 37.5417 53.7891 32.6953 53.7891C27.849 53.7891 23.9062 49.8463 23.9062 45C23.9062 40.1537 27.849 36.2109 32.6953 36.2109Z" fill="white"/>
<path d="M29.1797 46.758C30.1506 46.758 30.9375 45.9704 30.9375 44.9995C30.9375 44.0286 30.1506 43.2417 29.1797 43.2417C28.2088 43.2417 27.4219 44.0286 27.4219 44.9995V45.0009C27.4219 45.9718 28.2088 46.758 29.1797 46.758Z" fill="white"/>
<path d="M63.0342 7.0498H63.0349C64.0058 7.0498 64.792 6.26222 64.792 5.29199C64.792 4.32108 64.0044 3.53418 63.0342 3.53418C62.0633 3.53418 61.2764 4.32108 61.2764 5.29199C61.2764 6.26222 62.0633 7.0498 63.0342 7.0498Z" fill="white"/>
<path d="M73.3008 61.5377C73.2905 61.5404 73.2809 61.5425 73.2706 61.5459L57.1818 65.9329C56.8961 64.7834 56.2383 63.7679 55.2873 63.0277C54.1715 62.1591 52.7893 61.7773 51.3961 61.9524C50.4568 62.0705 47.9244 62.4385 45.2431 62.8272C42.6894 63.198 40.05 63.5811 39.1422 63.6951C37.0658 63.9553 34.6207 62.9721 32.0334 61.9297C27.93 60.2777 22.9704 58.2809 17.5781 60.6725V60.1177C17.5781 59.1468 16.7912 58.3599 15.8203 58.3599H1.75781C0.786896 58.3599 0 59.1468 0 60.1177V88.242C0 89.2129 0.786896 89.9998 1.75781 89.9998H15.8203C16.7912 89.9998 17.5781 89.2129 17.5781 88.242V86.4073L19.9237 86.4217H19.9347C20.9001 86.4217 21.6863 85.6423 21.6925 84.6749C21.6987 83.7046 20.9166 82.9122 19.9457 82.9061L17.5781 82.8916V64.6543C22.1807 61.7553 26.3349 63.4246 30.7198 65.1899C33.6099 66.3545 36.5996 67.5575 39.5803 67.1826C40.5217 67.0645 43.0602 66.6964 45.7478 66.3064C48.2945 65.9363 50.9285 65.5545 51.8342 65.4406C52.2949 65.3829 52.7543 65.5106 53.1278 65.8017C53.5096 66.099 53.752 66.5255 53.811 67.0034C53.8495 67.3144 53.9525 68.1418 51.749 69.1635C47.086 71.3265 42.1175 73.1777 38.1157 74.2427C37.1777 74.4926 36.6195 75.4553 36.8687 76.3932C37.1187 77.3319 38.082 77.8887 39.0193 77.6402C43.2092 76.5251 48.3886 74.5977 53.2288 72.353C54.9117 71.5723 55.9465 70.6639 56.5569 69.7479L74.1797 64.942C76.0329 64.4751 76.9846 65.214 77.2572 66.0606C77.525 66.8942 77.2016 67.9688 75.8764 68.492C74.4976 69.0173 71.2038 70.4668 67.0365 72.3008C61.5152 74.7309 54.6439 77.7549 49.1645 79.9775C42.653 82.619 40.6645 83.0187 34.002 82.9933C34.0006 82.9933 33.9986 82.9933 33.9965 82.9933C33.0283 82.9933 32.2421 83.7767 32.2387 84.7456C32.2359 85.7165 33.0208 86.5061 33.9917 86.5089C34.1352 86.5096 34.2767 86.5096 34.4167 86.5096C41.2049 86.5096 43.7098 85.9843 50.4856 83.235C56.0124 80.9931 62.9105 77.9574 68.4524 75.5184C72.4198 73.7723 75.8462 72.2644 77.135 71.7742C77.1405 71.7721 77.146 71.7701 77.1522 71.768C80.4364 70.4798 81.3744 67.3803 80.6039 64.9846C79.8452 62.6246 77.2359 60.5393 73.3008 61.5377V61.5377ZM3.51562 86.4842V61.8748H14.0625V84.6275V84.6295V86.4842H3.51562Z" fill="white"/>
<path d="M26.9665 82.9502H26.9651C25.9942 82.9502 25.208 83.7378 25.208 84.708C25.208 85.6789 25.9956 86.4658 26.9665 86.4658C27.9374 86.4658 28.7243 85.6789 28.7243 84.708C28.7243 83.7378 27.9374 82.9502 26.9665 82.9502Z" fill="white"/>
</g>
<defs>
<clipPath id="clip0">
<rect width="90" height="90" fill="white"/>
</clipPath>
</defs>
</svg>
