<svg width="90" height="90" viewBox="0 0 90 90" fill="none" xmlns="http://www.w3.org/2000/svg">
<path d="M24.1875 39H27.1875V45H24.1875V39Z" fill="white"/>
<path d="M79.9878 6.36035L74.8872 3.20068C71.5715 1.11182 67.7322 0.00219727 63.813 0C63.3494 0 62.8938 0.0146484 62.4946 0.0461426C62.0955 0.0776366 61.7161 0.0959473 61.344 0.145752C61.0547 0.180176 60.7815 0.216064 60.6167 0.250488C60.3882 0.277588 60.1663 0.320801 59.9414 0.364746L59.7708 0.39917C58.7879 0.577148 57.8211 0.834961 56.8799 1.17114C56.5803 1.27075 56.3057 1.36816 56.0112 1.48169C55.6428 1.63184 55.2737 1.78198 54.8877 1.96362C54.5025 2.14526 54.1113 2.34302 53.7268 2.55176C53.6397 2.59937 53.5452 2.65649 53.4522 2.70117L53.3892 2.73926L53.1672 2.8667C52.8318 3.06152 52.5029 3.2688 52.1851 3.47827C52.062 3.55957 51.9448 3.64819 51.8247 3.73169C51.6753 3.83423 51.5252 3.93457 51.3897 4.03198C51.3347 4.06934 51.2835 4.11768 51.2278 4.15649C51.1062 4.24658 50.9788 4.32935 50.8594 4.42236L43.7278 2.49609C41.814 1.96802 39.7808 2.76636 38.7378 4.45679L36.8313 7.5H30.1875C30.1875 5.01489 28.1726 3 25.6875 3C23.2024 3 21.1875 5.01489 21.1875 7.5V10.5C21.1956 12.3999 22.396 14.0903 24.1875 14.7239V18.2761C22.396 18.9097 21.1956 20.6001 21.1875 22.5V25.5C21.1956 27.3999 22.396 29.0903 24.1875 29.7239V33H18.9507C16.9439 33.0066 15.1817 34.3359 14.6235 36.2637L12.4336 43.9277C4.96656 47.3357 0.178723 54.7917 0.187512 63V69C0.199963 80.5928 9.59474 89.9875 21.1875 90H30.1875C41.7803 89.9875 51.1751 80.5928 51.1875 69V63C51.1875 62.6477 51.1729 62.2786 51.156 61.9292C51.1392 61.5798 51.1077 61.2209 51.0718 60.8313C51.0388 60.531 51.0044 60.2307 50.9656 60.0227C50.9312 59.748 50.8953 59.4873 50.8484 59.25L50.6763 58.407C50.6235 58.1638 50.5679 57.9243 50.5159 57.7397C50.3504 57.0835 50.1504 56.436 49.9153 55.8018C49.8003 55.47 49.6677 55.1396 49.533 54.8188C48.7171 52.905 47.6206 51.123 46.2796 49.5315C46.1682 49.3784 46.0452 49.2349 45.9119 49.1008C45.2659 48.3611 44.5635 47.6711 43.812 47.0383C43.7029 46.9387 43.5886 46.845 43.47 46.7563C43.1646 46.4875 42.8452 46.2349 42.5127 45.999C42.1414 45.7332 41.7627 45.4724 41.3848 45.249C41.2896 45.1772 41.1892 45.1113 41.0852 45.0527C40.957 44.9685 40.8245 44.8909 40.6875 44.8213C40.4187 44.6506 40.1477 44.5107 39.8833 44.3716C39.8547 44.3562 39.8233 44.3474 39.7947 44.3328C39.7669 44.3174 39.7332 44.2961 39.7053 44.283C39.0484 43.9541 38.3753 43.6597 37.6875 43.4011C37.5872 43.3638 37.4956 43.3096 37.3967 43.2737L35.2603 36.1992C34.6963 34.2971 32.9451 32.9941 30.9602 33H27.1875V29.7239C28.979 29.0903 30.1795 27.3999 30.1875 25.5V22.5C30.1795 20.6001 28.979 18.9097 27.1875 18.2761V14.7239C28.979 14.0903 30.1795 12.3999 30.1875 10.5H34.9578L32.3716 14.6396C31.3125 16.3455 31.5066 18.5457 32.8469 20.0398L38.1958 25.9666C37.1199 34.1023 40.905 42.1157 47.8726 46.4517L52.9592 49.6333C62.8037 55.7644 75.7529 52.7717 81.909 42.9434L86.6792 35.3086C92.8001 25.4626 89.8081 12.5208 79.9878 6.36035ZM21.1875 87C11.2507 86.989 3.1985 78.9368 3.18751 69V63C3.17946 56.0002 7.2422 49.6348 13.5945 46.6934L13.9849 46.9277C15.1707 47.6345 16.407 48.2542 17.6836 48.7815C10.8435 50.9663 6.19703 57.3193 6.18751 64.5V67.5C6.1985 76.6084 13.5791 83.989 22.6875 84H22.9636C22.5952 84.9661 22.5952 86.0339 22.9636 87H21.1875ZM22.6875 51H28.6875C36.1399 51.0081 42.1795 57.0476 42.1875 64.5V67.5C42.1795 74.9524 36.1399 80.9919 28.6875 81H22.6875C15.2351 80.9919 9.19557 74.9524 9.18751 67.5V64.5C9.19557 57.0476 15.2351 51.0081 22.6875 51ZM30.9602 36C31.6201 36.0037 32.2017 36.4358 32.3958 37.0664L34.7505 44.874C34.8933 45.345 35.2573 45.7156 35.7254 45.8672C36.471 46.1125 37.1997 46.4062 37.9065 46.7476C38.0713 46.8252 38.2412 46.8977 38.4031 46.9797C38.6492 47.0999 38.8894 47.2332 39.1216 47.3789C39.1677 47.4089 39.2175 47.4375 39.2717 47.4631C39.3186 47.4829 39.3648 47.5063 39.408 47.5334C39.468 47.5789 39.5325 47.6177 39.5999 47.6506C39.6702 47.7078 39.7456 47.7576 39.8247 47.8008C40.1558 47.9941 40.4751 48.2058 40.7835 48.4336C41.0508 48.6255 41.3079 48.8313 41.5532 49.0503C41.6338 49.1243 41.7195 49.1924 41.8096 49.2554L41.9297 49.3623C42.5742 49.9065 43.1763 50.4998 43.7293 51.1362C43.8076 51.2161 43.8801 51.301 43.9453 51.3918C45.115 52.7732 46.0715 54.3215 46.7835 55.9863C46.8919 56.2412 46.9995 56.5107 47.0984 56.7942C47.3035 57.3538 47.4785 57.9229 47.6235 58.5C47.6748 58.6816 47.7151 58.8647 47.7554 59.0457L47.9055 59.7957C47.9429 59.9883 47.9685 60.1787 48.0044 60.4578C48.0447 60.6797 48.0689 60.9075 48.093 61.1265C48.1216 61.4268 48.1502 61.7402 48.1633 62.0508C48.1773 62.3613 48.1875 62.6997 48.1875 63V69C48.1765 78.9368 40.1243 86.989 30.1875 87H27.1875C26.3591 87 25.6875 86.3284 25.6875 85.5C25.6875 84.6716 26.3591 84 27.1875 84H28.6875C37.7959 83.989 45.1765 76.6084 45.1875 67.5V64.5C45.1765 55.3916 37.7959 48.011 28.6875 48H27.2688V47.9626C23.1204 47.7261 19.0913 46.4883 15.5266 44.3547L15.4439 44.3057L17.5064 37.0891C17.6902 36.4438 18.2805 35.9993 18.9507 36H30.9602ZM27.1875 25.5C27.1875 26.3284 26.5159 27 25.6875 27C24.8591 27 24.1875 26.3284 24.1875 25.5V22.5C24.1875 21.6716 24.8591 21 25.6875 21C26.5159 21 27.1875 21.6716 27.1875 22.5V25.5ZM27.1875 10.5C27.1875 11.3284 26.5159 12 25.6875 12C24.8591 12 24.1875 11.3284 24.1875 10.5V7.5C24.1875 6.67163 24.8591 6 25.6875 6C26.5159 6 27.1875 6.67163 27.1875 7.5V10.5ZM79.3609 41.3533C74.0808 49.7732 62.9868 52.3374 54.5479 47.0896L49.4627 43.908C43.5169 40.207 40.2722 33.3809 41.157 26.4331L41.5532 26.2302C42.7786 25.6018 43.9563 24.8855 45.0784 24.0872C43.3074 31.0437 46.2378 38.3467 52.3257 42.1501L54.876 43.7402C62.6052 48.561 72.7786 46.2122 77.6118 38.4902L77.7612 38.2588C78.3911 39.0813 79.2971 39.6475 80.3115 39.8533L79.3609 41.3533ZM52.7952 15.9177C56.7495 9.60132 65.0713 7.67871 71.3958 11.6206L73.9453 13.2107C80.2617 17.1643 82.1851 25.4854 78.2446 31.8105L77.4492 33.0828V33.0916L75.0615 36.9001C71.1065 43.2151 62.7869 45.1377 56.4617 41.1987L53.9114 39.6086C47.5847 35.658 45.6614 27.3245 49.6172 21L52.7835 15.9316L52.7952 15.9119V15.9177ZM84.1319 33.7185L82.5403 36.2688C82.1016 36.9712 81.1758 37.1843 80.4734 36.7456C79.7717 36.3062 79.5586 35.3818 79.9966 34.6802L80.7898 33.4094C85.6077 25.6794 83.2588 15.509 75.5398 10.6743L72.9902 9.08423C65.2603 4.26709 55.0899 6.61597 50.2544 14.3342C47.7986 18.2659 44.3211 21.4563 40.1924 23.5649L40.1067 23.6067L35.0742 18.03C34.6282 17.5312 34.5637 16.7988 34.9153 16.2297L41.2771 6.04468C41.6272 5.48364 42.3032 5.21777 42.9419 5.39136L50.8125 7.53003C51.2879 7.65674 51.7954 7.54468 52.1734 7.22974C52.5117 6.94336 52.8721 6.67969 53.2332 6.41821C53.595 6.15747 53.9473 5.92969 54.3179 5.70117C54.5178 5.58032 54.7083 5.44629 54.9104 5.33276C54.9932 5.28442 55.0789 5.23169 55.1565 5.19141C55.4956 5.0083 55.8347 4.83911 56.1555 4.68311C56.4763 4.5271 56.7825 4.40405 57.1033 4.27954C57.3479 4.18213 57.5808 4.10083 57.8533 4.00928C58.6538 3.7229 59.4756 3.50244 60.312 3.34937L60.5325 3.30615C60.6724 3.27905 60.813 3.24756 61.062 3.21606C61.2708 3.17578 61.4788 3.15308 61.7161 3.12305C62.0164 3.08423 62.3159 3.05859 62.6734 3.04175C63.03 3.02563 63.3735 3.00146 63.7229 3.00146C67.1096 2.98315 70.4297 3.93604 73.2913 5.74658L78.3919 8.90845C86.8096 14.1877 89.3753 25.2788 84.1319 33.7185Z" fill="white"/>
<path d="M40.249 13.3953L41.8398 10.8501L46.928 14.0303L45.3372 16.5754L40.249 13.3953Z" fill="white"/>
</svg>
