<svg width="90" height="90" viewBox="0 0 90 90" fill="none" xmlns="http://www.w3.org/2000/svg">
<path d="M42.5844 54.2945H51.8768C54.0042 54.2945 54.0073 50.9805 51.8768 50.9805H42.5844C38.104 50.9805 34.4579 47.3355 34.4579 42.8541C34.4579 38.3732 38.1035 34.7276 42.5844 34.7276H56.2439C56.796 34.7276 57.2842 34.4567 57.5854 34.0411C57.5942 34.0334 57.6035 34.0262 57.6122 34.019C59.96 32.0878 62.3192 30.1458 64.322 27.8592C66.3247 25.5727 67.9727 22.9051 68.6664 19.9455C69.3822 16.8942 68.9816 13.5859 67.7698 10.7128C66.7712 8.34542 65.2252 6.166 63.0556 4.74155C60.6429 3.15797 57.6405 2.49416 54.7834 2.87216C51.266 3.3377 48.0021 5.3652 45.9504 8.26045C43.8992 11.1552 43.0659 14.8662 43.5907 18.3753C44.0846 21.681 45.7207 24.7364 47.8316 27.3283C49.0367 28.8084 50.3947 30.1499 51.8258 31.4137H42.5849C36.2764 31.4137 31.1445 36.5465 31.1445 42.8541C31.1445 49.1626 36.2764 54.2945 42.5844 54.2945ZM47.158 19.5572C45.9571 15.5928 47.4021 10.6747 50.5198 8.11728C52.1838 6.75257 54.2236 6.07022 56.263 6.07022C58.2966 6.07022 60.3303 6.74897 61.9917 8.10492L62.0215 8.12964C65.2057 10.7545 66.6054 16.0218 65.2077 20.1309C63.7302 24.4732 59.8699 27.8634 56.265 30.8482C52.451 27.6615 48.4836 23.9304 47.158 19.5572Z" fill="white"/>
<path d="M71.1686 50.9805H65.0768C62.9494 50.9805 62.9463 54.2944 65.0768 54.2944H71.1686C76.1191 54.2944 80.1463 58.3226 80.1463 63.2727C80.1463 68.2222 76.1191 72.2504 71.1686 72.2504H55.6675C54.9059 68.7537 51.7876 66.1262 48.0663 66.1262H45.1098L43.6014 64.4973C39.8425 60.4377 34.514 58.1094 28.9815 58.1094H19.1175C17.3851 58.1094 15.975 59.5189 15.975 61.2513V66.1262H13.9547C9.66388 66.1262 6.17383 69.6168 6.17383 73.9071C6.17383 77.3967 8.51495 80.4263 11.7794 81.3775C12.4108 84.6574 15.3014 87.1438 18.7626 87.1438C22.1142 87.1438 24.9296 84.8135 25.6789 81.688H36.6332C37.3825 84.8135 40.1979 87.1438 43.5494 87.1438C47.0441 87.1438 49.9558 84.609 50.5491 81.2822C53.1518 80.4104 55.0913 78.2242 55.6691 75.5643H71.1686C77.9458 75.5643 83.4603 70.0499 83.4603 63.2727C83.4603 56.4949 77.9458 50.9805 71.1686 50.9805ZM19.289 61.4234H28.9815C33.3033 61.4234 37.4757 63.128 40.5625 66.1262H19.289V61.4234ZM18.7632 83.8299C16.6687 83.8299 14.9641 82.1258 14.9641 80.0308C14.9641 77.9359 16.6687 76.2318 18.7632 76.2318C20.8571 76.2318 22.5617 77.9359 22.5617 80.0308C22.5617 82.1258 20.8571 83.8299 18.7632 83.8299ZM43.5494 83.8299C41.4544 83.8299 39.7509 82.1258 39.7509 80.0308C39.7509 77.9359 41.4544 76.2318 43.5494 76.2318C45.6439 76.2318 47.3479 77.9359 47.3479 80.0308C47.3479 82.1258 45.6439 83.8299 43.5494 83.8299ZM50.2952 77.7793C49.3507 74.9577 46.6852 72.9178 43.5494 72.9178C40.1979 72.9178 37.3825 75.2487 36.6337 78.3741H25.6789C24.9301 75.2487 22.1142 72.9178 18.7632 72.9178C15.5795 72.9178 12.8774 75.021 11.9731 77.9106C10.492 77.1737 9.48827 75.639 9.48827 73.9066C9.48827 71.4434 11.4916 69.4396 13.9553 69.4396H17.6328L44.3888 69.4427C44.4022 69.4427 44.4151 69.4401 44.4285 69.4396H48.0669C50.53 69.4396 52.5338 71.4434 52.5338 73.9066C52.5333 75.5443 51.647 77.0017 50.2952 77.7793Z" fill="white"/>
<path d="M62.5728 15.5747C62.5728 12.096 59.743 9.26562 56.2632 9.26562C52.7845 9.26562 49.9541 12.096 49.9541 15.5747C49.9541 19.0545 52.7845 21.8848 56.2632 21.8848C59.743 21.8848 62.5728 19.0545 62.5728 15.5747ZM53.268 15.5747C53.268 13.9231 54.6116 12.5796 56.2632 12.5796C57.9153 12.5796 59.2589 13.9231 59.2589 15.5747C59.2589 17.2268 57.9153 18.5709 56.2632 18.5709C54.6116 18.5709 53.268 17.2268 53.268 15.5747Z" fill="white"/>
<path d="M57.4028 51.4657C56.7652 52.1027 56.7657 53.1713 57.4028 53.8088C58.0393 54.4459 59.1089 54.4459 59.746 53.8088C60.3645 53.1893 60.3845 52.164 59.7949 51.5187C59.1681 50.8338 58.0604 50.808 57.4028 51.4657C57.7107 51.1572 57.0943 51.7736 57.4028 51.4657Z" fill="white"/>
<path d="M43.5498 78.3735C42.6496 78.3735 41.8926 79.1306 41.8926 80.0302C41.8926 80.931 42.6496 81.6875 43.5498 81.6875C44.4248 81.6875 45.1648 80.9747 45.2034 80.1029C45.2446 79.1759 44.4793 78.3735 43.5498 78.3735Z" fill="white"/>
<path d="M18.7627 78.3735C17.8625 78.3735 17.1055 79.1306 17.1055 80.0302C17.1055 80.931 17.8625 81.6875 18.7627 81.6875C19.6376 81.6875 20.3777 80.9747 20.4163 80.1029C20.4575 79.1759 19.6922 78.3735 18.7627 78.3735Z" fill="white"/>
</svg>
