<svg width="90" height="90" viewBox="0 0 90 90" fill="none" xmlns="http://www.w3.org/2000/svg">
<path d="M86.0451 38.4065H84.7275V34.4507V20.3882C84.7275 15.7842 80.9817 12.0384 76.3779 12.0384H40.1707L15.7436 5.05924C15.7366 5.05731 15.7294 5.05625 15.7224 5.05432C15.7152 5.05239 15.7083 5.04957 15.7011 5.04782C15.6863 5.04412 15.6717 5.04237 15.6572 5.0392C15.6345 5.03446 15.6118 5.02953 15.5891 5.02584C15.5686 5.0225 15.5483 5.02039 15.5278 5.01793C15.5039 5.01512 15.4801 5.01266 15.4564 5.01125C15.4371 5.0102 15.4179 5.01002 15.3986 5.00967C15.374 5.00932 15.3495 5.00914 15.3251 5.0102C15.307 5.0109 15.2889 5.01266 15.271 5.01407C15.2458 5.01618 15.2207 5.01846 15.1959 5.02215C15.179 5.02461 15.1623 5.02778 15.1456 5.03077C15.12 5.03534 15.0947 5.04026 15.0695 5.04641C15.0539 5.05028 15.0386 5.05467 15.0231 5.05907C14.9975 5.06645 14.9721 5.07401 14.9468 5.0828C14.9326 5.08789 14.9185 5.09334 14.9043 5.09897C14.8788 5.10881 14.8535 5.11918 14.8287 5.13061C14.8155 5.13676 14.8027 5.14344 14.7897 5.14994C14.7649 5.16243 14.7405 5.17508 14.7166 5.18932C14.7041 5.19653 14.6921 5.20426 14.6798 5.212C14.6563 5.22676 14.6331 5.24188 14.6106 5.25823C14.5988 5.26666 14.5874 5.2758 14.5758 5.28477C14.5541 5.30147 14.5327 5.31852 14.5121 5.33662C14.5005 5.34682 14.4894 5.35754 14.4782 5.36809C14.4589 5.38637 14.4397 5.40465 14.4214 5.42399C14.41 5.43612 14.3993 5.44877 14.3882 5.46143C14.3715 5.48059 14.355 5.49992 14.3393 5.52014C14.3281 5.53473 14.3175 5.54967 14.3068 5.56461C14.2929 5.58412 14.2792 5.60381 14.2666 5.62403C14.2557 5.64125 14.2456 5.65918 14.2356 5.67694C14.2245 5.69645 14.2135 5.71613 14.2035 5.73635C14.1936 5.75604 14.1848 5.77625 14.1759 5.79647C14.1671 5.81633 14.1585 5.83619 14.1507 5.85658C14.1426 5.87803 14.1356 5.9 14.1284 5.92215C14.1238 5.93639 14.1182 5.94975 14.114 5.96416C14.1119 5.97137 14.111 5.9784 14.1091 5.98543C14.1071 5.99264 14.1043 5.99949 14.1026 6.0067L12.5951 12.0381H8.35047C3.75574 12.0381 0.0165234 15.7687 0.00140625 20.3601C0.00123047 20.3696 0 20.3786 0 20.3879V66.0909C0 66.8186 0.592382 67.4093 1.31836 67.4093C2.04609 67.4093 2.63671 66.8186 2.63671 66.0909V26.4687C4.13155 27.8742 6.14143 28.738 8.35047 28.738H76.3779C76.3794 28.738 76.3809 28.7378 76.3824 28.7378C79.5303 28.7403 82.0907 31.3021 82.0907 34.4509V43.6801H67.5867C67.5858 43.6801 67.5851 43.6802 67.5843 43.6802C67.5461 43.6802 67.5081 43.6825 67.4703 43.6859C67.4283 43.6896 67.3868 43.6955 67.3461 43.7031C67.3399 43.7042 67.3339 43.7047 67.3278 43.7059C67.2933 43.7128 67.2596 43.7219 67.226 43.7314C67.2186 43.7335 67.2111 43.7349 67.2039 43.7372C67.174 43.7463 67.145 43.7572 67.116 43.7683C67.1049 43.7725 67.0936 43.776 67.0826 43.7806C67.0583 43.7906 67.0349 43.8024 67.0116 43.8138C66.9961 43.8212 66.9804 43.8281 66.9653 43.836C66.947 43.8457 66.9298 43.8567 66.9122 43.8673C66.8927 43.8789 66.8729 43.8901 66.8539 43.9028C66.841 43.9112 66.8293 43.9209 66.817 43.9299C66.7945 43.946 66.7718 43.962 66.7503 43.9798C66.741 43.9875 66.7324 43.9961 66.7234 44.004C66.7004 44.0241 66.6774 44.0439 66.6556 44.0657C66.6428 44.0786 66.6312 44.0926 66.619 44.106C66.602 44.1244 66.5844 44.1426 66.5682 44.1622C66.541 44.1955 66.5155 44.2299 66.4916 44.2656C66.4911 44.2661 66.4905 44.2668 66.4902 44.2675L59.4593 54.8146C59.4103 54.888 59.3688 54.9659 59.3359 55.0469C59.3234 55.0772 59.3134 55.1079 59.3034 55.1385C59.3004 55.1478 59.2965 55.1568 59.2937 55.1661C59.2839 55.1986 59.2763 55.2315 59.2691 55.2642C59.2672 55.2728 59.2647 55.2813 59.263 55.2899C59.2572 55.3194 59.2533 55.3491 59.2496 55.3788C59.248 55.3915 59.2456 55.4041 59.2443 55.417C59.2419 55.4414 59.2413 55.4657 59.2405 55.4901C59.2396 55.5087 59.238 55.5274 59.238 55.5462C59.238 55.5643 59.2396 55.5824 59.2403 55.6005C59.2412 55.6254 59.2419 55.6506 59.2443 55.6755C59.2456 55.6877 59.2478 55.6998 59.2494 55.7119C59.2533 55.7422 59.2572 55.7724 59.2631 55.8025C59.2647 55.8107 59.2672 55.8188 59.2691 55.8271C59.2763 55.8601 59.284 55.8932 59.2939 55.926C59.2967 55.9353 59.3006 55.9443 59.3036 55.9538C59.3136 55.9844 59.3236 56.0151 59.3361 56.0454C59.3691 56.1262 59.4106 56.2043 59.4598 56.2779L66.4905 66.8234C66.4909 66.8239 66.4912 66.8243 66.4916 66.8248C66.5199 66.8668 66.5508 66.9069 66.5835 66.9454C66.5942 66.958 66.6057 66.9698 66.6168 66.9818C66.6391 67.0062 66.6623 67.0298 66.6864 67.0524C66.7006 67.0658 66.7147 67.0788 66.7291 67.0913C66.7547 67.1133 66.7813 67.1338 66.8085 67.1539C66.8208 67.1628 66.8326 67.1727 66.8451 67.1811C66.8846 67.208 66.9256 67.2328 66.968 67.2553C66.9787 67.2609 66.9898 67.2657 67.0005 67.2709C67.0342 67.2878 67.0687 67.3035 67.104 67.3173C67.1177 67.3228 67.1314 67.3277 67.1453 67.3326C67.1789 67.3446 67.213 67.3551 67.2478 67.3644C67.262 67.3681 67.2761 67.372 67.2905 67.3755C67.3262 67.3838 67.3624 67.3901 67.3992 67.3954C67.4125 67.3973 67.4257 67.3999 67.439 67.4015C67.4844 67.4066 67.5305 67.4094 67.5772 67.4098C67.5809 67.4098 67.5846 67.4105 67.5885 67.4105C67.5892 67.4105 67.59 67.4103 67.5909 67.4103H82.0913V76.6402C82.0913 79.7906 79.5284 82.3535 76.3784 82.3535H8.35118C5.20118 82.3535 2.6383 79.7906 2.6383 76.6402C2.6383 76.6334 2.63742 76.6267 2.63724 76.6198V71.365C2.63724 70.6391 2.04662 70.0467 1.31888 70.0467C0.592909 70.0467 0.000527343 70.6391 0.000527343 71.365V76.6402C0.000527343 76.6539 0.00210937 76.6673 0.00263671 76.6808C0.0246093 81.2663 3.76083 84.9902 8.35118 84.9902H76.3784C80.9819 84.9902 84.7273 81.2452 84.728 76.6416C84.728 76.6415 84.728 76.6413 84.728 76.6409V67.4103H86.0456C88.226 67.4103 90 65.6363 90 63.456V42.3608C89.9995 40.1805 88.2255 38.4065 86.0451 38.4065ZM16.33 7.96894L39.5927 14.6157C39.5938 14.6161 39.595 14.6163 39.5961 14.6166L55.1871 19.0713H13.5552L16.33 7.96894ZM82.0906 28.3697C80.5959 26.9645 78.5864 26.1009 76.3779 26.1009C76.3756 26.1009 76.3735 26.1013 76.371 26.1013H8.35047C5.2003 26.1013 2.63742 23.5384 2.63742 20.3882C2.63742 17.238 5.2003 14.6752 8.35047 14.6752H11.9361L10.8374 19.0713H8.35082C7.62274 19.0713 7.03247 19.6615 7.03247 20.3896C7.03247 21.1177 7.62274 21.708 8.35082 21.708H11.8622C11.864 21.708 11.8659 21.7083 11.8678 21.7083C11.8693 21.7083 11.8707 21.708 11.8719 21.708H64.5958C64.5976 21.708 64.5991 21.7083 64.6007 21.7083C64.6021 21.7083 64.6035 21.708 64.6049 21.708H74.6185C75.3466 21.708 75.9368 21.1177 75.9368 20.3896C75.9368 19.6615 75.3466 19.0713 74.6185 19.0713H64.7848L49.3988 14.6752H76.3777C79.5277 14.6752 82.0906 17.238 82.0906 20.3882V28.3697ZM87.3628 63.4553C87.3628 64.1818 86.7716 64.7729 86.0451 64.7729H68.2923L62.1401 55.5455L68.2923 46.3166H86.0451C86.0636 46.3166 86.0815 46.3145 86.0998 46.3138C86.542 46.3076 86.9667 46.2289 87.3628 46.0886V63.4553ZM86.0451 43.6785C86.036 43.6785 86.027 43.6797 86.0179 43.6799H84.7275V41.0432H86.0451C86.7716 41.0432 87.3628 41.6343 87.3628 42.3608C87.3628 43.0873 86.7716 43.6785 86.0451 43.6785Z" fill="white"/>
<path d="M72.8613 50.7114C70.1958 50.7114 68.0273 52.88 68.0273 55.5456C68.0273 58.2111 70.1958 60.3796 72.8613 60.3796C75.5269 60.3796 77.6953 58.2111 77.6953 55.5456C77.6953 52.88 75.5269 50.7114 72.8613 50.7114ZM72.8613 57.7428C71.6497 57.7428 70.6641 56.7572 70.6641 55.5456C70.6641 54.3339 71.6497 53.3481 72.8613 53.3481C74.073 53.3481 75.0586 54.3339 75.0586 55.5456C75.0586 56.7572 74.073 57.7428 72.8613 57.7428Z" fill="white"/>
</svg>
