<svg width="106" height="106" viewBox="0 0 106 106" fill="none" xmlns="http://www.w3.org/2000/svg">
<path d="M106 0H0V105.996H106V0Z" fill="#96004F"/>
<path fill-rule="evenodd" clip-rule="evenodd" d="M82.4178 16.0795C81.8863 16.0935 80.5819 16.0324 78.7218 17.5392C77.8966 18.2127 76.2794 20.784 76.7461 22.9327C76.8903 23.6371 77.2739 24.1892 77.5528 24.5573C78.3228 25.5694 79.9003 26.2113 80.6048 25.5974C81.4564 24.8583 83.0199 24.9658 83.653 24.5882C84.1175 24.3055 85.3829 23.498 86.0535 21.6908C86.3273 20.9525 88.0064 15.9573 82.4178 16.0795Z" fill="white"/>
<path fill-rule="evenodd" clip-rule="evenodd" d="M91.5511 51.7152C88.7473 48.2746 79.6887 50.8032 77.2433 51.3089C77.685 49.1985 82.4255 33.9499 82.5735 32.3283C82.6766 31.2374 82.6839 29.9801 81.1778 29.2175C78.1561 27.6805 74.0177 30.0809 72.4549 31.2926C70.5189 32.8075 71.7696 31.4449 66.5587 36.198C60.1633 42.0376 57.8203 44.734 57.5214 44.6427C56.8648 44.5286 60.5159 36.3813 61.0872 34.2112C61.4574 32.7883 61.8218 31.8388 61.442 30.6234C61.0872 29.4803 60.1633 28.4953 58.3996 28.3054C56.4276 28.089 53.7768 29.0217 50.3664 30.5204C45.5243 32.6492 35.9004 38.0162 31.5684 40.8274C9.06323 55.4591 7.41582 58.2622 6.80337 59.6535C6.27337 60.8496 6.45813 62.0995 7.01464 62.4963C7.73161 63.0028 8.73272 63.3612 10.4081 62.0694C12.6341 60.3609 13.5358 58.2335 18.1373 54.1039C27.4263 45.791 36.5349 40.915 40.1948 38.7611C45.0068 35.9249 50.3915 33.7431 53.0657 32.8119C53.132 32.7891 48.7882 44.6868 48.0506 46.9092C46.295 52.2283 46.3259 54.1098 47.3638 55.2971C48.744 56.8768 51.129 56.4006 52.9281 55.0726C53.9748 54.3019 56.5483 51.1573 57.7747 49.8389C59.0047 48.5257 61.0003 46.597 62.7184 44.7501C64.4335 42.904 67.322 40.2363 69.0357 38.8105C70.4888 37.5951 71.7033 36.6235 72.0449 36.7817C72.5506 37.0239 71.7954 38.6382 71.7954 38.6382C71.7954 38.6382 69.5716 45.3302 68.8031 47.8904C68.474 48.9769 67.9057 51.1425 67.3029 53.557C53.542 56.9527 39.3807 60.5581 32.3523 63.0742C18.283 68.1312 9.089 71.259 10.188 74.241C11.4077 77.5652 16.735 72.1173 34.2772 65.7028C42.6608 62.6354 45.0223 62.0296 49.6892 60.8511C56.0551 59.242 61.4015 58.1555 66.5204 57.2501C66.2797 58.5633 66.2156 60.2909 66.4063 61.3193C66.8789 63.875 68.5572 64.5736 69.8748 64.8386C71.9301 65.2641 75.1115 64.793 75.5525 60.2725C75.6725 58.9681 76.0089 56.9718 76.1112 56.4874C76.5521 56.3962 77.4516 56.2467 78.0354 56.1937C84.0111 55.6166 84.0597 56.2865 84.6803 56.7392C85.3059 57.1963 85.8264 59.4893 89.635 57.8816C93.094 56.4197 92.5692 52.9637 91.5511 51.7152Z" fill="white"/>
<path fill-rule="evenodd" clip-rule="evenodd" d="M70.6106 75.3044L70.1858 77.4038H74.219L74.0099 78.4358H69.9731L69.5491 80.5418H73.5808L73.3747 81.5657H69.3408L68.9116 83.6688H72.9448C76.7946 83.6688 77.2164 82.5131 77.8304 79.4914C78.2087 77.6445 78.6813 75.3044 75.2253 75.3044H70.6106Z" fill="white"/>
<path fill-rule="evenodd" clip-rule="evenodd" d="M52.718 72.4917L50.0864 78.6044H49.9996L49.7942 72.4917H43.0551L40.7827 83.6681H44.8328L46.6164 74.887H46.7312L47.0816 83.6681H50.6407L54.629 74.887H54.7283L52.9396 83.6681H56.9772L59.2451 72.4917H52.718Z" fill="white"/>
<path fill-rule="evenodd" clip-rule="evenodd" d="M65.2872 75.3044L64.0152 81.5657H62.7255L63.9997 75.3044H59.9614L58.9713 80.1811C58.5098 82.2282 59.2113 83.6688 62.3015 83.6688H67.6265L69.3218 75.3044H65.2872Z" fill="white"/>
<path fill-rule="evenodd" clip-rule="evenodd" d="M83.8232 75.3125C80.9589 75.3125 79.5596 76.4439 79.1503 78.4424L78.0918 83.6688H82.1272L83.3778 77.4936H84.6704L83.3984 83.6688H87.4485L89.1497 75.3044L83.8232 75.3125Z" fill="white"/>
<path fill-rule="evenodd" clip-rule="evenodd" d="M95.3284 77.9985C95.2953 77.9963 93.9284 77.9963 93.9284 77.9963L94.4731 75.3044H90.4355L88.7388 83.6681H93.4204C96.5018 83.6681 98.2714 82.8193 98.6579 80.901C99.0568 78.9415 97.5022 78.0265 95.3284 77.9985ZM93.1967 81.5643L93.5088 80.0471H94.797L94.4878 81.5643H93.1967Z" fill="white"/>
</svg>
