<svg width="22" height="22" viewBox="0 0 22 22" fill="none" xmlns="http://www.w3.org/2000/svg">
<path d="M21.3946 18.4793L16.3475 13.4318C15.5955 14.6013 14.6002 15.5961 13.4307 16.3481L18.4782 21.3957C19.284 22.2013 20.5905 22.2013 21.3946 21.3957C22.2004 20.5914 22.2004 19.2849 21.3946 18.4793Z" fill="#96004F"/>
<path d="M16.4999 8.25C16.4999 3.69406 12.806 0 8.25 0C3.69406 0 0 3.69406 0 8.25C0 12.806 3.69406 16.4998 8.25 16.4998C12.806 16.4998 16.4999 12.806 16.4999 8.25ZM8.25 14.4373C4.83801 14.4373 2.06256 11.662 2.06256 8.25005C2.06256 4.83806 4.83801 2.0626 8.25 2.0626C11.6619 2.0626 14.4376 4.83806 14.4376 8.25005C14.4376 11.662 11.6619 14.4373 8.25 14.4373Z" fill="#96004F"/>
<path d="M3.43652 8.25026H4.81135C4.81135 6.35489 6.35358 4.81282 8.24892 4.81282V3.43787C5.5957 3.43787 3.43652 5.59703 3.43652 8.25026Z" fill="#96004F"/>
</svg>
