<svg width="40" height="40" viewBox="0 0 40 40" fill="none" xmlns="http://www.w3.org/2000/svg">
<g clip-path="url(#clip0)">
<path d="M40.0009 16.4062C40.0009 19.2554 39.2587 22.0624 37.8546 24.5242C37.4271 25.2737 36.4731 25.5347 35.7233 25.1071C34.9737 24.6796 34.7125 23.7253 35.1404 22.9758C36.2756 20.9851 36.8759 18.7134 36.8759 16.4062C36.8759 9.08295 30.918 3.125 23.5947 3.125C16.2714 3.125 10.3134 9.08295 10.3134 16.4062C10.3134 23.7296 16.2714 29.6875 23.5947 29.6875C25.8737 29.6875 28.1213 29.101 30.0943 27.9913C30.8465 27.5684 31.7993 27.8354 32.2223 28.5873C32.6453 29.3396 32.3785 30.2924 31.6263 30.715C29.1867 32.0874 26.4093 32.8125 23.5947 32.8125C19.6512 32.8125 16.0284 31.4136 13.1958 29.0863L2.66448 39.5462C2.35992 39.8486 1.96166 40 1.56341 40C1.1618 40 0.760187 39.8462 0.454706 39.5386C-0.153204 38.9264 -0.149847 37.937 0.462335 37.3288L10.9796 26.8832C8.61358 24.0393 7.18841 20.3864 7.18841 16.4062C7.18841 7.35992 14.5483 0 23.5947 0C32.641 0 40.0009 7.35992 40.0009 16.4062ZM34.0918 15.7422C34.4705 16.2811 34.4705 16.9998 34.0921 17.5388C34.0372 17.6169 33.8486 17.8839 33.7314 18.0313C33.2083 18.689 31.9833 20.2301 30.2789 21.5903C28.0936 23.3344 25.8447 24.2188 23.5947 24.2188C21.3449 24.2188 19.0961 23.3344 16.9107 21.5903C15.206 20.2301 13.981 18.6893 13.4579 18.0313C13.3408 17.8839 13.1525 17.6172 13.0972 17.5388C12.7188 16.9998 12.7188 16.2811 13.0975 15.7422C13.1525 15.6641 13.3408 15.3973 13.4579 15.2502C13.981 14.592 15.2063 13.0511 16.9107 11.691C19.0958 9.9469 21.3449 9.0625 23.5947 9.0625C25.8447 9.0625 28.0936 9.9469 30.2789 11.691C31.9833 13.0511 33.2083 14.592 33.7314 15.2502C33.8486 15.3976 34.0369 15.6641 34.0918 15.7422ZM30.8325 16.6406C28.3481 13.685 25.9155 12.1875 23.5947 12.1875C21.2741 12.1875 18.8415 13.685 16.3571 16.6406C18.8415 19.5963 21.2741 21.0938 23.5947 21.0938C25.9155 21.0938 28.3478 19.5966 30.8325 16.6406ZM23.6728 13.6719C22.0331 13.6719 20.704 15.0009 20.704 16.6406C20.704 18.2803 22.0331 19.6094 23.6728 19.6094C25.3125 19.6094 26.6415 18.2803 26.6415 16.6406C26.6415 15.0009 25.3125 13.6719 23.6728 13.6719Z" fill="white"/>
</g>
<defs>
<clipPath id="clip0">
<rect width="40" height="40" fill="white"/>
</clipPath>
</defs>
</svg>
