<svg width="40" height="40" viewBox="0 0 40 40" fill="none" xmlns="http://www.w3.org/2000/svg">
<g clip-path="url(#clip0)">
<path d="M39.5085 12.4668L26.2861 3.95949C26.0221 3.78965 25.6706 3.86605 25.5008 4.12988C25.331 4.39379 25.4073 4.74535 25.6712 4.91519L38.7003 13.2981H35.663L20.8313 3.75543C20.3263 3.43058 19.6737 3.43066 19.1687 3.75543L4.33701 13.2981H1.29966L19.9993 1.26589L22.6477 2.9698C22.9116 3.13957 23.2631 3.06332 23.433 2.79941C23.6027 2.5355 23.5265 2.18394 23.2626 2.0141L20.6142 0.310186C20.2411 0.0701073 19.759 0.0701073 19.3859 0.310186L0.491459 12.4668C0.0891143 12.7257 -0.0905734 13.208 0.0443486 13.6671C0.179271 14.1262 0.591381 14.4346 1.06982 14.4346H3.93576V16.3932V18.1085C3.93576 18.5608 4.25654 18.9395 4.68248 19.0291V20.0292C4.68248 20.548 5.10451 20.97 5.62326 20.97H5.70139V27.9319C5.70139 28.2457 5.95576 28.5001 6.26959 28.5001C6.58342 28.5001 6.8378 28.2457 6.8378 27.9319V20.4018C6.8378 20.088 6.58342 19.8336 6.26959 19.8336H5.81897V19.0492H9.84342V19.8334H9.3928C9.07897 19.8334 8.8246 20.0878 8.8246 20.4016V32.956C8.8246 33.2699 9.07897 33.5242 9.3928 33.5242H9.84342V34.377H5.81897V33.5242H6.26959C6.58342 33.5242 6.8378 33.2699 6.8378 32.956V31.5037C6.8378 31.1899 6.58342 30.9355 6.26959 30.9355C5.95576 30.9355 5.70139 31.1899 5.70139 31.5037V32.3878H5.62326C5.10451 32.3878 4.68248 32.8098 4.68248 33.3285V34.3286C4.25646 34.4182 3.93576 34.797 3.93576 35.2492V36.3963H1.92294C1.29482 36.3963 0.783803 36.9073 0.783803 37.5354V38.7307C0.783803 39.3588 1.29482 39.8698 1.92294 39.8698H38.0771C38.7052 39.8698 39.2162 39.3588 39.2162 38.7307V37.5354C39.2162 36.9073 38.7052 36.3963 38.0771 36.3963H36.0642V35.2492C36.0642 34.797 35.7435 34.4182 35.3175 34.3286V33.3285C35.3175 32.8098 34.8955 32.3878 34.3767 32.3878H34.2986V20.9698H34.3767C34.8955 20.9698 35.3175 20.5478 35.3175 20.0291V19.029C35.7435 18.9394 36.0642 18.5606 36.0642 18.1083V16.393V14.4344H38.9302C39.4086 14.4344 39.8207 14.126 39.9557 13.6669C40.0906 13.208 39.9109 12.7256 39.5085 12.4668ZM19.7836 4.71113C19.9151 4.62652 20.0849 4.6266 20.2164 4.71113L33.5628 13.2982H6.43733L19.7836 4.71113ZM5.07217 14.4345H34.9278V15.8249H28.8417H23.3272H16.6728H11.1583H5.07217V14.4345ZM23.1488 34.3288V33.3287C23.1488 32.8099 22.7267 32.388 22.208 32.388H22.1298V20.97H22.208C22.7267 20.97 23.1488 20.548 23.1488 20.0292V19.0291C23.5748 18.9395 23.8955 18.5608 23.8955 18.1085V16.9614H28.2734V18.1085C28.2734 18.5608 28.5942 18.9395 29.0202 19.0291V20.0292C29.0202 20.548 29.4422 20.97 29.961 20.97H30.0391V32.388H29.961C29.4422 32.388 29.0202 32.8099 29.0202 33.3287V34.3288C28.5942 34.4184 28.2734 34.7971 28.2734 35.2494V36.3964H23.8955V35.2494C23.8955 34.7971 23.5747 34.4184 23.1488 34.3288ZM10.9798 34.3288V33.3287C10.9798 32.8099 10.5578 32.388 10.0391 32.388H9.96092V20.97H10.0391C10.5578 20.97 10.9798 20.548 10.9798 20.0292V19.0291C11.4058 18.9395 11.7266 18.5608 11.7266 18.1085V16.9614H16.1046V18.1085C16.1046 18.5608 16.4254 18.9395 16.8513 19.0291V20.0292C16.8513 20.548 17.2734 20.97 17.7921 20.97H17.8702V32.388H17.7921C17.2734 32.388 16.8513 32.8099 16.8513 33.3287V34.3288C16.4254 34.4184 16.1046 34.7971 16.1046 35.2494V36.3964H11.7266V35.2494C11.7266 34.7971 11.4058 34.4184 10.9798 34.3288ZM21.5616 33.5242H22.0123V34.377H17.9878V33.5242H18.4384C18.7523 33.5242 19.0066 33.2699 19.0066 32.956V20.4017C19.0066 20.0879 18.7523 19.8334 18.4384 19.8334H17.9878V19.0492H22.0123V19.8334H21.5616C21.2478 19.8334 20.9934 20.0878 20.9934 20.4016V32.956C20.9934 33.2699 21.2478 33.5242 21.5616 33.5242ZM17.4195 17.9128H17.417H17.241V16.9614H22.759V17.9128H22.5805C22.5801 17.9128 22.5796 17.9129 22.5792 17.9129C22.5788 17.9129 22.5784 17.9128 22.578 17.9128H17.4195ZM17.241 35.4854C17.2965 35.5035 17.3555 35.5135 17.417 35.5135H22.5779C22.6413 35.5135 22.702 35.5027 22.759 35.4835V36.3963H17.241V35.4854ZM5.25076 17.9128H5.07225V16.9614H10.5902V17.9128H10.5901H10.4116H5.25076ZM5.07217 35.4845C5.12834 35.5031 5.18826 35.5135 5.25068 35.5135H10.4116C10.474 35.5135 10.534 35.5031 10.5901 35.4845V36.3963H5.07217V35.4845ZM38.0798 37.5355L38.0782 38.7334C38.0782 38.7334 38.0779 38.7335 38.0771 38.7335L1.92021 38.7308L1.92294 37.5328L38.0798 37.5355ZM34.7477 35.5135C34.8107 35.5135 34.8711 35.5028 34.9278 35.4838V36.3963H29.4099V35.485C29.4656 35.5033 29.5249 35.5135 29.5868 35.5135H34.7477ZM30.6072 19.8335H30.1566V19.0492H34.181V19.8334H33.7304C33.4166 19.8334 33.1622 20.0878 33.1622 20.4016V32.956C33.1622 33.2699 33.4166 33.5243 33.7304 33.5243H34.181V34.377H30.1566V33.5243H30.6072C30.921 33.5243 31.1754 33.2699 31.1754 32.9561V20.4017C31.1754 20.0879 30.921 19.8335 30.6072 19.8335ZM34.9279 17.9128H34.7493C34.7491 17.9128 34.7488 17.9129 34.7485 17.9129C34.7483 17.9129 34.748 17.9128 34.7478 17.9128H29.5884H29.5869H29.4099V16.9614H34.9279V17.9128Z" fill="white"/>
<path d="M20.2404 8.84094V7.06703C20.8521 7.1107 21.0793 7.39031 21.2889 7.39031C21.5511 7.39031 21.6735 7.05828 21.6735 6.89227C21.6735 6.46414 20.8346 6.28063 20.2404 6.26313V6.02719C20.2404 5.92227 20.1093 5.82617 19.9782 5.82617C19.8297 5.82617 19.7248 5.92234 19.7248 6.02719V6.28063C18.8947 6.36797 18.0645 6.80492 18.0645 7.90594C18.0645 9.02446 18.9384 9.33907 19.7248 9.61868V11.672C18.8335 11.6022 18.5975 10.9905 18.3092 10.9905C18.0907 10.9905 17.9072 11.2788 17.9072 11.4886C17.9072 11.9168 18.6412 12.5023 19.7248 12.5198V12.7907C19.7248 12.8956 19.8297 12.9917 19.9782 12.9917C20.1093 12.9917 20.2404 12.8956 20.2404 12.7907V12.4936C21.1841 12.3626 21.8307 11.7684 21.8307 10.6935C21.8307 9.50508 21.0006 9.12055 20.2404 8.84094ZM19.7773 8.67492C19.3141 8.50016 18.9384 8.31664 18.9384 7.81852C18.9384 7.36414 19.2879 7.1457 19.7773 7.08453V8.67492ZM20.188 11.6547V9.81086C20.6161 9.99438 20.9569 10.2391 20.957 10.7896C20.957 11.2877 20.6599 11.5673 20.188 11.6547Z" fill="white"/>
</g>
<defs>
<clipPath id="clip0">
<rect width="40" height="40" fill="white"/>
</clipPath>
</defs>
</svg>
