<svg width="40" height="40" viewBox="0 0 40 40" fill="none" xmlns="http://www.w3.org/2000/svg">
<g clip-path="url(#clip0)">
<path d="M39.2034 14.724H38.6695C38.1492 12.0845 35.4809 7.43727 34.2997 5.46892C34.8535 5.08798 35.2176 4.45009 35.2176 3.7286C35.2176 2.56454 34.2705 1.61743 33.1064 1.61743C31.9423 1.61743 30.9953 2.56446 30.9953 3.7286C30.9953 4.45009 31.3594 5.08798 31.9133 5.46892C30.7321 7.43727 28.0638 12.0845 27.5436 14.724H27.0097C26.5697 14.724 26.2129 15.0807 26.2129 15.5208C26.2129 19.322 29.3054 22.4145 33.1066 22.4145C36.9077 22.4145 40.0002 19.322 40.0002 15.5208C40.0002 15.0807 39.6434 14.724 39.2034 14.724ZM33.1065 3.2111C33.3918 3.2111 33.624 3.44329 33.624 3.7286C33.624 4.01392 33.3918 4.24603 33.1065 4.24603C32.8212 4.24603 32.5891 4.01392 32.5891 3.7286C32.5891 3.44329 32.8211 3.2111 33.1065 3.2111ZM33.1052 6.57829C34.4536 8.85423 36.5359 12.6453 37.048 14.724H29.1674C29.6509 12.7777 31.5245 9.23501 33.1052 6.57829ZM33.1065 20.8209C30.4548 20.8209 28.2516 18.8634 27.8662 16.3176H38.3469C37.9613 18.8634 35.7583 20.8209 33.1065 20.8209Z" fill="white"/>
<path d="M27.0923 33.8028H24.9858V31.7792C24.9858 31.3391 24.629 30.9824 24.189 30.9824H22.1654V8.72433C22.6866 8.20917 23.0223 7.50675 23.0612 6.72729L26.4304 6.0023C26.8606 5.90972 27.1344 5.48589 27.0418 5.05565C26.9491 4.62542 26.5253 4.35198 26.0952 4.44433L22.718 5.17112C22.2114 4.20925 21.202 3.55151 20.0414 3.55151C18.4341 3.55151 17.1163 4.81214 17.0236 6.39651L8.59859 8.20948C8.21422 7.68378 7.59336 7.34144 6.89375 7.34144C5.72969 7.34144 4.78258 8.28847 4.78258 9.45261C4.78258 10.1741 5.14664 10.8121 5.70055 11.1929C4.5193 13.1613 1.85109 17.8085 1.33086 20.448H0.796953C0.356719 20.448 0 20.8047 0 21.2448C0 25.046 3.0925 28.1385 6.89367 28.1385C10.6948 28.1385 13.7873 25.046 13.7873 21.2448C13.7873 20.8047 13.4306 20.448 12.9905 20.448H12.4566C11.9364 17.8085 9.26813 13.1613 8.08695 11.1929C8.56148 10.8666 8.89633 10.3517 8.98266 9.75706L17.353 7.95589C17.5003 8.24136 17.6912 8.50073 17.9175 8.72448V30.9826H15.894C15.4539 30.9826 15.0972 31.3393 15.0972 31.7794V33.803H12.9906C12.5505 33.803 12.1938 34.1597 12.1938 34.5998V37.5858C12.1938 38.0259 12.5505 38.3826 12.9906 38.3826H27.0923C27.5323 38.3826 27.8891 38.0259 27.8891 37.5858V34.5996C27.8891 34.1595 27.5323 33.8028 27.0923 33.8028ZM6.89367 8.93495C7.17898 8.93495 7.41117 9.16714 7.41117 9.45245C7.41117 9.73776 7.17898 9.96987 6.89367 9.96987C6.60836 9.96987 6.37617 9.73776 6.37617 9.45245C6.37617 9.16714 6.60836 8.93495 6.89367 8.93495ZM6.89367 26.5447C4.24195 26.5447 2.03883 24.5873 1.65336 22.0414H12.134C11.7485 24.5873 9.54539 26.5447 6.89367 26.5447ZM10.8352 20.4478H2.95461C3.4382 18.5016 5.31172 14.9589 6.8925 12.3021C8.24078 14.578 10.323 18.3691 10.8352 20.4478ZM20.0415 5.14495C20.83 5.14495 21.4714 5.78636 21.4714 6.57487C21.4714 7.36339 20.8299 8.0048 20.0415 8.0048C19.253 8.0048 18.6116 7.36339 18.6116 6.57487C18.6116 5.78636 19.253 5.14495 20.0415 5.14495ZM20.5719 9.55104V30.9825H19.5111V9.55097C19.6834 9.58167 19.8605 9.59855 20.0416 9.59855C20.2227 9.59855 20.3995 9.58159 20.5719 9.55104ZM16.6907 32.576H23.3922V33.8028H16.6907V32.576ZM26.2955 36.7889H13.7874V35.3964H26.2955V36.7889Z" fill="white"/>
<path d="M30.1113 4.44427C30.0187 4.01403 29.5948 3.74036 29.1645 3.83294L28.5839 3.95786C28.1538 4.05044 27.88 4.47427 27.9726 4.9045C28.0531 5.27825 28.3834 5.5338 28.7509 5.5338C28.8064 5.5338 28.8628 5.52802 28.9193 5.51583L29.4999 5.39091C29.93 5.29833 30.2038 4.8745 30.1113 4.44427Z" fill="white"/>
</g>
<defs>
<clipPath id="clip0">
<rect width="40" height="40" fill="white"/>
</clipPath>
</defs>
</svg>
