<svg width="40" height="40" viewBox="0 0 40 40" fill="none" xmlns="http://www.w3.org/2000/svg">
<path d="M31.5835 24.6414C30.7985 23.0047 27.9901 20.733 25.2768 18.538C23.7635 17.3146 22.3335 16.158 21.4218 15.2464C21.1935 15.0164 20.8518 14.943 20.5502 15.0514C19.9885 15.2547 19.6418 15.4114 19.3686 15.533C18.9519 15.7196 18.8119 15.783 18.2502 15.8396C18.0018 15.8646 17.7786 15.998 17.6402 16.2046C16.4618 17.9663 15.2418 17.8163 14.4268 17.543C14.1668 17.4564 14.1202 17.3446 14.0952 17.238C13.9202 16.5064 14.7986 14.803 15.9368 13.6646C18.6452 10.9546 20.0418 10.2763 22.9918 11.5946C26.3385 13.0913 29.6918 14.263 29.7252 14.2746C30.1635 14.4263 30.6352 14.1963 30.7868 13.7613C30.9368 13.3263 30.7085 12.8513 30.2735 12.6996C30.2401 12.688 26.9535 11.5396 23.6735 10.0713C19.8518 8.36292 17.7551 9.48792 14.7601 12.4846C13.6201 13.6246 12.0718 15.9313 12.4718 17.623C12.6434 18.343 13.1501 18.8764 13.9034 19.1246C15.7918 19.748 17.515 19.1513 18.7984 17.448C19.3284 17.3664 19.6168 17.2464 20.05 17.0514C20.2067 16.9814 20.39 16.8997 20.6334 16.8014C21.5868 17.6964 22.8734 18.738 24.2284 19.833C26.6784 21.8146 29.4568 24.0614 30.0818 25.3614C30.3901 26.003 30.0584 26.4214 29.8334 26.613C29.5034 26.8964 29.0518 26.9864 28.8068 26.8146C28.5368 26.6296 28.1851 26.618 27.9068 26.7846C27.6268 26.9513 27.4701 27.2663 27.5051 27.5896C27.5618 28.1196 27.0768 28.423 26.8668 28.528C26.3334 28.798 25.7768 28.7514 25.5684 28.558C25.335 28.3414 25 28.278 24.7034 28.388C24.4068 28.4996 24.2 28.773 24.17 29.0896C24.12 29.6363 23.715 30.1613 23.1867 30.3663C22.9317 30.4629 22.5617 30.5213 22.23 30.2179C22.0234 30.0313 21.7367 29.9596 21.4684 30.0246C21.1968 30.0912 20.9784 30.2879 20.8834 30.5496C20.8518 30.6329 20.78 30.8329 20 30.8329C19.445 30.8329 18.4467 30.4579 17.9584 30.1346C17.3734 29.7496 13.705 27.0129 10.5368 24.3596C10.0918 23.9846 9.32175 23.1812 8.64175 22.4712C8.03839 21.8412 7.48675 21.2696 7.20339 21.0296C6.84839 20.7296 6.32339 20.7746 6.02839 21.1279C5.73175 21.4796 5.77503 22.0063 6.12675 22.3029C6.38511 22.5213 6.88511 23.0496 7.43675 23.6246C8.18011 24.4012 8.94839 25.2046 9.46511 25.6379C12.5685 28.2363 16.2985 31.0413 17.0418 31.5296C17.6551 31.9329 18.9768 32.4996 20.0001 32.4996C20.8218 32.4996 21.4535 32.3112 21.8918 31.9429C22.4784 32.1713 23.1451 32.1729 23.7868 31.9229C24.5451 31.6296 25.1684 31.0379 25.5218 30.3213C26.1784 30.4613 26.9301 30.3629 27.6134 30.0196C28.2818 29.683 28.765 29.168 29.005 28.5663C29.6684 28.6013 30.3517 28.3663 30.9167 27.8813C31.8735 27.063 32.1368 25.7897 31.5835 24.6414Z" fill="white"/>
<path d="M16.6669 10.8331H9.16686C8.70686 10.8331 8.3335 11.2065 8.3335 11.6665C8.3335 12.1265 8.70686 12.4998 9.16686 12.4998H16.6669C17.1269 12.4998 17.5002 12.1265 17.5002 11.6665C17.5002 11.2065 17.1269 10.8331 16.6669 10.8331Z" fill="white"/>
<path d="M34.0251 22.868C33.7668 22.4863 33.2501 22.3813 32.8685 22.6413L30.4319 24.278C30.0502 24.5346 29.9485 25.053 30.2052 25.4346C30.3669 25.673 30.6302 25.803 30.8986 25.803C31.0569 25.803 31.2186 25.758 31.3619 25.6613L33.7986 24.0247C34.1801 23.768 34.2818 23.2497 34.0251 22.868Z" fill="white"/>
<path d="M28.8514 26.8448C28.2548 26.3748 25.5864 23.6431 23.9364 21.9231C23.618 21.5897 23.0898 21.5781 22.758 21.8981C22.4247 22.2165 22.4147 22.7447 22.733 23.0765C23.1614 23.5231 26.9397 27.4615 27.818 28.1548C27.9697 28.2748 28.153 28.3332 28.333 28.3332C28.578 28.3332 28.823 28.2232 28.9897 28.0148C29.2748 27.6548 29.2131 27.1298 28.8514 26.8448Z" fill="white"/>
<path d="M25.5217 28.5165C24.5234 27.7181 22.0151 25.0531 21.4484 24.4364C21.135 24.0964 20.61 24.0764 20.27 24.3864C19.9317 24.6981 19.9084 25.2265 20.22 25.5648C20.25 25.5965 23.2434 28.8282 24.48 29.8182C24.6334 29.9398 24.8184 29.9998 25 29.9998C25.2434 29.9998 25.4866 29.8915 25.6516 29.6882C25.9384 29.3281 25.8801 28.8031 25.5217 28.5165Z" fill="white"/>
<path d="M22.2051 30.1949C21.0167 29.1932 18.5851 26.6049 18.1101 26.0965C17.7951 25.7599 17.2667 25.7415 16.9317 26.0565C16.5951 26.3715 16.5783 26.8982 16.8917 27.2349C17.5751 27.9665 19.9017 30.4332 21.1301 31.4699C21.2867 31.6015 21.4767 31.6665 21.6667 31.6665C21.9033 31.6665 22.1401 31.5649 22.3051 31.3699C22.6017 31.0165 22.5567 30.4915 22.2051 30.1949Z" fill="white"/>
<path d="M9.74 9.39474C8.31164 8.04138 2.6 7.60302 0.883359 7.50138C0.646719 7.48974 0.428359 7.56802 0.261719 7.72638C0.095 7.88302 0 8.10302 0 8.33302V23.333C0 23.793 0.373359 24.1664 0.833359 24.1664H5.83336C6.19336 24.1664 6.51336 23.9348 6.625 23.5914C6.74664 23.218 9.61836 14.4047 9.99664 10.0714C10.0184 9.81802 9.925 9.56802 9.74 9.39474ZM5.225 22.4998H1.66664V9.22638C4.345 9.43802 7.235 9.89802 8.285 10.408C7.84336 14.058 5.845 20.543 5.225 22.4998Z" fill="white"/>
<path d="M39.1664 9.1665C32.6231 9.1665 28.9931 10.8415 28.8414 10.9115C28.6248 11.0131 28.4631 11.2015 28.3964 11.4299C28.3298 11.6582 28.3631 11.9032 28.4881 12.1065C29.5181 13.7649 32.7431 22.9749 33.3631 25.2215C33.4631 25.5831 33.7914 25.8331 34.1664 25.8331H39.1664C39.6264 25.8331 39.9998 25.4598 39.9998 24.9998V9.99978C39.9998 9.53814 39.6264 9.1665 39.1664 9.1665ZM38.3331 24.1665H34.7898C33.9998 21.5931 31.6664 14.8831 30.3648 12.1099C31.6364 11.6782 34.3681 10.9365 38.3331 10.8432V24.1665Z" fill="white"/>
</svg>
