<svg width="40" height="40" viewBox="0 0 40 40" fill="none" xmlns="http://www.w3.org/2000/svg">
<path d="M37.9998 17.3333H24.6665C23.5619 17.3333 22.6665 18.2287 22.6665 19.3333V37.9999C22.6665 39.1045 23.5619 39.9999 24.6665 39.9999H37.9998C39.1044 39.9999 39.9998 39.1045 39.9998 37.9999V19.3333C39.9998 18.2287 39.1044 17.3333 37.9998 17.3333ZM30.6665 38.6666H24.6665C24.2983 38.6666 23.9998 38.3681 23.9998 37.9999V33.3333H30.6665V38.6666ZM30.6665 31.9999H23.9998V26.6666H30.6665V31.9999ZM38.6665 37.9999C38.6665 38.3681 38.368 38.6666 37.9998 38.6666H31.9998V33.3333H38.6665V37.9999ZM38.6665 31.9999H31.9998V26.6666H38.6665V31.9999ZM38.6665 25.3333H23.9998V19.3333C23.9998 18.9651 24.2983 18.6666 24.6665 18.6666H37.9998C38.368 18.6666 38.6665 18.9651 38.6665 19.3333V25.3333Z" fill="white"/>
<path d="M36.6668 20H26.0002C25.632 20 25.3335 20.2985 25.3335 20.6667V23.3333C25.3335 23.7015 25.632 24 26.0002 24H36.6668C37.035 24 37.3335 23.7015 37.3335 23.3333V20.6667C37.3335 20.2985 37.035 20 36.6668 20ZM36.0002 22.6667H26.6668V21.3333H36.0002V22.6667Z" fill="white"/>
<path d="M28.0002 28.6666V27.3333H26.6668V28.6666H25.3335V29.9999H26.6668V31.3333H28.0002V29.9999H29.3335V28.6666H28.0002Z" fill="white"/>
<path d="M37.3335 28.6667H33.3335V30.0001H37.3335V28.6667Z" fill="white"/>
<path d="M29.2189 35.138L28.2762 34.1953L27.3336 35.138L26.3909 34.1953L25.4482 35.138L26.3909 36.0806L25.4482 37.0233L26.3909 37.966L27.3336 37.0233L28.2762 37.966L29.2189 37.0233L28.2762 36.0806L29.2189 35.138Z" fill="white"/>
<path d="M37.3335 35.3333H33.3335V36.6666H37.3335V35.3333Z" fill="white"/>
<path d="M35.9998 37H34.6665V37.6667H35.9998V37Z" fill="white"/>
<path d="M35.9998 34.3333H34.6665V34.9999H35.9998V34.3333Z" fill="white"/>
<path d="M26.6667 0H7.33333V0.006C7.15733 0.00391667 6.98767 0.0720833 6.862 0.195333L0.195333 6.862C0.0719167 6.98758 0.00375 7.15725 0.006 7.33333H0V38.6667C0 39.4031 0.596917 40 1.33333 40H21.3333V38.6667H17.3333V36.6667H18.6667C19.0348 36.6667 19.3333 36.3682 19.3333 36V32.6667C19.3333 32.2985 19.0348 32 18.6667 32H17.3333V30H18.6667C19.0348 30 19.3333 29.7015 19.3333 29.3333V26C19.3333 25.6318 19.0348 25.3333 18.6667 25.3333H18.6493C20.3363 24.0793 21.3313 22.1019 21.3333 20C21.3405 16.3181 18.3615 13.3276 14.6797 13.3204C10.9978 13.3133 8.00717 16.2922 8 19.9741C7.99592 22.0847 8.99142 24.0725 10.684 25.3333H5.33333C4.96517 25.3333 4.66667 25.6318 4.66667 26V28.6667H3.33333C2.96517 28.6667 2.66667 28.9652 2.66667 29.3333V32.6667C2.66667 33.0348 2.96517 33.3333 3.33333 33.3333H4.66667V35.3333H3.33333C2.96517 35.3333 2.66667 35.6318 2.66667 36V38.6667H1.33333V8H6.66667C7.40308 8 8 7.40308 8 6.66667V1.33333H26.6667V16H28V1.33333C28 0.596917 27.4031 0 26.6667 0ZM18 33.3333V35.3333H6V33.3333H18ZM9.33333 20C9.33333 17.0545 11.7212 14.6667 14.6667 14.6667C17.6122 14.6667 20 17.0545 20 20C20 22.9455 17.6122 25.3333 14.6667 25.3333C11.7225 25.33 9.33667 22.9442 9.33333 20ZM6 26.6667H18V28.6667H6V26.6667ZM4 32V30H16V32H5.33333H4ZM4 36.6667H16V38.6667H4V36.6667ZM6.66667 6.66667H2.276L6.66667 2.276V6.66667Z" fill="white"/>
<path d="M14.6665 18H16.6665V16.6667H15.3332V16H13.9998V16.7893C12.9604 17.1554 12.4146 18.2948 12.7808 19.3343C13.0624 20.1339 13.8187 20.6683 14.6665 20.6667C15.0347 20.6667 15.3332 20.9652 15.3332 21.3333C15.3332 21.7015 15.0347 22 14.6665 22H12.6665V23.3333H13.9998V24H15.3332V23.2107C16.3726 22.8446 16.9184 21.7052 16.5523 20.6658C16.2706 19.8661 15.5143 19.3317 14.6665 19.3333C14.2983 19.3333 13.9998 19.0348 13.9998 18.6667C13.9998 18.2985 14.2983 18 14.6665 18Z" fill="white"/>
<path d="M37.3335 3.33333H36.0002C36.0002 2.96517 35.7017 2.66667 35.3335 2.66667H34.6668V0.666667C34.6668 0.2985 34.3683 0 34.0002 0H31.3335C30.9653 0 30.6668 0.2985 30.6668 0.666667V2.66667H30.0002C29.632 2.66667 29.3335 2.96517 29.3335 3.33333V16H30.6668V4H34.6668V16H36.0002V4.66667H37.3335V13.3333H38.6668V4.66667C38.6668 3.93025 38.0699 3.33333 37.3335 3.33333ZM33.3335 2.66667H32.0002V1.33333H33.3335V2.66667Z" fill="white"/>
<path d="M21.3333 5.33325H10V6.66659H21.3333V5.33325Z" fill="white"/>
<path d="M25.3332 9.33325H2.6665V10.6666H25.3332V9.33325Z" fill="white"/>
<path d="M10.6665 12H2.6665V13.3333H10.6665V12Z" fill="white"/>
<path d="M25.3335 12H19.3335V13.3333H25.3335V12Z" fill="white"/>
</svg>
