<svg width="40" height="40" viewBox="0 0 40 40" fill="none" xmlns="http://www.w3.org/2000/svg">
<g clip-path="url(#clip0)">
<path d="M25.7196 27.4077V26.7113C25.9164 26.5523 26.1057 26.3782 26.2874 26.1965C27.7421 24.5946 28.6582 22.5772 28.9068 20.4277C30.2142 20.2285 31.3926 19.5279 32.1924 18.4745C33.2901 16.9226 33.3885 14.6893 32.4725 11.8882C32.4186 11.7266 32.312 11.5879 32.1697 11.4945L31.7533 11.2144C31.8147 8.68697 30.9412 6.2258 29.3004 4.3025C27.264 2.00864 24.1373 0.850346 19.9963 0.835205C15.8627 0.835205 12.7285 2.00864 10.6921 4.27222C9.05125 6.19551 8.1778 8.65669 8.23922 11.1841L7.82284 11.4642C7.68051 11.5576 7.57386 11.6964 7.52002 11.8579C6.60398 14.6741 6.7024 16.8923 7.80013 18.4442C8.59683 19.505 9.77528 20.2137 11.0857 20.4201C11.3354 22.573 12.2542 24.5933 13.7127 26.1965C13.893 26.3778 14.0824 26.5496 14.2805 26.7113V27.4077C11.381 27.968 -0.194353 30.6858 0.00248041 38.4077C0.00248041 38.8258 0.341451 39.1648 0.759533 39.1648H39.2405C39.6586 39.1648 39.9976 38.8258 39.9976 38.4077C40.1944 30.6858 28.6191 27.968 25.7196 27.4077ZM10.6315 18.7319C9.9882 18.5159 9.42751 18.106 9.02655 17.5585L9.0644 17.5661C8.30735 16.4608 8.23922 14.7877 8.91299 12.5771L9.46564 12.2061C9.69815 12.0509 9.82619 11.7803 9.79875 11.5021C9.67137 9.23943 10.4073 7.01266 11.8579 5.27153C13.5689 3.33348 16.317 2.36445 19.9963 2.34931C23.6755 2.33417 26.4236 3.33348 28.1649 5.27153C29.6155 7.01266 30.3514 9.23943 30.224 11.5021C30.1966 11.7803 30.3246 12.0509 30.5571 12.2061L31.1098 12.5771C31.7836 14.7801 31.7381 16.4608 30.9584 17.5661C30.5547 18.1141 29.9915 18.5239 29.3459 18.7395C30.259 17.7004 30.7052 16.3319 30.5798 14.9542C30.438 14.1254 30.0059 13.3741 29.361 12.8345C29.0355 5.26396 23.7285 4.41606 21.4422 4.41606C20.9583 4.41464 20.4749 4.45013 19.9963 4.52205C19.5177 4.45004 19.0342 4.41464 18.5503 4.41606C16.2791 4.41606 10.9797 5.24882 10.6315 12.8345C9.98243 13.3697 9.54504 14.1184 9.39751 14.9467C9.27127 16.3244 9.71755 17.6933 10.6315 18.7319ZM27.8545 12.5241C24.6778 12.7077 21.521 11.9151 18.8077 10.2529C18.5006 10.0373 18.0819 10.0792 17.8235 10.3514C16.3094 11.979 13.5462 12.3575 12.2137 12.4408C12.6226 7.08846 15.8627 5.9226 18.5881 5.9226C19.0219 5.91947 19.4551 5.95496 19.8827 6.02858C19.9826 6.04902 20.0856 6.04902 20.1855 6.02858C20.6131 5.95515 21.0463 5.91966 21.4801 5.9226C24.1828 5.9226 27.4381 7.11874 27.8166 12.5165L27.8545 12.5241ZM12.4787 18.8758L12.509 18.8833C12.5106 18.6967 12.4432 18.5161 12.3197 18.3761C11.2826 17.1875 10.8056 16.105 10.9343 15.2116C10.996 14.7141 11.2418 14.2576 11.6232 13.9322C12.6226 13.9322 16.1656 13.7429 18.4367 11.7822C20.9945 13.2527 23.8897 14.0352 26.84 14.0533C27.3472 14.0533 27.862 14.0533 28.3995 13.9701C28.7706 14.2869 29.0129 14.7284 29.0809 15.2116C29.2096 16.0898 28.7326 17.1875 27.6955 18.3761C27.572 18.5161 27.5046 18.6967 27.5062 18.8833C27.5062 18.8833 27.5062 19.0347 27.5062 19.277L23.1002 21.639C22.2258 20.8112 20.8458 20.8489 20.0179 21.7233C19.1901 22.5977 19.2278 23.9777 20.1022 24.8056C20.9766 25.6334 22.3566 25.5956 23.1845 24.7212C23.5681 24.316 23.7818 23.7792 23.7815 23.2212C23.7849 23.1531 23.7849 23.085 23.7815 23.0168L27.2564 21.1545C26.9581 22.6473 26.2564 24.0298 25.2275 25.1517C23.8854 26.4438 22.0688 27.1234 20.2082 27.0292H19.8297C17.9731 27.1214 16.1605 26.4452 14.818 25.1593C12.4257 22.7746 12.4787 18.9136 12.4787 18.8758ZM22.2674 23.2212C22.2674 23.5933 21.9657 23.895 21.5936 23.895C21.2215 23.895 20.9199 23.5933 20.9199 23.2212C20.9199 22.8492 21.2215 22.5475 21.5936 22.5475C21.9657 22.5475 22.2674 22.8492 22.2674 23.2212ZM19.2392 37.6052H1.5393C2.13737 31.9198 11.381 29.5426 14.2729 28.9294V30.2845C14.2729 32.0031 16.3624 33.3128 19.2392 33.5323V37.6052ZM15.787 30.2845V30.2618V27.6727C17.0454 28.2563 18.4201 28.5463 19.807 28.5206H20.1855C21.5724 28.5463 22.9471 28.2563 24.2055 27.6727V30.2845C24.2055 31.0037 22.5627 32.0409 19.9963 32.0409C17.4298 32.0409 15.787 31.0037 15.787 30.2845ZM20.7533 37.628V33.5247C23.6301 33.3279 25.7196 32.0106 25.7196 30.277V28.9521C28.6342 29.5578 37.8324 31.9349 38.4532 37.628H20.7533Z" fill="white"/>
</g>
<defs>
<clipPath id="clip0">
<rect width="40" height="40" fill="white"/>
</clipPath>
</defs>
</svg>
