<svg width="40" height="40" viewBox="0 0 40 40" fill="none" xmlns="http://www.w3.org/2000/svg">
<g clip-path="url(#clip0)">
<path d="M36.7152 26.4303L33.85 27.3854C33.5518 26.4916 32.8541 25.7879 31.9629 25.482C31.7045 23.7797 30.193 22.5538 28.474 22.6522C27.3616 20.8662 25.3516 19.8432 23.253 19.9946C23.0256 19.1057 22.3582 18.3956 21.485 18.1135C22.1084 16.0856 23.2213 14.2422 24.7254 12.746C24.8058 12.8381 24.8811 12.9349 24.9662 13.0223C26.3084 14.3921 28.1422 15.1688 30.06 15.1799C30.195 15.1799 30.3308 15.176 30.4659 15.1675C32.1941 15.0891 33.7989 14.2496 34.849 12.8749C37.7514 9.05712 39.8868 1.38491 39.976 1.06007C40.0273 0.874131 39.9956 0.675068 39.889 0.514287C39.7823 0.353505 39.6113 0.246864 39.42 0.221864C39.0271 0.169755 29.7403 -0.995951 25.0977 2.92499C24.7697 3.20179 24.4723 3.51273 24.2103 3.85265C22.3824 3.3489 20.4758 3.19445 18.5906 3.39734C18.3938 3.42 18.2173 3.52906 18.1089 3.69484C18.0004 3.86062 17.9713 4.06601 18.0294 4.25547C18.074 4.4 19.1332 7.81375 20.5906 9.52337C21.2364 10.2559 22.1724 10.6666 23.1489 10.6458C23.2445 10.6458 23.3414 10.6384 23.4382 10.6312C23.576 10.9765 23.7392 11.3111 23.9266 11.6324C22.113 13.3924 20.8014 15.6042 20.1267 18.0398C19.4958 18.1735 18.934 18.5295 18.5437 19.0429C16.7092 18.2326 14.562 18.6896 13.2166 20.1767C12.8242 20.0466 12.4135 19.9801 12.0001 19.9797C10.0502 19.983 8.38649 21.3907 8.06032 23.3131H6.82548C6.26946 22.4804 5.33454 21.9803 4.33336 21.9797H3C1.34391 21.9815 0.00179688 23.3236 0 24.9797V36.9798C0.00179688 38.6358 1.34391 39.978 3 39.9798H4.33336C5.01212 39.9769 5.6693 39.7416 6.19571 39.3131H23.5332C24.5114 39.3132 25.4708 39.0441 26.3064 38.5355L38.8025 30.929C39.8859 30.268 40.3008 28.8993 39.7667 27.7481C39.2325 26.5968 37.9195 26.0297 36.7152 26.4303ZM24.2354 7.57344C24.2758 6.17578 24.9006 4.85914 25.9577 3.9439C28.5101 1.78898 32.8467 1.36413 35.8695 1.36413C36.9509 1.36413 37.8643 1.41851 38.4675 1.46734C37.8512 3.50578 36.0228 9.12782 33.7878 12.0683C32.9706 13.1317 31.7247 13.7792 30.3848 13.8369C28.7154 13.9251 27.0891 13.2895 25.9219 12.0927C25.8371 12.0056 25.761 11.91 25.6819 11.8172C27.0787 10.5505 28.6278 9.46251 30.2934 8.57837C30.6241 8.41649 30.761 8.01711 30.5991 7.68641C30.4372 7.35571 30.0378 7.21883 29.7071 7.38071C27.9802 8.27758 26.3722 9.38719 24.9209 10.6835C24.4252 9.72438 24.1889 8.65219 24.2354 7.57344ZM22.9037 7.50797C22.878 8.11211 22.9269 8.71712 23.0494 9.3093C22.4989 9.30516 21.9756 9.06962 21.6075 8.66032C20.7286 7.44055 20.0434 6.09242 19.5759 4.66359C20.8959 4.58687 22.2199 4.7107 23.5028 5.03078C23.146 5.81039 22.9425 6.65141 22.9037 7.50797ZM6.00001 36.9798C5.99891 37.8997 5.25337 38.6453 4.33336 38.6464H3C2.08 38.6453 1.33438 37.8997 1.33336 36.9798V24.9797C1.33445 24.0597 2.08 23.3142 3 23.3131H4.33336C5.25337 23.3142 5.99899 24.0597 6.00001 24.9797V36.9798ZM12 21.313C12.3944 21.3154 12.7832 21.4064 13.1377 21.5793C13.4285 21.7172 13.7762 21.6281 13.9648 21.3674C14.9906 19.9335 16.9585 19.5521 18.4459 20.4985C18.6149 20.6057 18.8231 20.6313 19.013 20.5682C19.2029 20.505 19.3544 20.36 19.4256 20.173C19.6133 19.6752 20.0819 19.3391 20.6136 19.321C20.6314 19.3224 20.6495 19.3263 20.6672 19.3263C20.6839 19.3263 20.6989 19.3191 20.7155 19.3178C21.4192 19.3392 21.9836 19.9066 22.0012 20.6104C21.9986 20.6289 21.9917 20.6921 21.9905 20.7107C21.9788 20.9173 22.0637 21.1177 22.2203 21.253C22.377 21.3883 22.5876 21.4432 22.7903 21.4014C23.0787 21.3425 23.3723 21.3129 23.6667 21.3129C25.2945 21.3107 26.7851 22.2242 27.5221 23.6756C27.6593 23.9438 27.9593 24.0865 28.2539 24.0236C28.8382 23.9039 29.4453 24.0498 29.9114 24.422C30.3774 24.7942 30.6539 25.3541 30.6664 25.9504C30.6647 25.9725 30.6635 25.995 30.6635 26.0129C30.6636 26.3447 30.9076 26.6258 31.2361 26.6727C31.8636 26.7654 32.3844 27.2053 32.5808 27.8084L24.375 30.5439C24.171 30.6118 23.9575 30.6465 23.7425 30.6464H23.3595C23.6762 29.7781 23.5847 28.8133 23.1103 28.02L23.0511 27.9221C22.3257 26.72 21.0255 25.9836 19.6214 25.9797H16.1345C14.9044 25.9782 13.7113 25.5596 12.7497 24.7925C11.7854 24.0254 10.6301 23.5359 9.40821 23.3768C9.68837 22.1706 10.7618 21.3159 12 21.313ZM38.6456 29.0188C38.5851 29.3406 38.39 29.6212 38.1094 29.79L25.613 37.3968C24.9864 37.7782 24.2668 37.9799 23.5332 37.9798H7.14907C7.26767 37.6596 7.33001 37.3213 7.33337 36.9798V24.9798C7.32852 24.8682 7.31727 24.7568 7.2997 24.6464H8.53228C9.76236 24.648 10.9555 25.0665 11.917 25.8336C13.115 26.7897 14.6018 27.3112 16.1345 27.3132H19.6214C20.5577 27.3159 21.4246 27.8071 21.9082 28.6087L21.9675 28.7067C22.3314 29.3133 22.2924 30.0799 21.8687 30.6465H17.8167C16.5004 30.6451 15.2134 31.0349 14.1191 31.7662L13.6305 32.0918C13.4311 32.2233 13.3173 32.4515 13.3323 32.6899C13.3472 32.9283 13.4886 33.1405 13.7029 33.2461C13.9172 33.3517 14.1716 33.3345 14.3698 33.2011L14.8584 32.8755C15.734 32.2904 16.7636 31.9786 17.8167 31.9797H23.7425C24.1008 31.9797 24.4567 31.922 24.7966 31.8088L33.3024 28.9735C33.3132 28.974 33.3224 28.9797 33.3333 28.9797C33.4829 28.9771 33.6268 28.9232 33.7414 28.8271L37.1371 27.6952C37.6123 27.5365 38.1357 27.7011 38.4346 28.1031C38.6325 28.3642 38.7092 28.6975 38.6456 29.0188Z" fill="white"/>
<path d="M15.2337 23.9664C15.5944 24.0397 15.9464 23.8067 16.0198 23.446C16.1161 22.981 16.5252 22.6473 17 22.6464C17.2162 22.6457 17.4269 22.7158 17.5996 22.8459C17.894 23.0655 18.3104 23.0056 18.5309 22.712C18.7515 22.4185 18.6931 22.0019 18.4004 21.7802C17.9972 21.4757 17.5053 21.3116 17 21.3131C15.8918 21.3156 14.9372 22.095 14.7132 23.1803C14.6399 23.5411 14.8729 23.893 15.2337 23.9664Z" fill="white"/>
<path d="M22.3692 24.1866C22.5827 24.2928 22.8366 24.2768 23.0351 24.1447C23.4319 23.8843 23.9569 23.9378 24.2933 24.2727C24.4468 24.4252 24.5462 24.6238 24.5762 24.8381C24.6229 25.1663 24.9038 25.4102 25.2354 25.4106C25.2672 25.4106 25.2989 25.4084 25.3305 25.4042C25.695 25.3521 25.9483 25.0145 25.8965 24.6499C25.7833 23.8581 25.2723 23.1793 24.5426 22.8514C23.8129 22.5235 22.9661 22.5922 22.2989 23.0334C22.0999 23.1647 21.9862 23.3924 22.0008 23.6303C22.0151 23.8683 22.1557 24.0804 22.3692 24.1866Z" fill="white"/>
</g>
<defs>
<clipPath id="clip0">
<rect width="40" height="40" fill="white"/>
</clipPath>
</defs>
</svg>
