<svg width="41" height="40" viewBox="0 0 41 40" fill="none" xmlns="http://www.w3.org/2000/svg">
<g clip-path="url(#clip0)">
<path d="M19.2243 10.6819C18.9849 10.6819 18.8943 10.6314 18.2593 10.2358C17.9547 10.0462 17.4853 9.74409 16.979 9.38297C15.6226 8.41581 14.7921 7.60276 14.4392 6.89734C14.0081 6.03537 13.88 5.05506 14.0784 4.13713C14.2775 3.21583 14.7777 2.44253 15.4868 1.95941C16.1889 1.48088 17.0126 1.33441 17.8691 1.53622C18.4739 1.67871 18.8561 1.98112 19.2246 2.3508C19.5927 1.98112 19.9749 1.67871 20.5798 1.53622C21.4362 1.33441 22.26 1.48088 22.9623 1.95941C23.6711 2.44253 24.1711 3.21583 24.3704 4.13713C24.5686 5.05536 24.4405 6.03537 24.0096 6.89734C23.6568 7.60276 22.826 8.41581 21.4699 9.38297C20.9635 9.74439 20.4941 10.0462 20.1896 10.2358C19.5542 10.6314 19.464 10.6819 19.2243 10.6819ZM17.1355 3.01464C16.8579 3.01464 16.601 3.09414 16.3684 3.25283C15.9923 3.50907 15.7226 3.94052 15.6085 4.46767C15.4853 5.03855 15.5672 5.65254 15.8394 6.19682C16.273 7.06429 18.3094 8.43721 19.2243 8.99525C20.1391 8.43721 22.1756 7.06429 22.6092 6.19682C22.8813 5.65254 22.9633 5.03855 22.84 4.46767C22.726 3.94052 22.4563 3.50907 22.0805 3.25283C21.746 3.02503 21.3622 2.96021 20.9387 3.05989C20.6473 3.12838 20.499 3.27485 20.0737 3.72709C19.985 3.82126 19.8902 3.92186 19.786 4.02919C19.6386 4.18116 19.4359 4.26678 19.2243 4.26678C19.0127 4.26678 18.81 4.18116 18.6626 4.02919C18.5583 3.92186 18.4635 3.82126 18.3748 3.72709C17.9495 3.27485 17.8012 3.12838 17.5098 3.05989C17.3814 3.02962 17.2566 3.01464 17.1355 3.01464Z" fill="white"/>
<path d="M12.9708 26.5698C12.9201 26.5698 12.869 26.5643 12.8182 26.5542C12.7681 26.5438 12.7189 26.5291 12.6718 26.5096C12.625 26.49 12.5794 26.4655 12.5363 26.4374C12.4941 26.4093 12.4535 26.3762 12.4174 26.3405C12.3816 26.3044 12.3486 26.2637 12.3204 26.2215C12.2923 26.1784 12.2679 26.1329 12.2483 26.0861C12.2287 26.039 12.214 25.9897 12.2036 25.9396C12.1936 25.8888 12.189 25.8378 12.189 25.7861C12.189 25.5803 12.2718 25.3782 12.4174 25.2327C12.4535 25.1966 12.4941 25.1648 12.5363 25.1357C12.5794 25.1076 12.625 25.0831 12.6718 25.0636C12.7189 25.044 12.7681 25.0293 12.8182 25.0189C12.9192 24.9987 13.0234 24.9987 13.1243 25.0189C13.1745 25.0293 13.2237 25.044 13.2708 25.0636C13.3176 25.0831 13.3631 25.1076 13.4062 25.1357C13.4484 25.1648 13.4891 25.1966 13.5252 25.2327C13.6707 25.3791 13.7545 25.5803 13.7545 25.7861C13.7545 25.8378 13.749 25.8888 13.7389 25.9396C13.7285 25.9897 13.7139 26.039 13.6943 26.0861C13.6747 26.1329 13.6503 26.1784 13.6221 26.2215C13.5931 26.2637 13.561 26.3035 13.5252 26.3405C13.4891 26.3762 13.4484 26.4093 13.4062 26.4374C13.3631 26.4655 13.3176 26.49 13.2708 26.5096C13.2237 26.5291 13.1745 26.5438 13.1243 26.5542C13.0736 26.5643 13.0225 26.5698 12.9708 26.5698Z" fill="white"/>
<path d="M40.0771 35.2467C40.0281 33.4684 38.5167 32.0214 36.7074 32.0214H36.4803V22.7993L36.6851 22.9498C36.8221 23.0504 36.9848 23.1017 37.1487 23.1017C37.2691 23.1017 37.3902 23.0739 37.5021 23.0173C37.7654 22.884 37.9311 22.614 37.9311 22.319V18.4118C37.9311 18.1626 37.8128 17.9284 37.6119 17.781L27.1227 10.0755C26.8469 9.87278 26.4714 9.87278 26.1959 10.0755L21.4885 13.5335V12.3199C21.4885 11.8875 21.1378 11.5371 20.7057 11.5371H17.7428C17.3107 11.5371 16.96 11.8875 16.96 12.3199V16.8597L15.7063 17.781C15.5057 17.9284 15.3871 18.1626 15.3871 18.4118V19.9128C12.8241 18.7992 9.07167 18.8793 6.81018 19.0634V18.3222C6.81018 17.8898 6.45976 17.5394 6.0274 17.5394H0.782779C0.350416 17.5394 0 17.8898 0 18.3222V30.8075C0 31.2396 0.350416 31.5903 0.782779 31.5903H6.0274C6.45976 31.5903 6.81018 31.2396 6.81018 30.8075V28.9175H7.94979C8.06782 29.2224 8.2892 29.9452 8.56654 31.5564C9.3536 36.132 12.1352 38.6518 16.3986 38.6518L36.7603 38.657C37.6639 38.657 38.5084 38.3005 39.1386 37.6529C39.7685 37.0055 40.1018 36.1509 40.0771 35.2467ZM34.915 32.0214H30.399V24.1628C30.399 23.7304 30.0483 23.38 29.6163 23.38H23.7023C23.2699 23.38 22.9195 23.7304 22.9195 24.1628V26.1014L18.0709 21.8744L26.6585 15.5843L34.9147 21.649L34.915 32.0214ZM28.7399 32.0214C28.5815 31.3182 28.1944 30.662 27.5923 30.1752L24.4851 27.466V24.9459H28.8335V32.0214H28.7399ZM18.5259 13.1027H19.9229V14.6835L18.5259 15.7097V13.1027ZM16.9527 18.8081L26.6591 11.6778L36.3656 18.8081V20.7727L27.1227 13.9827C26.9848 13.8812 26.8221 13.8307 26.6591 13.8307C26.4968 13.8307 26.3344 13.8812 26.1965 13.9821L16.9527 20.7528V18.8081ZM5.24462 30.0247H1.56556V19.105H5.24462V30.0247ZM38.0165 36.5613C37.6838 36.9031 37.2377 37.0915 36.7606 37.0915L16.3986 37.0863C12.0245 37.0863 10.5642 33.9347 10.1092 31.291C9.92447 30.2177 9.73734 29.3689 9.55266 28.7686C9.40038 28.2736 9.11693 27.352 8.32192 27.352H6.81018V20.6348C9.07565 20.4437 13.9414 20.2694 15.8715 22.0334C15.8757 22.0373 15.8803 22.0416 15.8849 22.0456L26.5753 31.3653C26.5836 31.3726 26.5919 31.3796 26.6004 31.3864C27.3551 31.9903 27.4774 33.095 26.8738 33.8494C26.5812 34.2148 26.1641 34.4447 25.6987 34.4964C25.233 34.5477 24.7762 34.415 24.4144 34.1258L15.4703 26.8716C15.1345 26.5995 14.6416 26.6508 14.3692 26.9866C14.0967 27.3223 14.1481 27.8152 14.4839 28.0877L23.4323 35.3449C24.0264 35.8204 24.749 36.0729 25.499 36.0729C25.6226 36.0729 25.7467 36.0659 25.8711 36.0521C26.7521 35.9546 27.5422 35.5195 28.096 34.8275C28.3978 34.4505 28.6038 34.027 28.7173 33.5867H36.7074C37.6767 33.5867 38.4861 34.3505 38.5118 35.2895C38.525 35.7678 38.3491 36.2191 38.0165 36.5613Z" fill="white"/>
</g>
<defs>
<clipPath id="clip0">
<rect width="40.0782" height="40" fill="white"/>
</clipPath>
</defs>
</svg>
