<svg width="40" height="40" viewBox="0 0 40 40" fill="none" xmlns="http://www.w3.org/2000/svg">
<g clip-path="url(#clip0)">
<path d="M29.457 16.8606C29.1518 16.5554 28.6571 16.5554 28.3519 16.8606C28.0468 17.1657 28.0468 17.6604 28.3519 17.9656C29.5702 19.1836 31.5526 19.1839 32.7712 17.9653C33.8643 16.8709 33.9812 15.1656 33.0489 13.9098C32.7919 13.5634 32.3024 13.4911 31.9561 13.7481C31.6094 14.0053 31.537 14.4945 31.7943 14.8412C32.2609 15.4699 32.2069 16.3192 31.6661 16.8606C31.057 17.4697 30.0661 17.4697 29.457 16.8606Z" fill="white"/>
<path d="M24.8467 7.89332C25.1931 8.15058 25.6826 8.07826 25.9395 7.73158C26.1968 7.3852 26.1245 6.89601 25.7781 6.63874C24.5223 5.70643 22.8167 5.82362 21.7223 6.91676C20.504 8.13502 20.504 10.1174 21.7223 11.3357C22.0275 11.6409 22.5222 11.6409 22.8273 11.3357C23.1322 11.0305 23.1322 10.5358 22.8273 10.231C22.2182 9.62184 22.2182 8.63063 22.827 8.0218C23.3684 7.48072 24.218 7.42671 24.8467 7.89332Z" fill="white"/>
<path d="M31.1131 4.15463C29.8958 5.37289 29.8958 7.35532 31.1137 8.57419C32.332 9.79153 34.3147 9.79153 35.533 8.57419L35.5333 8.57388C36.7509 7.35532 36.7509 5.37289 35.533 4.15402C34.3147 2.93668 32.332 2.93668 31.1131 4.15463ZM34.4283 7.46915C33.8188 8.07797 32.8273 8.07767 32.2185 7.46945C31.6097 6.86002 31.6097 5.86819 32.2182 5.25937C32.827 4.65115 33.8185 4.64993 34.4283 5.25876C35.0371 5.86819 35.0371 6.85971 34.4283 7.46915Z" fill="white"/>
<path d="M37.9717 2.49725C37.9717 2.92847 37.6219 3.2785 37.1904 3.2785C36.7589 3.2785 36.4092 2.92847 36.4092 2.49725C36.4092 2.06573 36.7589 1.7157 37.1904 1.7157C37.6219 1.7157 37.9717 2.06573 37.9717 2.49725Z" fill="white"/>
<path d="M0.3125 35.2679C0.3125 35.4751 0.394897 35.6737 0.541381 35.8202L3.85619 39.1353C4.16106 39.4402 4.65606 39.4402 4.96123 39.135L8.19151 35.9041L12.0587 39.7713C12.3639 40.0762 12.8585 40.0762 13.1637 39.7713C13.4686 39.4661 13.4686 38.9715 13.1637 38.6663L12.6114 38.1139C14.1229 36.6024 17.1295 33.5958 18.1356 32.5899L18.6877 33.1423C18.9929 33.4472 19.4876 33.4472 19.7927 33.1423C20.0976 32.8371 20.0976 32.3424 19.7927 32.0373L15.9265 28.1704L24.0545 20.0512C24.3456 20.5072 24.671 20.9136 25.0372 21.2796C28.0904 24.3328 33.0321 24.3334 36.0857 21.2796C38.6117 18.7536 39.0807 14.8425 37.2527 11.7758C37.427 11.6354 37.5896 11.4892 37.7428 11.3357C39.2745 9.80436 39.9636 7.61534 39.5864 5.48003C39.5113 5.05523 39.1057 4.77172 38.6809 4.84649C38.2561 4.92156 37.9726 5.32683 38.0477 5.75194C38.3361 7.38524 37.8093 9.05973 36.6375 10.2316C36.3894 10.48 36.1043 10.7052 35.7653 10.9207C35.5819 11.037 35.4555 11.2246 35.4159 11.4383C35.3765 11.6519 35.4278 11.8722 35.5575 12.0465C37.4233 14.5562 37.181 17.9748 34.981 20.1748C32.5384 22.6174 28.5851 22.6177 26.1422 20.1748C25.667 19.6997 25.2746 19.129 24.942 18.4298C24.833 18.2006 24.6197 18.0386 24.3694 17.9956C24.1195 17.9522 23.8641 18.0334 23.6843 18.2125L14.2694 27.6174C14.1229 27.7639 14.0405 27.9626 14.0402 28.1698C14.0402 28.377 14.1226 28.576 14.2691 28.7225L17.0309 31.4849L14.8214 33.6944L12.059 30.9325C11.7538 30.6274 11.2591 30.6274 10.9543 30.9325C10.6491 31.2377 10.6491 31.7324 10.9543 32.0376L13.7164 34.7991L11.5066 37.0092L8.74418 34.2467C8.439 33.9416 7.94432 33.9416 7.63914 34.2467C7.63914 34.2467 7.63884 34.2467 7.63884 34.247L4.40856 37.4776L2.19879 35.2679L21.4746 16.0037C21.654 15.8242 21.7352 15.5688 21.6921 15.3186C21.6491 15.0683 21.4871 14.8547 21.2579 14.7458C20.5587 14.4131 19.9877 14.0207 19.5129 13.5455C17.0761 11.1087 17.0761 7.14354 19.5129 4.70672C21.7129 2.50671 25.1315 2.2644 27.6412 4.13024C27.8155 4.25994 28.0358 4.3109 28.2494 4.27154C28.4628 4.23217 28.6504 4.10552 28.767 3.92242C28.9822 3.58337 29.2077 3.29803 29.4567 3.04962C30.6283 1.87805 32.3031 1.35101 33.937 1.64032C34.3618 1.71539 34.7671 1.43188 34.8424 1.00708C34.9175 0.582277 34.634 0.176699 34.2092 0.101626C32.0736 -0.27618 29.884 0.412905 28.3526 1.94397C28.1985 2.09778 28.052 2.26043 27.9116 2.43469C24.8455 0.607606 20.9347 1.07544 18.4079 3.60198C15.3619 6.64793 15.3619 11.6046 18.4079 14.6505C18.7738 15.0164 19.1799 15.3418 19.6356 15.6326L0.541686 34.7155C0.394897 34.862 0.3125 35.0606 0.3125 35.2679H0.3125Z" fill="white"/>
</g>
<defs>
<clipPath id="clip0">
<rect width="40" height="40" fill="white"/>
</clipPath>
</defs>
</svg>
