<svg width="40" height="40" viewBox="0 0 40 40" fill="none" xmlns="http://www.w3.org/2000/svg">
<g clip-path="url(#clip0)">
<path d="M23.3335 19.9999C23.3377 23.6802 26.3201 26.6626 30.0001 26.6665V25.3332C27.0548 25.3332 24.6668 22.9455 24.6668 19.9999C24.6668 17.0546 27.0548 14.6666 30.0001 14.6666V13.3333C26.3201 13.3375 23.3377 16.3199 23.3335 19.9999Z" fill="white"/>
<path d="M39.6058 8.72457L20.2726 0.0579675C20.1053 -0.0165762 19.9146 -0.0195059 19.7453 0.0508061L0.412106 8.05075C0.162759 8.15394 0.000325519 8.3971 0 8.66663V11.9999C0 12.3681 0.2985 12.6666 0.666662 12.6666H1.33332V15.3332C1.33332 15.7014 1.63182 15.9999 1.99999 15.9999H2.66665V17.9999C2.66665 18.3681 2.96515 18.6666 3.33331 18.6666H3.99997V30.6665H3.33331C2.96515 30.6665 2.66665 30.965 2.66665 31.3331V33.3331H1.33332C0.965162 33.3331 0.666662 33.6316 0.666662 33.9998V36.6664C0.666662 37.7712 1.56216 38.6664 2.66665 38.6664H27.7039C28.1743 39.491 29.0506 40.0001 29.9998 40.0001C30.9493 40.0001 31.8256 39.491 32.296 38.6664H37.3331C38.4379 38.6664 39.3331 37.7712 39.3331 36.6664V33.9998C39.3331 33.6316 39.0349 33.3331 38.6664 33.3331H37.3331V31.3331C37.3331 30.965 37.0349 30.6665 36.6664 30.6665H35.9997V27.1385C39.2989 24.3846 40.2758 19.7261 38.3611 15.8788C38.5489 15.7607 38.6638 15.5553 38.6664 15.3332V12.6666H39.3331C39.7015 12.6666 39.9997 12.3681 39.9997 11.9999V9.33329C40 9.0706 39.8457 8.83232 39.6058 8.72457ZM29.3331 29.2993C29.5545 29.3152 29.7745 29.3331 29.9998 29.3331C30.2254 29.3331 30.4454 29.3152 30.6664 29.2993V29.9998H29.3331V29.2993ZM27.9998 29.9998C27.6316 29.9998 27.3331 30.2983 27.3331 30.6665V33.3331H23.9998V31.3331C23.9998 30.965 23.7017 30.6665 23.3332 30.6665H22.6665V25.7547C24.0018 27.4578 25.8869 28.6447 27.9998 29.1118V29.9998ZM10.6666 33.3331V31.3331C10.6666 30.965 10.3684 30.6665 9.99993 30.6665H9.33327V18.6666H9.99993C10.3684 18.6666 10.6666 18.3681 10.6666 17.9999V15.9999H15.9999V17.9999C15.9999 18.3681 16.2984 18.6666 16.6665 18.6666H17.3332V30.6665H16.6665C16.2984 30.6665 15.9999 30.965 15.9999 31.3331V33.3331H10.6666ZM18.6665 18.6666H20.7733C20.5223 20.2805 20.716 21.9322 21.3332 23.4439V30.6665H18.6665V18.6666ZM17.3332 31.9998H22.6665V33.3331H17.3332V31.9998ZM21.0601 17.3332H17.3332V15.9999H21.5799C21.3726 16.4302 21.1987 16.8762 21.0601 17.3332ZM22.3514 14.6666H2.66665V12.6666H24.2453C23.519 13.2366 22.881 13.9107 22.3514 14.6666ZM9.33327 15.9999V17.3332H3.99997V15.9999H9.33327ZM5.3333 18.6666H7.99994V30.6665H5.3333V18.6666ZM3.99997 31.9998H9.33327V33.3331H3.99997V31.9998ZM2.66665 37.3331C2.29849 37.3331 1.99999 37.0346 1.99999 36.6664V34.6664H27.3331V37.3331H2.66665ZM31.3331 37.3331C31.3331 38.0694 30.7364 38.6664 29.9998 38.6664C29.2635 38.6664 28.6665 38.0694 28.6665 37.3331V31.3331H31.3331V37.3331ZM37.9997 36.6664C37.9997 37.0346 37.7016 37.3331 37.3331 37.3331H32.6664V34.6664H37.9997V36.6664ZM32.6664 33.3331V31.9998H35.9997V33.3331H32.6664ZM34.6664 30.6665H32.6664C32.6664 30.2983 32.3683 29.9998 31.9998 29.9998V29.1118C32.9373 28.9051 33.837 28.5539 34.6664 28.0705V30.6665ZM29.9998 27.9998C25.5815 27.9998 21.9998 24.4181 21.9998 19.9999C21.9998 15.5816 25.5815 11.9999 29.9998 11.9999C34.418 11.9999 37.9997 15.5816 37.9997 19.9999C37.9952 24.4162 34.4161 27.9953 29.9998 27.9998ZM35.7546 12.6666H37.3331V14.2454C36.8715 13.6585 36.3415 13.1285 35.7546 12.6666ZM38.6664 11.3333H33.4438C31.2338 10.4446 28.7661 10.4446 26.5558 11.3333H1.33332V9.11194L19.9894 1.39292L38.6664 9.7646V11.3333Z" fill="white"/>
<path d="M16.6665 6.66658C16.6665 8.50773 18.159 9.99992 19.9998 9.99992C21.841 9.99992 23.3332 8.50773 23.3332 6.66658C23.3332 4.82576 21.841 3.33325 19.9998 3.33325C18.16 3.33553 16.6688 4.82674 16.6665 6.66658ZM19.9998 4.66659C21.1047 4.66659 21.9998 5.56209 21.9998 6.66658C21.9998 7.7714 21.1047 8.66658 19.9998 8.66658C18.8953 8.66658 17.9998 7.7714 17.9998 6.66658C17.9998 5.56209 18.8953 4.66659 19.9998 4.66659Z" fill="white"/>
</g>
<defs>
<clipPath id="clip0">
<rect width="40" height="40" fill="white"/>
</clipPath>
</defs>
</svg>
